<svg enable-background="new 0 0 30 30" viewBox="0 0 30 30" xmlns="http://www.w3.org/2000/svg"><g clip-rule="evenodd" fill-rule="evenodd"><path d="m23.4 19.6-7.3 4.2v-7.7l7.5-4.2z" fill="#e7e7e8"/><path d="m6.7 19.1 6.7 3.9v-8.4l1.1-.4 7.4-4.2-7.4-4.3-7.8 4.6z" fill="#d1d2d4"/><path d="m23.9 20-.1-9.8-8.8-5.6-8.7 5.6-.3 10.1-2.3 1.3c-1.1-1.9-1.8-4.2-1.8-6.6 0-7.2 5.9-13.1 13.1-13.1s13.1 5.9 13.1 13.1c0 2.4-.6 4.6-1.8 6.6z" fill="#a7c83e"/><path d="m3.3 23.4c.7-.4 2.8-1.6 2.8-1.6l8.5 4.9s.2.2.4.2.4-.2.4-.2l8.5-4.9s2.4 1.4 2.8 1.7h.2 4.4l-.8 6.6-34.1.1-.5-6.7h6.9c.3.1.4 0 .5-.1z" fill="#4b80c2"/><path d="m37.9 22.7h-10.5s-.2 0-.3 0c-.2 0-.3-.1-.3-.1l-2.9-1.7-8.5 4.9s-.1 0-.1.1c-.1 0-.2 0-.2 0-.1 0-.2 0-.3-.1l-8.6-5-3 1.7s-.1.1-.3.1c-.1 0-.3 0-.3 0h-10.4v-1.2h9.3c-1-2-1.5-4.2-1.5-6.6 0-8.1 6.7-14.8 15-14.8s15 6.7 15 15c0 2.4-.5 4.6-1.5 6.6h9.4zm-23.4-21.5c-7.4.3-13.3 6.4-13.3 13.8 0 2.3.6 4.5 1.6 6.4l2.7-1.6v-9.9c0-.2.1-.4.3-.5l8.6-5v-3.2zm-7.2 8.7.6.4c.2.1.3.3.3.5 0 .3-.3.6-.6.6-.1 0-.2 0-.3-.1l-.6-.4v8.9l7.8 4.5v-2.1c0-.3.3-.6.6-.6s.6.3.6.6v2.1l7.7-4.5v-9l-1.6.9c-.1 0-.2.1-.3.1-.3 0-.6-.3-.6-.6 0-.2.1-.4.3-.5l1.5-.9-7.7-4.4zm21.5 5.1c0-7.4-5.8-13.4-13.1-13.8v3.2l8.5 4.9c.2.1.3.3.3.5v9.9l2.7 1.5c1-1.7 1.6-3.9 1.6-6.2zm-8.7-2.2-4.4 2.6v4.4c0 .3-.3.6-.6.6s-.6-.3-.6-.6v-4.5l-4.4-2.5c-.2-.1-.4-.3-.4-.5 0-.3.3-.6.6-.6.1 0 .2 0 .3.1l4.5 2.6 4.5-2.6c.1 0 .2-.1.3-.1.3 0 .6.3.6.6-.1.2-.2.4-.4.5zm-2.5-3.8c-.2 0-.3-.1-.3-.3s.1-.3.3-.3.3.1.3.3c0 .1-.2.3-.3.3zm-3.3 1c.2 0 .3.1.3.3s-.1.3-.3.3-.3-.1-.3-.3.1-.3.3-.3zm.1-2.2c-.2 0-.3-.1-.3-.3s.1-.3.3-.3.3.1.3.3-.2.3-.3.3zm-5.6 4.2c-.2 0-.4-.2-.4-.4s.2-.4.4-.4.4.2.4.4-.1.4-.4.4zm-.8 6.3c-.2 0-.3-.1-.3-.3s.1-.3.3-.3.3.1.3.3-.2.3-.3.3zm2.2-3.7c.2 0 .3.1.3.3s-.1.3-.3.3-.3-.1-.3-.3c.1-.1.2-.3.3-.3zm.4 3.8c.2 0 .4.2.4.4s-.2.4-.4.4-.4-.2-.4-.4c0-.3.1-.4.4-.4zm1.7 1.7c.2 0 .4.2.4.4s-.2.4-.4.4-.4-.2-.4-.4c0-.3.2-.4.4-.4zm6-3.6c.1 0 .2.1.2.2s-.1.2-.2.2-.2-.1-.2-.2c-.1-.1 0-.2.2-.2zm.9 3.1c.1 0 .2.1.2.2s-.1.2-.2.2-.2-.1-.2-.2.1-.2.2-.2zm2.1-2.9c.1 0 .2.1.2.2s-.1.2-.2.2-.2-.1-.2-.2.1-.2.2-.2z" fill="#2f3232"/></g></svg>