<?xml version="1.0" encoding="utf-8"?>
<!-- Generator: Adobe Illustrator 19.2.0, SVG Export Plug-In . SVG Version: 6.00 Build 0)  -->
<svg version="1.1" id="Layer_1" xmlns="http://www.w3.org/2000/svg" xmlns:xlink="http://www.w3.org/1999/xlink" x="0px" y="0px"
	 viewBox="0 0 60 60" style="enable-background:new 0 0 60 60;" xml:space="preserve">
<style type="text/css">
	.st0{fill-rule:evenodd;clip-rule:evenodd;fill:#4B80C2;}
	.st1{fill-rule:evenodd;clip-rule:evenodd;fill:#E7E7E8;}
	.st2{fill-rule:evenodd;clip-rule:evenodd;fill:none;}
	.st3{fill-rule:evenodd;clip-rule:evenodd;fill:#D1D2D4;}
	.st4{fill-rule:evenodd;clip-rule:evenodd;fill:#A7C83E;}
	.st5{fill-rule:evenodd;clip-rule:evenodd;fill:#2F3232;}
</style>
<path class="st0" d="M7.8,46.3l4.6-2.6l16.9,9.8c0,0,0.4,0.3,0.8,0.3c0.4,0,0.9-0.3,0.9-0.3l16.9-9.8l4.5,2.6L49.5,52l-16.9,7.1
	l-5.2,0.1L9.6,51.4L7.8,46.3z"/>
<path class="st1" d="M46.9,39.1l-14.6,8.4l-0.1-15.3l15-8.5L46.9,39.1z"/>
<path class="st2" d="M46.9,39.1l-14.6,8.4l-0.1-15.3l15-8.5L46.9,39.1z"/>
<path class="st3" d="M13.3,38.1l13.3,7.7l0-16.8l2.2-0.8l14.8-8.4l-14.9-8.5l-15.5,9.1L13.3,38.1z"/>
<path class="st4" d="M47.8,40.1l-0.2-19.7L29.9,9.2L12.5,20.3l-0.6,20.3l-4.6,2.6C5,39.3,3.8,34.8,3.8,30C3.8,15.5,15.5,3.8,30,3.8
	S56.3,15.5,56.3,30c0,4.8-1.3,9.3-3.5,13.1L47.8,40.1z"/>
<path class="st5" d="M30,60C13.4,60,0,46.6,0,30C0,13.4,13.4,0,30,0s30,13.4,30,30C60,46.6,46.6,60,30,60z M30,57.5
	c9.7,0,18.3-5.1,23.2-12.7l-5.4-3.1l-17,9.8c-0.1,0-0.1,0.1-0.2,0.1l0,0l0,0c-0.2,0.1-0.3,0.1-0.5,0.1c-0.2,0-0.4-0.1-0.6-0.2l0,0
	l-17.2-9.9l-5.4,3.1C11.7,52.5,20.3,57.5,30,57.5z M28.9,2.5C14.2,3.1,2.5,15.2,2.5,30c0,4.6,1.2,9,3.2,12.9l5.4-3.1V19.9h0
	c0,0,0,0,0,0c0-0.4,0.2-0.8,0.6-1.1l0,0l17.3-10V2.5z M14.6,19.8l1.2,0.7c0.4,0.2,0.7,0.6,0.7,1.1c0,0.6-0.5,1.2-1.2,1.2
	c-0.2,0-0.4-0.1-0.6-0.2l0,0l-1.3-0.7v17.9l15.5,9v-4.3h0c0,0,0,0,0,0c0-0.6,0.5-1.2,1.2-1.2s1.2,0.5,1.2,1.2c0,0,0,0,0,0h0v4.2
	l15.4-8.9V21.8l-3.2,1.9l0,0c-0.2,0.1-0.3,0.1-0.5,0.1c-0.6,0-1.2-0.5-1.2-1.2c0-0.4,0.2-0.8,0.5-1l0,0l0.1,0c0,0,0,0,0.1,0l3.1-1.8
	l-15.4-8.9L14.6,19.8z M31.3,2.5v6.4l17.1,9.9c0,0,0,0,0,0l0.1,0l0,0c0.4,0.2,0.6,0.6,0.6,1.1c0,0,0,0,0,0h0v19.9l5.3,3.1
	c2-3.8,3.2-8.2,3.2-12.8C57.5,15.2,45.9,3.2,31.3,2.5z M40.1,25.6l-8.9,5.1v8.9h0c0,0,0,0,0,0c0,0.6-0.5,1.2-1.2,1.2
	s-1.2-0.5-1.2-1.2c0,0,0,0,0,0h0v-8.9l-8.8-5.1c-0.4-0.2-0.8-0.6-0.8-1.1c0-0.6,0.5-1.2,1.2-1.2c0.2,0,0.4,0.1,0.6,0.1l0,0l9,5.2
	l9-5.2l0,0c0.2-0.1,0.3-0.1,0.5-0.1c0.6,0,1.2,0.5,1.2,1.2C40.8,25,40.5,25.4,40.1,25.6z M35.2,17.9c-0.3,0-0.6-0.3-0.6-0.6
	c0-0.3,0.3-0.6,0.6-0.6c0.3,0,0.6,0.3,0.6,0.6C35.7,17.6,35.5,17.9,35.2,17.9z M28.7,15.6c-0.3,0-0.6-0.3-0.6-0.6
	c0-0.3,0.3-0.6,0.6-0.6c0.3,0,0.6,0.3,0.6,0.6C29.3,15.3,29,15.6,28.7,15.6z M29.1,20.5c0,0.3-0.3,0.6-0.6,0.6
	c-0.3,0-0.6-0.3-0.6-0.6s0.3-0.6,0.6-0.6C28.8,20,29.1,20.2,29.1,20.5z M17.6,23.9c-0.5,0-0.8-0.4-0.8-0.8s0.4-0.8,0.8-0.8
	s0.8,0.4,0.8,0.8S18.1,23.9,17.6,23.9z M16,36.6c-0.3,0-0.6-0.3-0.6-0.6c0-0.3,0.3-0.6,0.6-0.6c0.3,0,0.6,0.3,0.6,0.6
	C16.5,36.4,16.3,36.6,16,36.6z M20.5,29.2c0.3,0,0.6,0.3,0.6,0.6c0,0.3-0.3,0.6-0.6,0.6c-0.3,0-0.6-0.3-0.6-0.6
	C19.9,29.5,20.2,29.2,20.5,29.2z M21.2,36.7c0.5,0,0.8,0.4,0.8,0.8c0,0.5-0.4,0.8-0.8,0.8s-0.8-0.4-0.8-0.8
	C20.3,37.1,20.7,36.7,21.2,36.7z M24.6,40.1c0.5,0,0.8,0.4,0.8,0.8c0,0.5-0.4,0.8-0.8,0.8s-0.8-0.4-0.8-0.8
	C23.8,40.5,24.2,40.1,24.6,40.1z M36.5,33c0.2,0,0.4,0.2,0.4,0.4c0,0.2-0.2,0.4-0.4,0.4c-0.2,0-0.4-0.2-0.4-0.4
	C36.1,33.2,36.3,33,36.5,33z M38.4,39.2c0.2,0,0.4,0.2,0.4,0.4c0,0.2-0.2,0.4-0.4,0.4c-0.2,0-0.4-0.2-0.4-0.4
	C38,39.4,38.2,39.2,38.4,39.2z M42.6,33.4c0.2,0,0.3,0.1,0.3,0.3c0,0.2-0.1,0.3-0.3,0.3c-0.2,0-0.3-0.1-0.3-0.3
	C42.3,33.5,42.4,33.4,42.6,33.4z"/>
</svg>
