<svg enable-background="new 0 0 60 60" viewBox="0 0 60 60" xmlns="http://www.w3.org/2000/svg"><path clip-rule="evenodd" d="m30 60c-16.6 0-30-13.4-30-30s13.4-30 30-30 30 13.4 30 30-13.4 30-30 30zm.8-8.4c-.3.2-.5.2-.7.2s-.4 0-.6-.1l-17.2-9.9-5.4 3.1c4.9 7.6 13.4 12.7 23.2 12.7 9.7 0 18.3-5.1 23.2-12.7l-5.4-3.1zm-1.9-49.1c-14.7.6-26.4 12.7-26.4 27.5 0 4.6 1.2 9 3.2 12.9l5.4-3.1v-19.9c0-.4.2-.8.6-1.1l17.3-10v-6.3zm-14.3 17.3 1.2.7c.4.2.7.6.7 1.1 0 .6-.5 1.2-1.2 1.2-.2 0-.4-.1-.6-.2l-1.3-.7v17.9l15.5 9v-4.3c0-.6.5-1.2 1.2-1.2s1.2.5 1.2 1.2v4.2l15.4-8.9v-18l-3.2 1.9c-.2.1-.3.1-.5.1-.6 0-1.2-.5-1.2-1.2 0-.4.2-.8.5-1h.1.1l3.1-1.8-15.4-8.9zm33.8-1c.4.2.6.6.6 1.1v19.9l5.3 3.1c2-3.8 3.2-8.2 3.2-12.8 0-14.8-11.6-26.8-26.3-27.5v6.4zm-8.3 6.8-8.9 5.1v8.9c0 .6-.5 1.2-1.2 1.2s-1.2-.5-1.2-1.2v-8.9l-8.8-5.1c-.4-.2-.8-.6-.8-1.1 0-.6.5-1.2 1.2-1.2.2 0 .4.1.6.1l9 5.2 9-5.2c.2-.1.3-.1.5-.1.6 0 1.2.5 1.2 1.2.1.5-.2.9-.6 1.1zm-4.9-7.7c-.3 0-.6-.3-.6-.6s.3-.6.6-.6.6.3.6.6c-.1.3-.3.6-.6.6zm-6.5-2.3c-.3 0-.6-.3-.6-.6s.3-.6.6-.6.6.3.6.6-.3.6-.6.6zm.4 4.9c0 .3-.3.6-.6.6s-.6-.3-.6-.6.3-.6.6-.6c.3.1.6.3.6.6zm-11.5 3.4c-.5 0-.8-.4-.8-.8s.4-.8.8-.8.8.4.8.8-.3.8-.8.8zm-1.6 12.7c-.3 0-.6-.3-.6-.6s.3-.6.6-.6.6.3.6.6c-.1.4-.3.6-.6.6zm4.5-7.4c.3 0 .6.3.6.6s-.3.6-.6.6-.6-.3-.6-.6.3-.6.6-.6zm.7 7.5c.5 0 .8.4.8.8 0 .5-.4.8-.8.8s-.8-.4-.8-.8c-.1-.4.3-.8.8-.8zm3.4 3.4c.5 0 .8.4.8.8 0 .5-.4.8-.8.8s-.8-.4-.8-.8.4-.8.8-.8zm11.9-7.1c.2 0 .4.2.4.4s-.2.4-.4.4-.4-.2-.4-.4.2-.4.4-.4zm1.9 6.2c.2 0 .4.2.4.4s-.2.4-.4.4-.4-.2-.4-.4.2-.4.4-.4zm4.2-5.8c.2 0 .3.1.3.3s-.1.3-.3.3-.3-.1-.3-.3.1-.3.3-.3z" fill="#A7C73F" fill-rule="evenodd"/></svg>