<svg enable-background="new 0 0 60 60" viewBox="0 0 60 60" xmlns="http://www.w3.org/2000/svg"><g clip-rule="evenodd"><path d="m7.8 46.3 4.6-2.6 16.9 9.8s.4.3.8.3.9-.3.9-.3l16.9-9.8 4.5 2.6-2.9 5.7-16.9 7.1-5.2.1-17.8-7.8z" fill="#4b80c2" fill-rule="evenodd"/><path d="m46.9 39.1-14.6 8.4-.1-15.3 15-8.5z" fill="#e7e7e8" fill-rule="evenodd"/><path d="m46.9 39.1-14.6 8.4-.1-15.3 15-8.5z" fill="none"/><g fill-rule="evenodd"><path d="m13.3 38.1 13.3 7.7v-16.8l2.2-.8 14.8-8.4-14.9-8.5-15.5 9.1z" fill="#d1d2d4"/><path d="m47.8 40.1-.2-19.7-17.7-11.2-17.4 11.1-.6 20.3-4.6 2.6c-2.3-3.9-3.5-8.4-3.5-13.2 0-14.5 11.7-26.2 26.2-26.2s26.3 11.7 26.3 26.2c0 4.8-1.3 9.3-3.5 13.1z" fill="#a7c83e"/><path d="m30 60c-16.6 0-30-13.4-30-30s13.4-30 30-30 30 13.4 30 30-13.4 30-30 30zm0-2.5c9.7 0 18.3-5.1 23.2-12.7l-5.4-3.1-17 9.8c-.1 0-.1.1-.2.1-.2.1-.3.1-.5.1s-.4-.1-.6-.2l-17.2-9.9-5.4 3.1c4.8 7.8 13.4 12.8 23.1 12.8zm-1.1-55c-14.7.6-26.4 12.7-26.4 27.5 0 4.6 1.2 9 3.2 12.9l5.4-3.1v-19.9c0-.4.2-.8.6-1.1l17.3-10v-6.3zm-14.3 17.3 1.2.7c.4.2.7.6.7 1.1 0 .6-.5 1.2-1.2 1.2-.2 0-.4-.1-.6-.2l-1.3-.7v17.9l15.5 9v-4.3c0-.6.5-1.2 1.2-1.2s1.2.5 1.2 1.2v4.2l15.4-8.9v-18l-3.2 1.9c-.2.1-.3.1-.5.1-.6 0-1.2-.5-1.2-1.2 0-.4.2-.8.5-1h.1.1l3.1-1.8-15.4-8.9zm16.7-17.3v6.4l17.1 9.9h.1c.4.2.6.6.6 1.1v19.9l5.3 3.1c2-3.8 3.2-8.2 3.2-12.8-.1-14.9-11.7-26.9-26.3-27.6zm8.8 23.1-8.9 5.1v8.9c0 .6-.5 1.2-1.2 1.2s-1.2-.5-1.2-1.2v-8.9l-8.8-5.1c-.4-.2-.8-.6-.8-1.1 0-.6.5-1.2 1.2-1.2.2 0 .4.1.6.1l9 5.2 9-5.2c.2-.1.3-.1.5-.1.6 0 1.2.5 1.2 1.2.1.5-.2.9-.6 1.1zm-4.9-7.7c-.3 0-.6-.3-.6-.6s.3-.6.6-.6.6.3.6.6c-.1.3-.3.6-.6.6zm-6.5-2.3c-.3 0-.6-.3-.6-.6s.3-.6.6-.6.6.3.6.6-.3.6-.6.6zm.4 4.9c0 .3-.3.6-.6.6s-.6-.3-.6-.6.3-.6.6-.6c.3.1.6.3.6.6zm-11.5 3.4c-.5 0-.8-.4-.8-.8s.4-.8.8-.8.8.4.8.8-.3.8-.8.8zm-1.6 12.7c-.3 0-.6-.3-.6-.6s.3-.6.6-.6.6.3.6.6c-.1.4-.3.6-.6.6zm4.5-7.4c.3 0 .6.3.6.6s-.3.6-.6.6-.6-.3-.6-.6.3-.6.6-.6zm.7 7.5c.5 0 .8.4.8.8 0 .5-.4.8-.8.8s-.8-.4-.8-.8c-.1-.4.3-.8.8-.8zm3.4 3.4c.5 0 .8.4.8.8 0 .5-.4.8-.8.8s-.8-.4-.8-.8.4-.8.8-.8zm11.9-7.1c.2 0 .4.2.4.4s-.2.4-.4.4-.4-.2-.4-.4.2-.4.4-.4zm1.9 6.2c.2 0 .4.2.4.4s-.2.4-.4.4-.4-.2-.4-.4.2-.4.4-.4zm4.2-5.8c.2 0 .3.1.3.3s-.1.3-.3.3-.3-.1-.3-.3.1-.3.3-.3z" fill="#2f3232"/></g></g></svg>