<svg enable-background="new 0 0 343.7 60" viewBox="0 0 343.7 60" xmlns="http://www.w3.org/2000/svg"><path d="m30 60c-16.6 0-30-13.4-30-30s13.4-30 30-30 30 13.4 30 30-13.4 30-30 30zm.8-8.4c-.3.2-.5.2-.7.2s-.4 0-.6-.1l-17.2-9.9-5.4 3.1c4.9 7.6 13.4 12.7 23.2 12.7 9.7 0 18.3-5.1 23.2-12.7l-5.4-3.1zm-1.9-49.1c-14.7.6-26.4 12.7-26.4 27.5 0 4.6 1.2 9 3.2 12.9l5.4-3.1v-19.9c0-.4.2-.8.6-1.1l17.3-10v-6.3zm-14.3 17.3 1.2.7c.4.2.7.6.7 1.1 0 .6-.5 1.2-1.2 1.2-.2 0-.4-.1-.6-.2l-1.3-.7v17.9l15.5 9v-4.3c0-.6.5-1.2 1.2-1.2s1.2.5 1.2 1.2v4.2l15.4-8.9v-18l-3.2 1.9c-.2.1-.3.1-.5.1-.6 0-1.2-.5-1.2-1.2 0-.4.2-.8.5-1h.1.1l3.1-1.8-15.4-8.9zm33.8-1c.4.2.6.6.6 1.1v19.9l5.3 3.1c2-3.8 3.2-8.2 3.2-12.8 0-14.8-11.6-26.8-26.3-27.5v6.4zm-8.3 6.8-8.9 5.1v8.9c0 .6-.5 1.2-1.2 1.2s-1.2-.5-1.2-1.2v-8.9l-8.8-5.1c-.4-.2-.8-.6-.8-1.1 0-.6.5-1.2 1.2-1.2.2 0 .4.1.6.1l9 5.2 9-5.2c.2-.1.3-.1.5-.1.6 0 1.2.5 1.2 1.2.1.5-.2.9-.6 1.1zm-4.9-7.7c-.3 0-.6-.3-.6-.6s.3-.6.6-.6.6.3.6.6c-.1.3-.3.6-.6.6zm-6.5-2.3c-.3 0-.6-.3-.6-.6s.3-.6.6-.6.6.3.6.6-.3.6-.6.6zm.4 4.9c0 .3-.3.6-.6.6s-.6-.3-.6-.6.3-.6.6-.6c.3.1.6.3.6.6zm-11.5 3.4c-.5 0-.8-.4-.8-.8s.4-.8.8-.8.8.4.8.8-.3.8-.8.8zm-1.6 12.7c-.3 0-.6-.3-.6-.6s.3-.6.6-.6.6.3.6.6c-.1.4-.3.6-.6.6zm4.5-7.4c.3 0 .6.3.6.6s-.3.6-.6.6-.6-.3-.6-.6.3-.6.6-.6zm.7 7.5c.5 0 .8.4.8.8 0 .5-.4.8-.8.8s-.8-.4-.8-.8c-.1-.4.3-.8.8-.8zm3.4 3.4c.5 0 .8.4.8.8 0 .5-.4.8-.8.8s-.8-.4-.8-.8.4-.8.8-.8zm11.9-7.1c.2 0 .4.2.4.4s-.2.4-.4.4-.4-.2-.4-.4.2-.4.4-.4zm1.9 6.2c.2 0 .4.2.4.4s-.2.4-.4.4-.4-.2-.4-.4.2-.4.4-.4zm4.2-5.8c.2 0 .3.1.3.3s-.1.3-.3.3-.3-.1-.3-.3.1-.3.3-.3z" fill="#a7c73f"/><g fill="#2f3232"><path d="m75 28c-2.2-1.2-3.9-2.8-5.1-4.9s-1.9-4.4-1.9-7.1c0-2.6.6-5 1.9-7.1 1.2-2.1 3-3.7 5.1-4.9 2.2-1.2 4.6-1.8 7.4-1.8 2.3 0 4.4.4 6.2 1.2 1.9.8 3.4 2 4.7 3.5l-3.9 3.6c-1.8-2.1-4-3.1-6.7-3.1-1.6 0-3.1.4-4.4 1.1s-2.3 1.7-3 3-1.1 2.8-1.1 4.4.4 3.1 1.1 4.4 1.7 2.3 3 3 2.7 1.1 4.4 1.1c2.6 0 4.9-1 6.7-3.1l3.9 3.6c-1.3 1.5-2.8 2.7-4.7 3.5s-3.9 1.2-6.2 1.2c-2.8.2-5.2-.4-7.4-1.6z"/><path d="m118.1 23.7h-12.3l-2.3 5.7h-6.3l11.8-26.5h6.1l11.8 26.5h-6.4zm-2-4.7-4.2-10.1-4.2 10.1z"/><path d="m157.5 29.3v-15.9l-7.8 13.1h-2.8l-7.8-12.8v15.6h-5.8v-26.5h5.1l9.9 16.5 9.8-16.5h5l.1 26.5z"/><path d="m196.3 18c.9 1.1 1.3 2.5 1.3 4.1 0 2.3-.9 4.1-2.7 5.4-1.8 1.2-4.4 1.9-7.9 1.9h-13.7v-26.6h12.9c3.2 0 5.7.6 7.4 1.9 1.7 1.2 2.6 2.9 2.6 5 0 1.3-.3 2.4-.9 3.4s-1.5 1.8-2.6 2.4c1.6.5 2.8 1.3 3.6 2.5zm-16.9-10.5v6.2h6.1c1.5 0 2.7-.3 3.4-.8s1.2-1.3 1.2-2.3-.4-1.8-1.2-2.3-1.9-.8-3.4-.8zm10.8 16.4c.8-.5 1.2-1.3 1.2-2.5 0-2.2-1.6-3.3-4.9-3.3h-7.2v6.5h7.2c1.7.1 2.9-.1 3.7-.7z"/><path d="m222.9 29.3-5.1-7.4h-.3-5.3v7.4h-6.2v-26.5h11.5c2.3 0 4.4.4 6.1 1.2s3.1 1.9 4 3.3 1.4 3.1 1.4 5.1-.5 3.7-1.4 5.1-2.3 2.5-4 3.3l5.9 8.5zm-1.5-20.3c-1-.8-2.4-1.2-4.2-1.2h-5v9.2h5c1.8 0 3.2-.4 4.2-1.2s1.4-1.9 1.4-3.4c0-1.4-.5-2.6-1.4-3.4z"/><path d="m237.6 2.8h6.1v26.5h-6.1z"/><path d="m253.8 2.8h12c2.9 0 5.4.5 7.6 1.6s3.9 2.6 5.1 4.6 1.8 4.3 1.8 7c0 2.6-.6 5-1.8 7s-2.9 3.5-5.1 4.6-4.7 1.6-7.6 1.6h-12zm11.8 21.5c2.6 0 4.8-.7 6.3-2.2 1.6-1.5 2.4-3.5 2.4-6s-.8-4.5-2.4-6-3.7-2.2-6.3-2.2h-5.6v16.4z"/><path d="m306.8 15.7h5.6v10.7c-1.4 1.1-3.1 1.9-5 2.5s-3.8.9-5.7.9c-2.8 0-5.2-.6-7.4-1.8s-3.9-2.8-5.2-4.9c-1.2-2.1-1.9-4.4-1.9-7.1 0-2.6.6-5 1.9-7.1 1.2-2.1 3-3.7 5.2-4.9s4.7-1.8 7.5-1.8c2.3 0 4.4.4 6.3 1.2s3.5 1.9 4.8 3.4l-3.9 3.6c-1.9-2-4.2-3-6.8-3-1.7 0-3.2.4-4.5 1.1s-2.3 1.7-3.1 3-1.1 2.8-1.1 4.4.4 3.1 1.1 4.4 1.7 2.3 3 3 2.8 1.1 4.4 1.1c1.8 0 3.4-.4 4.8-1.1z"/><path d="m342.3 24.4v4.9h-20.5v-26.5h20v4.9h-13.9v5.8h12.3v4.8h-12.3v6.1z"/></g><g fill="#a7c73f"><path d="m83 47.3h4.5v8.1c-1.1.8-2.5 1.4-4 1.9-1.5.4-3 .7-4.6.7-2.2 0-4.2-.4-5.9-1.3s-3.1-2.1-4.1-3.7-1.5-3.4-1.5-5.3.5-3.8 1.5-5.3c1-1.6 2.4-2.8 4.1-3.7 1.8-.9 3.8-1.3 6-1.3 1.9 0 3.5.3 5 .9s2.8 1.5 3.8 2.6l-3.1 2.7c-1.5-1.5-3.3-2.3-5.5-2.3-1.3 0-2.5.3-3.6.8-1 .5-1.9 1.3-2.4 2.3-.6 1-.9 2.1-.9 3.3s.3 2.3.9 3.3 1.4 1.7 2.4 2.3c1 .5 2.2.8 3.5.8 1.4 0 2.7-.3 3.8-.9v-5.9z"/><path d="m95 37.6h4.9v16.3h10.6v3.8h-15.5z"/><path d="m124.2 50.5v7.1h-4.9v-7.2l-8.2-12.9h5.2l5.6 8.9 5.6-8.9h4.8z"/><path d="m140.9 56.6c-1.7-.9-3.1-2.1-4.1-3.7s-1.5-3.4-1.5-5.3.5-3.8 1.5-5.3c1-1.6 2.4-2.8 4.1-3.7s3.7-1.3 5.9-1.3c1.8 0 3.5.3 5 .9s2.7 1.5 3.7 2.6l-3.1 2.7c-1.4-1.6-3.2-2.3-5.3-2.3-1.3 0-2.5.3-3.5.8s-1.8 1.3-2.4 2.3-.9 2.1-.9 3.3.3 2.3.9 3.3 1.4 1.7 2.4 2.3c1 .5 2.2.8 3.5.8 2.1 0 3.9-.8 5.3-2.4l3.1 2.7c-1 1.2-2.3 2.1-3.7 2.7-1.5.6-3.1.9-5 .9-2.2 0-4.2-.4-5.9-1.3z"/><path d="m165.6 56.6c-1.8-.9-3.1-2.1-4.1-3.7s-1.5-3.3-1.5-5.3.5-3.7 1.5-5.3 2.4-2.8 4.1-3.7c1.8-.9 3.7-1.3 5.9-1.3s4.2.4 5.9 1.3 3.1 2.1 4.1 3.7 1.5 3.3 1.5 5.3-.5 3.7-1.5 5.3-2.4 2.8-4.1 3.7c-1.8.9-3.7 1.3-5.9 1.3s-4.2-.4-5.9-1.3zm9.3-3.4c1-.5 1.8-1.3 2.4-2.3s.9-2.1.9-3.3-.3-2.3-.9-3.3-1.4-1.7-2.4-2.3c-1-.5-2.1-.8-3.4-.8s-2.4.3-3.4.8-1.8 1.3-2.4 2.3-.9 2.1-.9 3.3.3 2.3.9 3.3 1.4 1.7 2.4 2.3c1 .5 2.1.8 3.4.8s2.4-.3 3.4-.8z"/><path d="m191.9 57.3c-1.6-.4-2.8-1-3.8-1.7l1.7-3.5c.9.6 2 1.1 3.2 1.5s2.5.6 3.7.6c1.4 0 2.4-.2 3.1-.6s1-.9 1-1.6c0-.5-.2-.9-.6-1.2s-.9-.6-1.5-.8-1.4-.4-2.5-.6c-1.6-.4-2.9-.7-4-1.1-1-.4-1.9-.9-2.6-1.7s-1.1-1.9-1.1-3.2c0-1.2.3-2.2 1-3.2s1.7-1.7 3-2.2c1.3-.6 3-.8 4.9-.8 1.3 0 2.7.2 4 .5s2.4.7 3.4 1.3l-1.5 3.5c-2-1-3.9-1.6-5.9-1.6-1.4 0-2.4.2-3 .6-.7.4-1 1-1 1.7s.4 1.2 1.1 1.5c.8.3 1.9.7 3.5 1 1.6.4 2.9.7 4 1.1 1 .4 1.9.9 2.6 1.7s1.1 1.8 1.1 3.2c0 1.1-.3 2.2-1 3.1s-1.7 1.7-3 2.2c-1.3.6-3 .8-4.9.8-1.8.1-3.4-.1-4.9-.5z"/><path d="m216.3 56.6c-1.7-.9-3.1-2.1-4.1-3.7s-1.5-3.4-1.5-5.3.5-3.8 1.5-5.3c1-1.6 2.4-2.8 4.1-3.7s3.7-1.3 5.9-1.3c1.8 0 3.5.3 5 .9s2.7 1.5 3.7 2.6l-3.1 2.7c-1.4-1.6-3.2-2.3-5.3-2.3-1.3 0-2.5.3-3.5.8s-1.8 1.3-2.4 2.3-.9 2.1-.9 3.3.3 2.3.9 3.3 1.4 1.7 2.4 2.3c1 .5 2.2.8 3.5.8 2.1 0 3.9-.8 5.3-2.4l3.1 2.7c-1 1.2-2.3 2.1-3.7 2.7-1.5.6-3.1.9-5 .9-2.2 0-4.2-.4-5.9-1.3z"/><path d="m237.2 37.6h4.9v20h-4.9z"/><path d="m266.4 53.9v3.7h-16.4v-20h16v3.7h-11.1v4.3h9.8v3.6h-9.8v4.6h11.5z"/><path d="m292.7 37.6v20h-4l-10.5-12.2v12.2h-4.8v-20h4l10.5 12.2v-12.2z"/><path d="m305 56.6c-1.7-.9-3.1-2.1-4.1-3.7s-1.5-3.4-1.5-5.3.5-3.8 1.5-5.3c1-1.6 2.4-2.8 4.1-3.7s3.7-1.3 5.9-1.3c1.8 0 3.5.3 5 .9s2.7 1.5 3.7 2.6l-3.1 2.7c-1.4-1.6-3.2-2.3-5.3-2.3-1.3 0-2.5.3-3.5.8s-1.8 1.3-2.4 2.3-.9 2.1-.9 3.3.3 2.3.9 3.3 1.4 1.7 2.4 2.3c1 .5 2.2.8 3.5.8 2.1 0 3.9-.8 5.3-2.4l3.1 2.7c-1 1.2-2.3 2.1-3.7 2.7-1.5.6-3.1.9-5 .9-2.2 0-4.2-.4-5.9-1.3z"/><path d="m342.2 53.9v3.7h-16.4v-20h16v3.7h-11.1v4.3h9.8v3.6h-9.8v4.6h11.5z"/></g></svg>