<svg enable-background="new 0 0 512 512" viewBox="0 0 512 512" xmlns="http://www.w3.org/2000/svg"><path d="m37 256.4 24.7-32.5h381.3l33 32.5-85.5 244.5h-269z" fill="#4b80c1"/><path d="m185 271.6 24.7 228-88.2 1.3-72.8-225 27.1 9.7 35.7-20 27.5 16.6z" fill="#a7c73f"/><path d="m326.3 272.2-21.3 227.4 85.5 1.3 78-223-36.8 9.7-31.2-22-25.5 16z" fill="#a7c73f"/><path d="m102 132.9h36l15 34h18l18-29 39.1-1 27.9 18 12-5 11.9-17h42.1l16 34h23l10-34h38l27.2 51 6.8 34h-381.3z" fill="#ffcb3f"/><path d="m107 126.2 60.7-53.5 64.5-13.4 78.8 4.2s69.2 38.7 71.3 38.7 26.1 24 26.1 24l-31.3 5.3-20.7 32.7-18.3 2.7-23.7-34-30.3-2.7-16.3 23.3-20.7 2.7-18.9-23.3h-36.5l-12.7 34h-29.3l-11.3-30.7-40-.7z" fill="#fff"/><circle cx="256.1" cy="44.8" fill="#f06449" r="27.9"/><g fill="#2f3232"><path d="m458 219.8c-12.2-79.2-71.7-145.4-149.1-166.1-8-2.1-6.9-.6-8.2-7.1-.8-4.2-.3-8.7-1.4-13-2.3-8.9-7.4-16.9-14.4-22.8-13.5-11.5-33-13.9-48.9-6-7.6 3.8-14 9.7-18.4 17-5.6 9.2-3.5 17.2-6.3 26.5-1.2 4 1.3.9-1.8 3.8-1.6 1.5-6.3 1.6-8.5 2.2-4.9 1.4-9.8 2.9-14.7 4.7-9.6 3.5-19 7.7-28 12.6-33.2 18-61.2 45.4-80 78.4-12 21-15.8 42.5-23.5 64.8-2.9 8.5-12.6 13.5-18 21.7-5.7 8.6-9 18.7-9.3 29.1-.3 8.8 1.3 17.6 5 25.6 3.6 7.9 10.4 12.3 14.5 19.3 1.8 3.1 2.5 7.7 3.6 11 6.4 19.6 12.9 39.1 19.3 58.7 13.2 40.3 24.2 82.3 40 121.6 5.6 14 20.5 10.2 33.5 10.2h64.1 96.5 62.2c12.7 0 30 4.3 35.8-9.5 16.2-38.8 26.6-81.1 39.8-121.1 6.4-19.5 12.8-39.1 19.3-58.6 6.6-20 23.7-32.3 23.7-55.2-.2-19.2-10.4-37.6-26.8-47.8zm-202-199.8c31.9 0 31.7 48.4.8 49.6-31.5 1.2-33.9-49.6-.8-49.6zm-135.2 105.7c13.9-14.9 30.2-27.6 48.2-37.2 8.7-4.7 17.8-8.6 27.1-11.8 4.4-1.5 8.8-2.9 13.3-4 5.9-1.5 7.7-2.2 12.1.7 10.6 7 16.9 15 31.3 16.1 11.7.9 23.5-3.1 32.4-10.7 1.8-1.6 4.6-6.2 6.8-7.2 3.8-1.7 10.8 1.1 15.4 2.4 9.6 2.8 18.9 6.3 27.9 10.6 21.1 10 40.2 24.1 56.1 41.2-12.4-.5-11.3-17.9-23.1-16.4-10.5 1.3-8.7 13.4-8.8 20.9-.1 11.3.4 37.8-18.8 27.5-11.6-6.2-5.3-25.9-7.1-36.4-2.3-13.1-12.7-10.8-19.4-3.5-3.7 4.1-6 7.9-12.3 8-8.6 0-9.2-5.2-13.4-10.6-6.8-8.7-16.9-6.7-18.9 4.7-1.4 7.8 2.9 17.4-3.5 23.7-7.4 7.2-19.8 3.2-22.7-6-1.8-5.7.7-12.5-.3-18.3-.9-4.9-3.2-9.2-8.8-9.9-8.4-1-8.5 5.4-12.2 10.4-2.7 3.7-6.7 6.1-11.4 6-8.5 0-9.2-6.1-14.1-11-18.1-17.8-17.6 19.8-18.3 28.3-.5 6 0 11-6.3 14.5-4.8 2.7-11.7 2-15.8-1.7-5.4-4.9-3.8-13.4-3.8-20 0-5.9 1.8-16.1-2.3-21.1-5.2-6.2-11.8-3.2-16.2 1.4-1.7 1.8-2.2 4.3-4.2 6-2.2 1.8-7.9 2.3-8.9 3.4.3-.3 0 .1 0 0zm-30.9 45.2c3.3-6.8 9.1-22.2 15.5-26.1 4.6-2.9 19 1.8 26.9-1.1-1.1 45.8 67.1 46 65.9-.2 8.1 3.2 17.6 3 25.6-.3 8 31.4 56.7 31.7 64.8 0 8.1 3.4 17.5 3.5 25.6.3-1.1 45.8 66.3 46.5 65.2 0 3.9 1.5 8.3 2.3 12.5 2.3 2.3 0 12-3.2 13.6-2.8 4.3 1.2 11.7 18.2 13.6 21.8 7.9 14.8 13.7 30.6 17.2 47-12-1.7-24.9-.6-37-.6-28.1 0-56.2 0-84.2 0-64.5 0-129 0-193.4 0-14.9 0-30.9-1.6-45.7.6 2.9-14.1 7.6-27.9 13.9-40.9 4.7-9.8-6.3 13.1 0 0zm77.5 321.1c-9.2-38.6-18.4-77.2-27.5-115.9-1.1-4.8-1.7-12.6-5.8-16-10.4-8.8-16.9 4.3-15.5 13.1 3.3 20.3 9.6 40.5 14.4 60.5 4.6 19.4 9.2 38.8 13.9 58.3-5.3 0-16 2-19.5-1.1-2.7-2.4-3.9-11.9-5-15.2-7.6-23.2-15.2-46.4-22.8-69.6-12.6-38.3-25.2-76.6-37.7-114.9 4.5 3.3 10.1 9 16 8.9 5.2 0 9.7-4.6 13.7-7.6 6.3-4.7 17.6-17.1 24.6-14.9 10.3 3.3 18 15.9 27.8 20.7 11.4 5.5 24-8.5 32.8-14.9 7 69.5 14.1 139.1 21.1 208.6-10.3 0-20.4 0-30.5 0zm126.8 0c-4.4 0-25.5 2.9-28.2 0-1.7-1.9 0-13 0-15.4 0-27.1 0-54.3 0-81.4 0-23.3.7-46.7 0-69.9-.2-8.3-5.5-20.1-15.9-12.7-5.5 3.9-4.1 12.2-4.1 18.1v152c0 7.1 1.6 7.4-3.5 9.3-3.5 1.3-22.7 1.5-24.7-.8-2.3-2.6-1.5-14.4-1.8-17.7-1.2-11.6-2.3-23.3-3.5-34.9-5.1-50.8-10.3-101.6-15.4-152.4 9.6 6.9 18.7 17.6 30.5 10.9 5.8-3.3 11.2-8.3 16.6-12.4 2.4-1.8 8.9-8.8 11.9-8.8 2.6 0 8.7 6.5 10.8 8.1 5.6 4.2 11.2 8.8 17.1 12.7 11.8 7.7 21.4-3.5 31.1-10.5-7.1 68.6-14 137.2-20.9 205.8zm90.1 0c-6.4 0-12.8 0-19.2 0 4.4-18.5 8.8-37.1 13.2-55.6 5-21.1 13.5-43.8 15.5-65.4 1.3-13.5-14-18.1-19.3-5.1-2.7 6.5-3.5 14.6-5.1 21.4-6.4 26.9-12.8 53.8-19.2 80.7-1 4.4-2.1 20.7-5.7 23.8-4.2 3.6-24.2.2-30.4.2 7-69.5 14.1-139.1 21.1-208.6 8.9 6.4 21.4 20.4 32.8 14.9 9.4-4.5 18.4-19.1 28.4-21.1 6.6-1.3 18.1 11 24 15.4 3.8 2.8 8.7 7.7 13.7 7.8 5.8.1 11.6-6 16-9.2-21.8 66.9-43.8 133.9-65.8 200.8zm50.1-214.1c-10.2-7.6-29.4-29-42.7-22.1-7.7 4-14.9 11.1-21.9 16.3-7.1 5.3-6.6 6.8-13.6 1.7-7.1-5.1-20.7-20-30.7-18.5-8 1.2-16.3 10.4-22.4 14.8-6.9 4.9-7.9 8.3-14.5 5.2-8.8-4.1-16.2-12.8-24.4-18.1s-13.2-2.4-20.2 2.8c-5.6 4.2-16.2 15.9-23 17.1-9.4 1.6-22-17.3-31.7-20.8-8.6-3.2-15.2 4.4-21.8 9.1-4.2 3-13.6 12.5-18.3 12.1-6-.5-17.7-13.2-22.6-16.8-6.6-4.9-11.2-9.1-19.6-4.6-8 4.3-15.3 11.4-22.6 16.8-7.7 5.7-6.9 5.2-14.7-.5-4.1-2.9-19.3-10.3-20.9-15-1.9-5.8 10.7-17.3 14.7-20 4.2-2.8 9-4.7 14-5.6 2.6-.5 5.2-.5 7.8-.5 71.5-2.1 143.4 0 214.9 0h109.4c6.1 0 12.3-.3 18.5 0 6.6.3 12.6 1.6 18.4 5.1 4.2 2.5 18.7 14.5 16.6 21.1-.6 1.8-6.3 4.6-7.8 5.6-6.9 4.8-13.9 9.8-20.9 14.8z"/><path d="m400.3 329c-.1-.6-.3-1.3-.6-1.9-.2-.6-.6-1.2-.9-1.7-.4-.5-.8-1.1-1.2-1.5s-1-.9-1.5-1.2c-.5-.4-1.1-.7-1.7-.9s-1.2-.5-1.9-.6c-1.3-.2-2.6-.2-3.9 0-.6.1-1.3.3-1.9.6-.6.2-1.2.5-1.7.9s-1.1.8-1.5 1.2-.9 1-1.2 1.5c-.4.5-.7 1.1-.9 1.7s-.4 1.2-.6 1.9-.2 1.3-.2 2c0 .6.1 1.3.2 2s.3 1.3.6 1.9c.2.6.6 1.2.9 1.7.4.5.8 1.1 1.2 1.5s1 .9 1.5 1.2c.5.4 1.1.7 1.7.9s1.2.4 1.9.6c.6.1 1.3.2 2 .2s1.3-.1 2-.2 1.3-.3 1.9-.6c.6-.2 1.2-.6 1.7-.9.5-.4 1.1-.8 1.5-1.2s.9-1 1.2-1.5c.4-.5.7-1.1.9-1.7s.4-1.2.6-1.9c.1-.6.2-1.3.2-2s-.2-1.4-.3-2z"/><path d="m128.6 323.9c-.5-.5-1-.9-1.5-1.2-.5-.4-1.1-.7-1.7-.9s-1.2-.5-1.9-.6c-1.3-.3-2.6-.3-3.9 0-.6.1-1.3.3-1.9.6-.6.2-1.2.6-1.7.9-.6.4-1.1.8-1.5 1.2-1.9 1.9-2.9 4.4-2.9 7.1 0 .6.1 1.3.2 2s.3 1.3.6 1.9c.2.6.6 1.2.9 1.7.4.5.8 1.1 1.2 1.5s1 .9 1.5 1.2c.5.4 1.1.7 1.7.9s1.2.5 1.9.6c.6.1 1.3.2 1.9.2.7 0 1.3-.1 2-.2.6-.1 1.3-.3 1.9-.6.6-.2 1.2-.6 1.7-.9.6-.4 1.1-.8 1.5-1.2 1.9-1.9 2.9-4.4 2.9-7.1s-1-5.3-2.9-7.1z"/></g></svg>