<svg enable-background="new 0 0 512 512" viewBox="0 0 512 512" xmlns="http://www.w3.org/2000/svg" fill="#2F3232"><path d="m358.064 238.806c-.046-.033-.093-.066-.14-.098-10.9-7.541-22.119-13.194-33.355-16.803-11.182-3.579-27.017-6.21-48.411-8.044-19.994-1.714-34.295-3.336-42.508-4.823-5.785-1.232-10.828-3.691-15.421-7.524-2.221-1.85-5.174-5.157-5.174-12.498v-11.701c0-20.193 4.047-26.703 5.786-28.563 2.06-2.202 8.067-5.897 25.164-5.897h18.721c17.998 0 23.847 3.767 25.515 5.376 2.032 1.964 5.438 7.595 5.438 23.234v4.095c0 13.746 8.54 22.286 22.286 22.286h49.726c13.746 0 22.286-8.54 22.286-22.286v-11.116c0-32.102-8.973-58.014-26.672-77.021-16.128-17.298-37.631-26.909-64.006-28.637v-36.5c0-13.746-8.539-22.286-22.286-22.286h-35.101c-13.747 0-22.286 8.54-22.285 22.286v36.217h-.094c-5.522 0-10 4.477-10 10s4.478 10 10 10h10.094c5.522 0 10-4.477 10-10v-46.217c0-1.096.122-1.742.213-2.073.33-.09.976-.212 2.073-.212h35.101c1.096 0 1.743.121 2.073.212.091.33.213.977.213 2.073v46.214c0 5.523 4.478 10 10 10h1.169c25.015 0 44.055 7.379 58.204 22.555 14.137 15.181 21.305 36.508 21.305 63.387v11.116c0 1.096-.122 1.743-.213 2.073-.33.091-.976.213-2.073.213h-49.726c-1.096 0-1.743-.121-2.073-.212-.091-.33-.213-.977-.213-2.073v-4.095c0-17.799-3.771-30.1-11.541-37.618-7.668-7.397-20.559-10.993-39.411-10.993h-18.721c-19.062 0-32.072 4.003-39.772 12.238-7.522 8.045-11.178 21.857-11.178 42.223v11.701c0 11.489 4.279 21.125 12.368 27.86 7.094 5.92 15.251 9.877 24.246 11.763.086.017.172.034.259.05 8.934 1.629 23.498 3.296 44.521 5.098 19.608 1.682 34.419 4.092 44.013 7.163 9.328 2.996 18.751 7.759 28.009 14.155 17.764 12.786 26.77 36.804 26.77 71.39v22.23c0 27.9-7.352 48.728-22.479 63.676-15.155 14.984-35.531 22.267-62.294 22.267h-1.169c-5.522 0-10 4.477-10 10v45.046c0 1.096-.122 1.742-.213 2.073-.33.09-.976.212-2.073.212h-35.101c-1.096 0-1.743-.121-2.073-.212-.091-.33-.213-.977-.213-2.073v-45.046c0-5.523-4.478-10-10-10h-4.094c-27.089 0-47.426-7.339-62.175-22.438-14.813-15.157-22.014-35.929-22.014-63.505v-11.115c0-1.096.121-1.743.212-2.073.331-.09.977-.212 2.072-.212h49.728c1.094 0 1.741.122 2.072.212.091.331.212.977.212 2.073v4.096c0 17.886 3.91 30.228 11.949 37.728 7.839 7.323 20.597 10.883 39.003 10.883h23.4c18.067 0 30.77-3.789 38.84-11.591 8.15-7.891 12.112-20.957 12.112-39.945v-8.775c0-12.581-4.02-22.715-11.955-30.128-7.069-6.593-15.434-11.136-24.863-13.502-.09-.022-.181-.044-.272-.064-7.492-1.659-21.379-3.443-42.458-5.457-19.751-1.878-34.588-4.221-44.1-6.966-9.1-2.624-18.598-7.21-28.23-13.63-.047-.031-.094-.062-.141-.092-18.689-12.012-28.166-36.934-28.166-74.075v-21.646c0-20.722 4.047-37.98 12.027-51.293 2.839-4.738 1.3-10.88-3.436-13.719-4.739-2.839-10.88-1.301-13.719 3.436-9.869 16.464-14.873 37.181-14.873 61.576v21.646c0 44.344 12.544 74.912 37.281 90.854 11.319 7.537 22.662 12.974 33.713 16.16 10.85 3.13 26.47 5.636 47.745 7.659 19.833 1.895 33.253 3.591 39.896 5.044 6.136 1.562 11.357 4.407 15.948 8.689 3.771 3.522 5.603 8.595 5.603 15.508v8.775c0 17.178-3.775 23.398-6.019 25.571-2.816 2.721-9.426 5.965-24.934 5.965h-23.4c-16.936 0-23.151-3.444-25.354-5.502-2.091-1.95-5.598-7.545-5.598-23.108v-4.096c0-13.746-8.539-22.285-22.284-22.285h-49.728c-13.745 0-22.284 8.539-22.284 22.285v11.115c0 32.6 9.323 58.669 27.709 77.482 17.308 17.72 41.028 27.243 70.573 28.351v35.156c0 13.746 8.539 22.286 22.286 22.286h35.101c13.747 0 22.286-8.54 22.286-22.286v-35.297c27.789-1.608 50.474-10.938 67.521-27.792 18.859-18.635 28.421-44.845 28.421-77.901v-22.23c0-41.441-11.835-70.943-35.177-87.688z"/><circle cx="174.99" cy="77.78" r="10"/></svg>