<svg enable-background="new 0 0 512 512" viewBox="0 0 512 512" xmlns="http://www.w3.org/2000/svg"><path d="m240.9 503.3c-1.9 0-3.6-.2-5.1-.6-3.9-1.1-6.9-4.1-7.9-7.9-.4-1.5-.6-3.2-.6-5.1v-43.7h-2.8c-30.3 0-53.3-8.5-70.3-25.9s-25.2-40.7-25.2-71.4v-11.1c0-1.9.2-3.6.6-5.1 1.1-3.8 4.1-6.8 7.9-7.9 1.5-.4 3.2-.6 5.1-.6h49.7c1.9 0 3.6.2 5.1.6 3.8 1.1 6.9 4.1 7.9 7.9.4 1.5.6 3.2.6 5.1v4.1c0 14.4 2.8 24.3 8.3 29.4 5.6 5.2 16.1 7.8 31.3 7.8h23.5c14.8 0 25.2-2.8 31-8.4 5.7-5.6 8.7-16.3 8.7-31.8v-8.7c0-9.4-2.7-16.6-8.4-21.8-5.6-5.3-12.3-8.9-19.9-10.8-6.9-1.5-20.7-3.3-41-5.2-20.4-1.9-36-4.4-46.2-7.4-10.2-2.9-20.8-8-31.3-15.1-22.1-14.2-33.4-42.4-33.4-83.6v-21.6c0-22.8 4.6-42 13.6-57.1.2-.4.5-.8.8-1.1.5-.7 13.5-17.3 32.5-28.3 17.4-10 36.8-10.8 42.3-10.8h1.1 8.6v-44.9c0-1.9.2-3.6.6-5.1 1.1-3.9 4.1-6.9 8-7.9 1.5-.4 3.2-.6 5.1-.6h34.9c1.9 0 3.6.2 5.1.6 3.9 1.1 6.9 4.1 7.9 7.9.4 1.5.6 3.2.6 5.1v44.9c28.2 0 49.9 8.6 66.3 26.2 16.2 17.4 24.4 41.3 24.4 71.1v11.1c0 1.9-.2 3.6-.6 5.1-1.1 3.8-4.1 6.8-7.9 7.9-1.5.4-3.2.6-5.1.6h-49.7c-1.9 0-3.6-.2-5.1-.6-3.9-1.1-6.9-4.1-7.9-7.9-.4-1.5-.6-3.2-.6-5.1v-4.1c0-14.4-2.7-24.3-8.1-29.5s-16-7.8-31.5-7.8h-18.8c-15.5 0-26.1 2.9-31.5 8.6-5.4 5.8-8.1 17.4-8.1 34.5v11.7c0 8.1 2.8 14.6 8.3 19.1 5.6 4.7 12.1 7.9 19.2 9.4 8.6 1.6 22.9 3.2 43.5 5 20.5 1.8 36.1 4.3 46.5 7.7 10.4 3.3 20.8 8.6 31 15.6.1 0 .1.1.2.1 20.9 15 31.5 42.2 31.5 80.6v22.2c0 31.1-8.5 54.6-25.8 71.7-17.3 17.2-40.3 25.5-70.1 25.5v43.7c0 1.9-.2 3.6-.6 5.1-1.1 3.9-4.1 6.9-8 7.9-1.5.4-3.2.6-5 .6h-35.2z" fill="#ffcb3f"/><g fill="#2f3232"><path d="m358.1 238.8s-.1-.1-.1-.1c-10.9-7.5-22.1-13.2-33.4-16.8-11.2-3.6-27-6.2-48.4-8-20-1.7-34.3-3.3-42.5-4.8-5.8-1.2-10.8-3.7-15.4-7.5-2.2-1.9-5.2-5.2-5.2-12.5v-11.7c0-20.2 4-26.7 5.8-28.6 2.1-2.2 8.1-5.9 25.2-5.9h18.7c18 0 23.8 3.8 25.5 5.4 2 2 5.4 7.6 5.4 23.2v4.1c0 13.7 8.5 22.3 22.3 22.3h49.7c13.7 0 22.3-8.5 22.3-22.3v-11.1c0-32.1-9-58-26.7-77-16.1-17.3-37.6-26.9-64-28.6v-36.6c0-13.8-8.5-22.3-22.3-22.3h-35.1c-13.7 0-22.3 8.5-22.3 22.3v36.2h-.1c-5.5 0-10 4.5-10 10s4.5 10 10 10h10.1c5.5 0 10-4.5 10-10v-46.2c0-1.1.1-1.7.2-2.1.3-.1 1-.2 2.1-.2h35.1c1.1 0 1.7.1 2.1.2.1.3.2 1 .2 2.1v46.2c0 5.5 4.5 10 10 10h1.2c25 0 44.1 7.4 58.2 22.6s21.3 36.5 21.3 63.4v11.1c0 1.1-.1 1.7-.2 2.1-.3.1-1 .2-2.1.2h-49.7c-1.1 0-1.7-.1-2.1-.2-.1-.3-.2-1-.2-2.1v-4.1c0-17.8-3.8-30.1-11.5-37.6-7.7-7.4-20.6-11-39.4-11h-18.8c-19.1 0-32.1 4-39.8 12.2-7.5 8-11.2 21.9-11.2 42.2v11.7c0 11.5 4.3 21.1 12.4 27.9 7.1 5.9 15.3 9.9 24.2 11.8.1 0 .2 0 .3.1 8.9 1.6 23.5 3.3 44.5 5.1 19.6 1.7 34.4 4.1 44 7.2 9.3 3 18.8 7.8 28 14.2 17.8 12.8 26.8 36.8 26.8 71.4v22.2c0 27.9-7.4 48.7-22.5 63.7-15.2 15-35.5 22.3-62.3 22.3h-1.2c-5.5 0-10 4.5-10 10v45c0 1.1-.1 1.7-.2 2.1-.3.1-1 .2-2.1.2h-35.1c-1.1 0-1.7-.1-2.1-.2-.1-.3-.2-1-.2-2.1v-45c0-5.5-4.5-10-10-10h-4.1c-27.1 0-47.4-7.3-62.2-22.4-14.8-15.2-22-35.9-22-63.5v-11.1c0-1.1.1-1.7.2-2.1.3-.1 1-.2 2.1-.2h49.7c1.1 0 1.7.1 2.1.2.1.3.2 1 .2 2.1v4.1c0 17.9 3.9 30.2 11.9 37.7 7.8 7.3 20.6 10.9 39 10.9h23.6c18.1 0 30.8-3.8 38.8-11.6 8.1-7.9 12.1-21 12.1-39.9v-9.1c0-12.6-4-22.7-12-30.1-7.1-6.6-15.4-11.1-24.9-13.5-.1 0-.2 0-.3-.1-7.5-1.7-21.4-3.4-42.5-5.5-19.8-1.9-34.6-4.2-44.1-7-9.1-2.6-18.6-7.2-28.2-13.6 0 0-.1-.1-.1-.1-18.7-12-28.2-36.9-28.2-74.1v-21.6c0-20.7 4-38 12-51.3 2.8-4.7 1.3-10.9-3.4-13.7s-10.9-1.3-13.7 3.4c-9.9 16.5-14.9 37.2-14.9 61.6v21.6c0 44.3 12.5 74.9 37.3 90.9 11.3 7.5 22.7 13 33.7 16.2 10.9 3.1 26.5 5.6 47.7 7.7 19.8 1.9 33.3 3.6 39.9 5 6.1 1.6 11.4 4.4 15.9 8.7 3.8 3.5 5.6 8.6 5.6 15.5v8.8c0 17.2-3.8 23.4-6 25.6-2.8 2.7-9.4 6-24.9 6h-23.4c-16.9 0-23.2-3.4-25.4-5.5-2.1-2-5.6-7.5-5.6-23.1v-4.1c0-13.7-8.5-22.3-22.3-22.3h-49.7c-13.7 0-22.3 8.5-22.3 22.3v11.1c0 32.6 9.3 58.7 27.7 77.5 17.3 17.7 41 27.2 70.6 28.4v35.2c0 13.7 8.5 22.3 22.3 22.3h35.3c13.7 0 22.3-8.5 22.3-22.3v-35.3c27.8-1.6 50.5-10.9 67.5-27.8 18.9-18.6 28.4-44.8 28.4-77.9v-22.2c0-41.6-11.8-71.1-35.1-87.9z"/><circle cx="175" cy="77.8" r="10"/></g></svg>