<svg enable-background="new 0 0 512 512" viewBox="0 0 512 512" xmlns="http://www.w3.org/2000/svg"><circle cx="256" cy="258.8" fill="#4b80c1" r="245"/><path d="m387.7 464c-2.8-4.8-8.9-6.4-13.7-3.6l-.4.2c-4.8 2.8-6.4 8.9-3.6 13.7 1.9 3.2 5.2 5 8.7 5 1.7 0 3.4-.4 5-1.4l.4-.2c4.7-2.8 6.3-8.9 3.6-13.7z" fill="#2f3232"/><path d="m94 70.9 25 27-19 47-32.6 54-18.4 11 8 19.9-33.8 8.1-10.2-19 35.8-90.7zm-60 299.9 67 70.1 10.5-39.2 24.5-26.8-6.4-63-39.6-9-43-32-34 11.9zm152-202.9-50 55 14.3 48 63.7 11.9 18 9.1 21.7 118 12.7 20.9 39.6-29.2 35-60.8-11-22.2 38.6-55.8-39.6-18-13-38-44-21-16 8-25-26h-45zm208 176-25.4 14.2-6.6 43.5 8.1 7.2 16.5-7.2zm-117.3-330-33.7 34-65 23-27.7 47.2 26.7 36.3 26-26.2h26 37.4l62.6 26.2 15 35.5 18 34 48.4-31v-13l32.6 3 26 55 24-33-46-105-78.4-64z" fill="#a7c73f"/><g fill="#2f3232"><path d="m477.7 128.1c-34.2-59.2-89.4-101.6-155.4-119.3s-135-8.6-194.2 25.6-101.6 89.4-119.3 155.4-8.6 135 25.6 194.2c30.7 53.1 79.4 93.5 137.2 113.6 27.4 9.6 56 14.3 84.6 14.3 31.1 0 62.1-5.6 91.4-16.9 5.2-2 7.7-7.8 5.7-12.9s-7.8-7.7-12.9-5.7c-78 30-162.5 16.4-225.6-31l9-46.8 4.3-1.4c16.3-5.3 25.3-22.9 20-39.2l-3.2-9.7c-.7-2.3-.7-4.6 0-6.9 2.8-8.5 1.8-17.7-2.7-25.4s-12.1-13.1-20.9-14.8l-22.6-4.4-43.5-33.1c-2.6-2-6-2.6-9.1-1.6l-25.5 8.3c-.5-9.1-.5-18.2 0-27.3 1 .9 1.7 1.6 2.1 2 .5.8 1.1 1.6 1.8 2.3 2.1 1.9 4 2.8 7.9 2.8 3.6 0 9-.7 17.9-2 8.4-1.2 16.8-2.7 16.9-2.7 3.4-.6 6.2-2.8 7.5-5.9s1-6.7-.9-9.6l-12.3-18 17.6-12.6c1.2-.8 2.1-1.9 2.9-3.2l27.2-47.5 11-11.8c11.2-12 14.4-29.6 8.2-44.8-3.7-9-10.1-16.4-18.2-21.5 8.7-6.9 18.1-13.2 28-18.9 36.3-21 76-31.1 115.2-31.5l-17.9 22.4-66.2 23.2c-2.7.9-4.8 3-5.9 5.6l-18.5 44.8c-1.3 3.2-.9 6.8 1.1 9.6l27 37.8c-3.9 3.5-7.6 8.7-12.1 15.1-2 2.8-3.8 5.4-5.1 6.9-1.1 1.3-2.2 2.6-3.3 3.8-5.8 6.5-11.8 13.3-16.1 22.3-9.4 19.9-7.5 42.9 4.9 60.2 12 16.7 31.8 25.2 53 22.7 3.4-.4 6.7-1.2 9.8-2 8.6-2.1 11.3-2.3 14 .2 1.3 1.3 1.5 1.5 1.4 5.7 0 2.7 0 6.1.9 9.9 1.5 6.1 5.4 10.4 8.5 13.8 1.5 1.7 3.1 3.4 3.6 4.6 3.1 7.5 1.8 11.6-1.2 20.7-.3.8-.5 1.6-.8 2.4-4.5 14 1.8 27.9 7.3 40.1 1.8 4 3.5 7.7 4.6 11 9 26.7 15.7 32.8 21.1 35.2 2.8 1.3 5.8 1.9 8.7 1.9 14.4 0 29.5-13.4 36.4-21.9 4.3-5.3 5.4-10.7 6.2-14.6.4-1.9.7-3.5 1.3-4.5.9-1.5 1.9-2.7 3.3-4.2 2.7-3 6-6.8 8.2-13.6 1.6-5.2 2.8-6.4 6.8-10.6.7-.7 1.4-1.5 2.2-2.4 13.3-14.5 9.9-25.6 6.3-37.3-3.1-9.9 2.3-16.2 15.2-28.2 5.6-5.2 11.4-10.6 15.9-17.1 2-2.8 7.9-11.5 4.2-20-3.6-8.4-12.8-9.8-20.2-10.9-2.9-.4-7.3-1.1-8.7-2-6.2-4-10-12.5-13.6-20.7-.7-1.6-1.4-3.2-2.2-4.8-1.3-2.8-2.6-6.1-4-9.7-3.6-9.4-7.8-20.1-14.8-27.5-6.3-6.7-18.2-9.9-28.7-12.7-3.5-1-6.9-1.9-9.1-2.7-1.8-.7-3.8-.8-5.7-.4-5.1 1.2-8.3 2.5-10.7 4.4-.6.5-2.5 2.1-3.6 4.8-3.7-1.8-8.7-5.1-11.8-7.2-.1 0-.1-.1-.2-.1 1-4.2.1-7.5-.9-9.6-5.6-11.8-24.1-10.9-27.8-10.6-2.1.2-4.7.3-7.5.4-4.4.2-9.2.3-14 .9l.2-.7c3.6-10.1 13.3-16.9 24-16.9h5.7c5.5 0 10-4.5 10-10s-4.5-10-10-10h-5.6c-15.9 0-30.5 8.4-38.7 21.6l-14.9-20.9 14.7-35.6 64.7-22.7c1.8-.6 3.3-1.7 4.5-3.2l28.8-36.1c73.5 7 142.7 48.2 182.3 116.9 10.6 18.3 18.4 37.5 23.6 57.2l-4.2 3.8c-5.5 4.9-8.8 12-8.9 19.4v.2l-6.9-19c-1-2.8-2.5-5.4-4.5-7.7l-12.3-14.4c-4.8-5.6-11.7-8.8-19.1-8.8h-15.1c-5.4 0-10.2 2.9-12.8 7.6-2.5 4.7-2.2 10.4.7 14.9l1.5 2.3c-9.7 8.4-21 15.1-33 19.6l-20.7-39.6v-8.8c0-2.7-1.1-5.3-3.1-7.2l-18.6-17.4c-1-1-2.3-1.7-3.6-2.2l-16.8-5.9c-5.2-1.8-10.9.9-12.7 6.1s.9 10.9 6.1 12.7l14.7 5.2 14 13.3v7c0 1.6.4 3.2 1.1 4.6l25.9 49.6c2.3 4.5 7.6 6.5 12.3 4.8l7.5-2.8c17.5-6.5 33.7-16.8 46.9-30 3.4-3.4 3.9-8.6 1.2-12.6l-.5-.8h4.8c1.5 0 2.9.7 3.9 1.8l12.3 14.4c.4.5.7 1 .9 1.6l13.6 37.4c1.2 3.2 3.9 5.6 7.2 6.3.7.2 1.4.2 2.2.2 2.6 0 5.2-1 7.1-2.9l6.5-6.5c4.1-4.1 6.9-9.3 8.3-15 10 80.2-21.4 163.2-87.9 215.3-4.3 3.4-5.1 9.7-1.7 14s9.7 5.1 14 1.7c48-37.7 81-91.5 92.8-151.7 12-60.6 1.6-123.6-29.4-177.3zm-430.4 154.6 41.2 31.4c1.2.9 2.6 1.6 4.1 1.9l24.9 4.9c3.2.6 5.8 2.5 7.5 5.3 1.6 2.8 2 6 1 9.1-2.1 6.3-2.1 13 0 19.3l3.2 9.7c1.9 5.8-1.3 12.1-7.1 14l-9.9 3.2c-3.5 1.1-6 4-6.7 7.6l-8 41.7c-17.6-16.1-33-35.1-45.6-56.8-15.3-26.5-24.8-54.7-29-83.3zm58.3-159.4-11.8 12.6c-.5.6-1 1.2-1.4 1.9l-26.7 46.6-23.7 17c-4.4 3.2-5.5 9.3-2.4 13.8l8.9 13c-5.1.8-9.7 1.4-12.8 1.7-.6-.6-1.2-1.1-1.8-1.7-2.4-2.2-5.7-5.2-10.6-9.5 8.1-50.3 32.3-97.6 70.4-133.8 7.3 2.3 13.3 7.7 16.2 14.8 3.2 8 1.5 17.2-4.3 23.6zm81.5 54.6c4.5-2.5 14.8-2.9 22.4-3.1 3-.1 5.9-.2 8.4-.4 1.3-.1 2.8-.1 4.3 0-.6 1.6-.8 3.4-.6 5.2.5 3.1 2.4 5.8 5.2 7.3 1.9 1 4.5 2.7 7.3 4.6 7.8 5.2 16.7 11.1 25 11.6 7.6.5 11.8-3.8 13.6-5.7.1-.1.3-.3.4-.4 1-.8 2-1.9 2.7-3.3 1.6.5 3.3.9 5 1.4 5.9 1.6 16.9 4.6 19.4 7.2 4.3 4.6 7.7 13.3 10.7 21 1.5 3.9 2.9 7.6 4.5 11 .7 1.5 1.4 3 2 4.5 4.6 10.3 9.8 22 20.9 29.2 5 3.3 11.2 4.2 16.6 5.1.7.1 1.4.2 2.2.3-3.2 4.5-7.8 8.8-12.7 13.3-12.4 11.5-27.8 25.9-20.7 48.8 3.3 10.8 3.5 12-1.9 17.8-.7.8-1.4 1.5-2.1 2.2-4.6 4.9-8.3 8.8-11.3 18.3-.9 2.8-2 4-4.1 6.4-1.6 1.9-3.7 4.2-5.6 7.4-2.3 3.9-3 7.6-3.6 10.6s-.9 4.4-2.1 5.9c-2.6 3.2-7.6 8-12.6 11.2-4.7 3-7.4 3.4-8.4 3.3-1.1-1.1-4.9-6.2-10.8-23.5-1.4-4.3-3.4-8.7-5.4-12.9-4.3-9.4-8.7-19.1-6.5-25.7.3-.8.5-1.5.7-2.3 3.4-10.4 6.7-20.3.7-34.6-1.8-4.4-4.7-7.6-7.3-10.4-1.7-1.8-3.5-3.9-3.8-5.1-.4-1.4-.3-3.1-.3-5.1 0-5.2.1-13.1-7.8-20.5-11.1-10.4-24-7.2-32.5-5.1-2.6.6-5.1 1.3-7.3 1.5-14 1.6-26.6-3.7-34.4-14.5-8.2-11.4-9.4-26.7-3.1-40 3-6.4 7.6-11.6 12.9-17.6 1.2-1.3 2.3-2.6 3.5-4 1.9-2.2 4.1-5.3 6.4-8.5 2.9-3.9 7.9-11 10.1-12.4z"/><path d="m410 344.3-4.8-18.1c-1.1-4-4.4-6.9-8.5-7.4s-8 1.6-10 5.2c-1.1 2-2.1 4.2-3 6.2-1.6 3.5-3.3 7.1-5 9.1-1 1.1-3.5 2.3-5.9 3.5-5.8 2.8-13.6 6.6-16.7 16.2-1.9 6-1.2 10.7-.7 14.1.4 3 .5 4-.3 5.9l-.1.2c-3.2 7.5-9.1 21.4-.8 33.2 5.9 8.4 12.2 10.6 17 10.6.9 0 1.8-.1 2.7-.2 10.2-1.7 17.9-12.3 24.1-33.4l11.8-39.6c.7-1.9.7-3.7.2-5.5zm-31 39.3c-3.2 10.8-6 15.8-7.7 18-.2-.2-.4-.5-.6-.8-1.9-2.7.9-9.4 2.8-13.9l.1-.2c3-7.2 2.2-12.6 1.6-16.7-.4-2.6-.5-3.7 0-5.2.4-1.2 2.7-2.5 6.3-4.2 1.6-.8 3.3-1.6 5-2.6z"/><path d="m270 118.9-.7-.2c-5.2-1.8-10.9.9-12.7 6.1s.9 10.9 6.1 12.7l.7.2c1.1.4 2.2.6 3.3.6 4.1 0 8-2.6 9.4-6.7 1.9-5.2-.9-10.9-6.1-12.7z"/></g></svg>