<svg enable-background="new 0 0 512 512" viewBox="0 0 512 512" xmlns="http://www.w3.org/2000/svg" fill="#2F3232"><path d="m424.5 81.836c-5.52 0-10 4.48-10 10s4.48 10 10 10 10-4.48 10-10c0-5.521-4.48-10-10-10z"/><path d="m476.458 71.761c-23.865-26.823-56.967-41.595-93.208-41.595-39.629 0-75.791 15.361-104.574 44.423-10.009 10.105-17.49 20.201-22.676 28.213-5.186-8.011-12.667-18.106-22.676-28.213-28.783-29.063-64.944-44.424-104.574-44.424-75.856 0-128.75 63.461-128.75 138.911 0 101.918 108.004 187.733 249.451 310.316 1.879 1.629 4.214 2.443 6.549 2.443s4.67-.814 6.549-2.443c141.784-122.876 249.451-208.54 249.451-310.316 0-36.995-12.622-71.555-35.542-97.315zm-220.458 386.846c-133.569-115.584-236-198.6-236-289.531 0-67.79 46.752-118.91 108.75-118.91 34.424 0 64.661 12.786 89.871 38.001 19.206 19.21 28.167 38.815 28.255 39.011 1.609 3.587 5.176 5.891 9.109 5.899h.019c3.932 0 7.504-2.313 9.121-5.899.088-.196 9.049-19.8 28.255-39.011 25.209-25.216 55.446-38.001 89.871-38.001 61.998 0 108.75 51.12 108.75 118.91-.001 92.984-109.191 179.796-236.001 289.531z"/><path d="m459.476 117.461c-2.565-4.892-8.61-6.776-13.5-4.212-4.891 2.565-6.777 8.609-4.212 13.5 6.601 12.587 10.236 27.619 10.236 42.327 0 28.896-13.753 59.565-43.282 96.517-3.448 4.314-2.745 10.607 1.569 14.055 4.342 3.47 10.629 2.718 14.055-1.569 32.514-40.688 47.658-75.325 47.658-109.003 0-18.144-4.331-35.992-12.524-51.615z"/><path d="m352 221.836h-56v-56c0-5.523-4.477-10-10-10h-60c-5.523 0-10 4.477-10 10v56h-56c-5.523 0-10 4.477-10 10v60c0 5.523 4.477 10 10 10h56v56c0 5.523 4.477 10 10 10h60c5.523 0 10-4.477 10-10v-56h56c5.523 0 10-4.477 10-10v-60c0-5.523-4.477-10-10-10zm-10 59.999h-56c-5.523 0-10 4.477-10 10v56h-40v-56c0-5.523-4.477-10-10-10h-56v-40h56c5.523 0 10-4.477 10-10v-56h40v56c0 5.523 4.477 10 10 10h56z"/></svg>