<svg enable-background="new 0 0 512 512" viewBox="0 0 512 512" xmlns="http://www.w3.org/2000/svg"><path d="m424.5 81.8c-5.5 0-10 4.5-10 10s4.5 10 10 10 10-4.5 10-10-4.5-10-10-10z" fill="#2f3232"/><path d="m257 460.7c-135.2-117.1-239-201.2-239-293.3 0-68.6 47.4-120.4 110.2-120.4 34.9 0 65.5 13 91 38.5 19.5 19.5 28.5 39.3 28.6 39.5 1.6 3.6 5.2 6 9.2 6s7.6-2.3 9.2-6c.1-.2 9.2-20.1 28.6-39.5 25.5-25.5 56.2-38.5 91-38.5 62.8 0 110.2 51.8 110.2 120.4.1 94.2-110.5 182.1-239 293.3z" fill="#f06449"/><path d="m477.5 71.8c-23.9-26.8-57-41.6-93.2-41.6-39.6 0-75.8 15.4-104.6 44.4-10 10.1-17.5 20.2-22.7 28.2-5.2-8-12.7-18.1-22.7-28.2-28.8-29.1-64.9-44.4-104.6-44.4-75.8 0-128.7 63.4-128.7 138.9 0 101.9 108 187.7 249.5 310.3 1.9 1.6 4.2 2.4 6.5 2.4s4.7-.8 6.5-2.4c141.8-122.9 249.5-208.5 249.5-310.3 0-37-12.6-71.6-35.5-97.3zm-220.5 386.8c-133.6-115.6-236-198.6-236-289.5 0-67.8 46.8-118.9 108.8-118.9 34.4 0 64.7 12.8 89.9 38 19.2 19.2 28.2 38.8 28.3 39 1.6 3.6 5.2 5.9 9.1 5.9s7.5-2.3 9.1-5.9c.1-.2 9-19.8 28.3-39 25.2-25.2 55.4-38 89.9-38 62 0 108.8 51.1 108.8 118.9-.2 93-109.4 179.8-236.2 289.5z" fill="#2f3232"/><path d="m459.5 117.5c-2.6-4.9-8.6-6.8-13.5-4.2s-6.8 8.6-4.2 13.5c6.6 12.6 10.2 27.6 10.2 42.3 0 28.9-13.8 59.6-43.3 96.5-3.4 4.3-2.7 10.6 1.6 14.1s10.6 2.7 14.1-1.6c32.5-40.7 47.7-75.3 47.7-109-.1-18.2-4.4-36-12.6-51.6z" fill="#2f3232"/><path d="m348.1 282.7h-59.3c-5.8 0-10.6 4.7-10.6 10.5v58.6h-42.3v-58.6c0-5.8-4.8-10.5-10.6-10.5h-59.3v-41.9h59.3c5.8 0 10.6-4.7 10.6-10.5v-58.6h42.3v58.6c0 5.8 4.8 10.5 10.6 10.5h59.3z" fill="#a7c73f"/><path d="m352 221.8h-56v-56c0-5.5-4.5-10-10-10h-60c-5.5 0-10 4.5-10 10v56h-56c-5.5 0-10 4.5-10 10v60c0 5.5 4.5 10 10 10h56v56c0 5.5 4.5 10 10 10h60c5.5 0 10-4.5 10-10v-56h56c5.5 0 10-4.5 10-10v-60c0-5.5-4.5-10-10-10zm-10 60h-56c-5.5 0-10 4.5-10 10v56h-40v-56c0-5.5-4.5-10-10-10h-56v-40h56c5.5 0 10-4.5 10-10v-56h40v56c0 5.5 4.5 10 10 10h56z" fill="#2f3232"/></svg>