<svg enable-background="new 0 0 512 512" viewBox="0 0 512 512" xmlns="http://www.w3.org/2000/svg" fill="#2F3232"><path d="m510.052 291.984c-.016-.306-.045-.613-.089-.919l-25.663-178.568c-.437-3.039-2.245-5.709-4.904-7.242-2.658-1.533-5.875-1.761-8.726-.615l-118.103 47.482c-5.125 2.06-7.608 7.885-5.549 13.009 2.061 5.126 7.887 7.609 13.01 5.549l106.284-42.731 23.681 164.776c.013.464.059.93.138 1.396 5.178 30.482-.491 62.025-15.96 88.819-17.815 30.856-46.613 52.909-81.092 62.096-34.488 9.19-70.529 4.409-101.487-13.463-.214-.124-.434-.228-.653-.334 6.637-5.044 12.88-10.505 18.703-16.347l117.078-31.371c5.336-1.429 8.502-6.914 7.072-12.249-1.429-5.335-6.917-8.502-12.248-7.072l-90.086 24.138c9.899-14.726 17.643-30.966 22.935-48.341l80.372-21.535c5.336-1.429 8.502-6.914 7.072-12.249-1.429-5.335-6.917-8.502-12.248-7.072l-59.138 15.846 22.238-38.519 46.995-12.592c5.336-1.429 8.502-6.914 7.072-12.249s-6.917-8.502-12.248-7.072l-27.675 7.416 21.28-36.859c2.762-4.784 1.123-10.9-3.66-13.661-4.784-2.762-10.9-1.123-13.661 3.66l-21.28 36.858-7.416-27.675c-1.43-5.335-6.915-8.502-12.248-7.072-5.336 1.429-8.502 6.914-7.072 12.249l12.592 46.995-13.012 22.538c.384-32.013-7.807-63.649-24.224-92.083-20.673-35.806-53.298-63.614-91.906-78.346-.063-.027-.128-.054-.192-.081l-45.252-18.366c-5.122-2.077-10.95.389-13.027 5.506-2.077 5.119.388 10.951 5.506 13.028l44.84 18.198c.203.093.41.179.62.259 34.489 13.061 63.643 37.85 82.089 69.801 21.472 37.192 27.136 80.543 15.948 122.071-10.321 38.306-33.847 70.82-66.707 92.544l-16.784-29.07 36.387-135.796c1.43-5.336-1.736-10.819-7.072-12.249-5.339-1.429-10.818 1.737-12.248 7.072l-31.209 116.478-37.026-64.131 25.244-94.208c1.43-5.336-1.736-10.819-7.072-12.249-5.337-1.43-10.818 1.737-12.248 7.072l-20.066 74.888-29.187-50.553 15.203-56.735c1.43-5.336-1.736-10.819-7.072-12.249-5.338-1.429-10.818 1.737-12.248 7.072l-10.027 37.415-27.65-47.892c-2.761-4.783-8.878-6.423-13.661-3.66-4.784 2.761-6.423 8.878-3.66 13.661l27.65 47.891-37.414-10.025c-5.337-1.43-10.818 1.737-12.248 7.072-1.43 5.336 1.736 10.819 7.072 12.249l56.734 15.203 29.187 50.553-74.886-20.065c-5.337-1.43-10.818 1.737-12.248 7.072-1.43 5.336 1.736 10.819 7.072 12.249l94.206 25.243 37.026 64.131-116.475-31.209c-5.338-1.43-10.818 1.737-12.248 7.072-1.43 5.336 1.736 10.819 7.072 12.249l135.795 36.386 16.782 29.067c-75.574 37.666-168.581 10.538-211.238-63.345-18.646-32.296-25.478-70.316-19.237-107.057.085-.496.13-.991.138-1.484l28.557-198.745 66.251 26.889c5.123 2.078 10.95-.388 13.027-5.506 2.077-5.119-.388-10.951-5.506-13.028l-78.092-31.696c-2.849-1.155-6.075-.937-8.741.594-2.667 1.531-4.481 4.205-4.919 7.251l-30.564 212.674c-.049.337-.079.675-.093 1.01-6.638 40.917 1.104 83.157 21.853 119.095 33.413 57.875 94.294 90.246 156.878 90.245 27.641 0 55.609-6.339 81.693-19.56l12.291 21.288c1.853 3.208 5.214 5.002 8.671 5.002 1.696 0 3.416-.432 4.991-1.341 4.784-2.761 6.423-8.878 3.66-13.661l-4.557-7.894c22.098 11.472 46.201 17.341 70.592 17.341 13.29 0 26.666-1.737 39.843-5.248 39.65-10.566 72.773-35.932 93.264-71.423 17.589-30.464 24.161-66.268 18.558-100.956z"/><path d="m165.258 86.561c-1.859-1.86-4.439-2.93-7.07-2.93s-5.211 1.07-7.071 2.93c-1.86 1.87-2.93 4.44-2.93 7.071 0 2.64 1.069 5.211 2.93 7.081 1.86 1.861 4.44 2.93 7.071 2.93 2.63 0 5.211-1.07 7.07-2.93 1.87-1.87 2.931-4.451 2.931-7.081s-1.061-5.201-2.931-7.071z"/><path d="m443.884 174.367-.06-.082c-3.246-4.469-9.501-5.461-13.969-2.215-4.469 3.245-5.462 9.5-2.216 13.968l.06.081c1.957 2.694 5.008 4.125 8.101 4.125 2.037 0 4.094-.621 5.869-1.909 4.468-3.245 5.46-9.499 2.215-13.968z"/></svg>