<svg enable-background="new 0 0 512 512" viewBox="0 0 512 512" xmlns="http://www.w3.org/2000/svg"><path d="m501.8 349.7-110.5 63.6-.8-115.8 113.6-64.4z" fill="#e7e7e8"/><path d="m221.9 349.7-39.9 22.9-.8-115.8 41.7-23.7z" fill="#e7e7e8"/><path d="m226.4 326.8 96.7 56v-122.2l16-5.8 107.6-61.1-108.4-61.8-112.7 66.1z" fill="#d1d2d4"/><path d="m14.4 291.4 96.7 56v-122.1l16-5.8 107.6-61.1-108.3-61.9-112.8 66.2z" fill="#d1d2d4"/><g fill="#2f3232"><path d="m85.7 230.2-30.8-17c-3.1-1.7-6.9-1.7-9.9.1s-4.9 5.1-4.9 8.6v75c0 5.5 4.5 10 10 10s10-4.5 10-10v-58.1l16 8.8c4.8 2.7 10.9.9 13.6-3.9 2.6-4.7.8-10.8-4-13.5z"/><path d="m215.9 149.1c-2.7-4.8-8.8-6.6-13.6-3.9l-52.4 29-52.4-29c-4.8-2.7-10.9-.9-13.6 3.9s-.9 10.9 4 13.6l57.2 31.7c1.5.8 3.2 1.3 4.8 1.3 1.7 0 3.3-.4 4.8-1.2l57.2-31.7c4.9-2.8 6.7-8.9 4-13.7z"/><path d="m297.8 267.7-30.8-17c-3.1-1.7-6.9-1.7-9.9.1-3.1 1.8-4.9 5.1-4.9 8.6v75c0 5.5 4.5 10 10 10s10-4.5 10-10v-58.1l16 8.8c4.8 2.7 10.9.9 13.6-3.9 2.6-4.7.9-10.8-4-13.5z"/><path d="m512 191.1c0-.1 0-.1 0-.2v-.1-.1-.1-.1s0 0 0-.1v-.1s0 0 0-.1v-.1-.1s0 0 0-.1v-.1-.1-.1-.1-.1-.1-.1-.1-.1s0-.1 0-.1 0-.1 0-.1v-.1-.1-.1s0 0 0-.1v-.1s0 0 0-.1v-.1-.1-.1-.1s0-.1 0-.1v-.1-.1-.1-.1s0 0 0-.1v-.1s0 0 0-.1v-.1s0 0 0-.1v-.1s0 0 0-.1v-.1s0 0 0-.1c0 0 0 0 0-.1 0 0 0 0 0-.1v-.1s0 0 0-.1v-.1s0 0 0-.1v-.1s0 0 0-.1c0 0 0-.1-.1-.1s0-.1-.1-.1 0-.1-.1-.1 0-.1-.1-.1 0-.1-.1-.1-.1-.1-.1-.1c-.2-.3-.4-.5-.6-.8s-.1-.1-.1-.1-.1-.1-.1-.1-.1-.1-.1-.1 0-.1-.1-.1-.1-.1-.1-.1-.1-.1-.1-.1 0 0-.1-.1 0 0-.1-.1 0 0-.1-.1c0 0 0 0-.1 0 0 0 0 0-.1-.1 0 0 0 0-.1 0 0 0 0 0-.1-.1 0 0 0 0-.1 0 0 0 0 0-.1-.1 0 0 0 0-.1 0 0 0 0 0-.1-.1 0 0 0 0-.1 0 0 0 0 0-.1-.1 0 0 0 0-.1 0 0 0 0 0-.1-.1 0 0 0 0-.1 0 0 0-.1 0-.1-.1 0 0 0 0-.1 0 0 0-.1 0-.1-.1s-.1 0-.1-.1-.1 0-.1-.1c0 0 0 0-.1 0 0 0-.1 0-.1-.1s-.1 0-.1-.1 0 0-.1 0-.1 0-.1-.1l-139.9-77.4c-3-1.7-6.7-1.7-9.7 0l-67.4 37.3-135.8-74.1c-3-1.7-6.7-1.7-9.7 0l-139.9 77.4s-.1 0-.1.1 0 0-.1 0-.1 0-.1.1-.1 0-.1.1c0 0 0 0-.1 0 0 0-.1 0-.1.1 0 0 0 0-.1 0 0 0-.1 0-.1.1s-.1 0-.1.1c0 0 0 0-.1 0 0 0-.1 0-.1.1 0 0 0 0-.1 0 0 0 0 0-.1.1 0 0 0 0-.1 0 0 0 0 0-.1.1 0 0 0 0-.1 0 0 0 0 0-.1.1 0 0 0 0-.1 0 0 0 0 0-.1.1 0 0 0 0-.1 0 0 0 0 0-.1.1 0 0 0 0-.1 0 0 0 0 0-.1.1 0 0 0 0-.1 0 0 0 0 0-.1.1s0 0-.1.1 0 0-.1.1-.1.1-.1.1-.1.1-.1.1 0 .1-.1.1-.1.1-.1.1-.1.1-.1.1-.1.1-.1.1c-.2.3-.4.5-.6.8s-.1.1-.1.1 0 .1-.1.1 0 .1-.1.1 0 .1-.1.1 0 .1-.1.1 0 .1-.1.1v.1.1.1.1.1.1.1.1.1.1.1.1.1.1.1.1.1.1.1.1.1s0 .1 0 .1v.1s0 .1 0 .1v.1.1.1.1.1.1.1.1.1.1.1s0 .1 0 .1v.1.1.1.1.1.1.1.1.1.1.1.1.1.1.1.1.1.1.1.3 166.6c0 3.6 2 7 5.2 8.7l139.9 77.5s.1 0 .1.1.1 0 .1.1h.1.1.1.1.1.1.1.1.1.1.1.1.1c.1 0 .2.1.3.1h.1.1.1.1.1.1.1.1.1.1.1.1.1.1.1.1.1.1.1.1.1.1.1.1.1.1.1.1.1.1.1.1.1.1.1.1.2s.1 0 .2 0h.1.1.1.1.1.1.1.1.1.1.1.1.1.1.1.1.1.1.1.1.1.1.1.1.1.1.1.1.1c.5-.1.9-.3 1.3-.5s.1 0 .1-.1.1 0 .1-.1.1 0 .1-.1.1 0 .1-.1.1 0 .1-.1.1 0 .1-.1l67.4-37.3 135.1 74.8s.1 0 .1.1.1 0 .1.1h.1.1.1.1.1.1.1.1.1.1c.1 0 .2.1.3.1h.1.1.1.1.1.1.1.1.1.1.1.1.1.1.1.1.1.1.1.1.1.1.1.1.1.1.1.1.1.1.1.1.1.1.1.1.2s.1 0 .2 0h.1.1.1.1.1.1.1.1.1.1.1.1.1.1.1.1.1.1.1.1.1.1.1.1.1.1.1.1.1c.5-.1.9-.3 1.3-.5s.1 0 .1-.1.1 0 .1-.1.1 0 .1-.1.1 0 .1-.1.1 0 .1-.1.1 0 .1-.1l139.9-77.5c3.2-1.8 5.2-5.1 5.2-8.7v-165.7c-2.3-.1-2.3-.2-2.3-.3zm-372.1 189.9-119.9-66.3v-143.8l2.8 1.6 117.1 64.8zm72.2-28.9-52.2 28.9v-143.7l52.2-28.9zm-62.2-132.1-119.3-66 119.3-66 119.3 66zm202.2 198.5-119.9-66.4v-143.7l119.9 66.4zm10-161-119.3-66 119.3-66 119.3 66zm129.9 94.6-119.9 66.4v-143.7l117.1-64.8 2.8-1.6z"/><path d="m428 186.6c-2.7-4.8-8.8-6.6-13.6-3.9l-52.4 29-52.4-29c-4.8-2.7-10.9-.9-13.6 3.9s-.9 10.9 3.9 13.6l57.2 31.7c1.5.8 3.2 1.3 4.8 1.3 1.7 0 3.3-.4 4.8-1.3l57.2-31.7c5.1-2.7 6.8-8.8 4.1-13.6z"/><circle cx="322" cy="292.5" r="10"/><circle cx="109.9" cy="255" r="10"/></g></svg>