<svg enable-background="new 0 0 511.998 511.998" viewBox="0 0 511.998 511.998" xmlns="http://www.w3.org/2000/svg" fill="#2F3232"><path d="m85.695 230.215-30.793-17.044c-3.097-1.714-6.87-1.664-9.921.134-3.05 1.798-4.922 5.074-4.922 8.615v75.021c0 5.523 4.477 10 10 10s10-4.477 10-10v-58.056l15.95 8.829c4.83 2.674 10.916.927 13.592-3.906 2.675-4.833.926-10.918-3.906-13.593z"/><path d="m215.89 149.118c-2.675-4.832-8.76-6.582-13.592-3.906l-52.369 28.987-52.369-28.988c-4.83-2.673-10.917-.926-13.592 3.906s-.926 10.917 3.906 13.592l57.211 31.668c1.507.834 3.174 1.251 4.843 1.251 1.669.001 3.338-.416 4.844-1.25l57.212-31.668c4.832-2.675 6.581-8.76 3.906-13.592z"/><path d="m297.835 267.7-30.793-17.045c-3.096-1.714-6.87-1.664-9.921.134-3.05 1.798-4.922 5.074-4.922 8.615v75.021c0 5.523 4.477 10 10 10s10-4.477 10-10v-58.056l15.95 8.829c4.831 2.674 10.916.925 13.592-3.906 2.675-4.833.926-10.918-3.906-13.592z"/><path d="m511.993 191.112c-.001-.031-.003-.063-.004-.094-.001-.025-.002-.051-.003-.076-.001-.028-.003-.056-.005-.084-.002-.027-.003-.054-.005-.081-.002-.026-.004-.051-.006-.077-.002-.031-.005-.062-.007-.093-.002-.02-.004-.041-.006-.061-.003-.034-.006-.069-.01-.104-.003-.024-.005-.049-.008-.073-.003-.03-.006-.06-.01-.09-.003-.029-.007-.058-.011-.087-.003-.025-.006-.049-.009-.074-.004-.029-.008-.059-.012-.088-.004-.027-.007-.053-.011-.08-.004-.026-.008-.052-.012-.078-.005-.028-.009-.056-.014-.085-.004-.026-.009-.051-.013-.077-.005-.029-.01-.058-.016-.087-.005-.026-.01-.052-.015-.078-.005-.027-.01-.054-.016-.082-.005-.027-.011-.054-.017-.081s-.011-.054-.017-.081-.012-.053-.018-.079c-.006-.027-.013-.054-.019-.082-.006-.025-.012-.051-.018-.076-.007-.028-.014-.056-.021-.084-.006-.024-.013-.049-.019-.073-.008-.029-.015-.058-.023-.087-.007-.024-.013-.048-.02-.072-.008-.028-.016-.057-.024-.085-.007-.025-.015-.05-.022-.076-.008-.026-.015-.051-.023-.077-.008-.027-.017-.054-.025-.08s-.017-.052-.025-.078c-.008-.025-.017-.051-.025-.076-.009-.026-.017-.051-.026-.077-.009-.025-.018-.051-.026-.076-.01-.028-.02-.055-.03-.083-.008-.023-.017-.046-.025-.069-.01-.027-.02-.054-.031-.081-.009-.025-.019-.049-.028-.073-.01-.027-.021-.054-.032-.081-.009-.023-.018-.046-.028-.069-.011-.028-.023-.056-.035-.083-.009-.022-.018-.043-.027-.065-.012-.028-.024-.056-.037-.084-.01-.023-.02-.046-.031-.07-.011-.025-.022-.049-.033-.074-.011-.024-.022-.048-.033-.072-.013-.027-.026-.054-.038-.081-.01-.022-.021-.043-.031-.065-.014-.028-.027-.056-.041-.083-.01-.021-.02-.041-.031-.062-.015-.029-.029-.057-.044-.086-.01-.019-.02-.038-.03-.058-.017-.032-.034-.064-.052-.096-.008-.015-.016-.03-.024-.044-.019-.034-.038-.068-.057-.102-.008-.014-.015-.027-.023-.041-.019-.034-.039-.068-.059-.102-.008-.013-.015-.026-.023-.039-.019-.032-.039-.064-.058-.097-.009-.015-.018-.03-.027-.044-.021-.035-.043-.069-.065-.104-.007-.011-.014-.022-.021-.033-.025-.04-.051-.079-.077-.119-.004-.006-.008-.012-.011-.017-.18-.274-.374-.539-.581-.795-.005-.006-.01-.012-.014-.017-.03-.037-.06-.074-.091-.11-.003-.004-.007-.008-.01-.012-.032-.038-.063-.075-.095-.112-.007-.008-.014-.016-.021-.024-.028-.032-.056-.064-.085-.096-.013-.014-.026-.029-.039-.043-.023-.026-.047-.052-.071-.077-.013-.014-.026-.027-.039-.041-.025-.027-.051-.055-.077-.081-.011-.011-.021-.022-.032-.033-.026-.027-.053-.054-.079-.081-.015-.015-.029-.029-.044-.044-.024-.025-.049-.049-.073-.073-.014-.014-.029-.028-.043-.042-.025-.024-.049-.048-.074-.071-.016-.015-.032-.03-.048-.045-.024-.022-.047-.044-.071-.066-.018-.016-.036-.033-.054-.049-.023-.02-.045-.041-.068-.061-.018-.016-.035-.031-.053-.047-.024-.021-.048-.042-.072-.063-.018-.015-.035-.03-.053-.045-.024-.021-.048-.041-.073-.061-.018-.015-.036-.03-.054-.045-.025-.02-.049-.04-.074-.06-.019-.015-.038-.03-.056-.045-.024-.019-.047-.037-.071-.056-.02-.016-.041-.032-.061-.047-.024-.018-.048-.037-.073-.055-.019-.014-.038-.028-.056-.042-.026-.019-.052-.038-.078-.057-.018-.013-.036-.026-.054-.039-.029-.02-.057-.041-.086-.061-.016-.011-.032-.022-.047-.033-.03-.021-.06-.041-.09-.062-.017-.011-.033-.022-.05-.033-.029-.019-.057-.038-.086-.057-.019-.012-.037-.024-.056-.036-.03-.019-.06-.038-.09-.057-.016-.01-.031-.02-.047-.029-.034-.021-.069-.042-.103-.063-.012-.007-.024-.015-.037-.022-.015-.009-.029-.018-.044-.027-.023-.014-.046-.027-.069-.04-.01-.006-.019-.011-.029-.017-.04-.023-.08-.045-.12-.068-.006-.003-.012-.007-.017-.01l-.047-.026c-.002-.001-.005-.003-.007-.004l-139.875-77.425c-3.013-1.668-6.673-1.668-9.686 0l-67.368 37.29-135.087-74.774c-3.013-1.668-6.673-1.668-9.686 0l-139.929 77.454c-.008.004-.016.009-.023.013-.037.021-.075.042-.112.063-.011.006-.022.013-.033.019-.023.013-.045.026-.067.039-.015.009-.03.018-.044.027-.012.007-.024.015-.037.022-.035.021-.069.042-.103.063-.016.01-.031.02-.047.029-.03.019-.06.038-.09.057-.019.012-.037.024-.056.036-.029.019-.057.038-.086.057-.017.011-.033.022-.05.033-.03.02-.06.041-.09.062-.016.011-.032.022-.047.033-.029.02-.057.04-.086.061-.018.013-.036.026-.054.039-.026.019-.052.038-.078.057-.019.014-.038.028-.056.042-.024.018-.049.037-.073.055-.02.016-.041.031-.061.047-.024.019-.048.037-.071.056-.019.015-.038.03-.056.045-.025.02-.049.04-.074.06-.018.015-.036.03-.054.045-.024.02-.049.041-.073.061-.018.015-.035.03-.053.045-.024.021-.048.042-.072.063-.018.016-.035.031-.053.047-.023.02-.045.041-.068.061-.018.016-.036.033-.054.049-.024.022-.048.044-.071.066-.016.015-.032.03-.048.045-.025.024-.049.047-.074.071-.014.014-.029.028-.043.042-.024.024-.049.048-.073.073-.015.015-.029.029-.044.044-.027.027-.053.054-.079.081-.011.011-.021.022-.032.033-.026.027-.051.054-.077.081-.013.014-.026.027-.039.041-.024.026-.047.052-.071.077-.013.014-.026.029-.039.043-.028.032-.057.064-.085.096-.007.008-.014.016-.021.024-.032.037-.064.074-.095.112-.003.004-.007.008-.01.012-.031.036-.061.074-.091.11-.005.006-.01.012-.014.017-.207.256-.401.521-.581.795-.004.006-.008.012-.011.017-.026.04-.052.079-.077.119-.007.011-.014.022-.021.033-.022.034-.043.069-.064.104-.009.015-.018.03-.027.045-.019.032-.039.064-.058.097-.008.013-.015.026-.023.039-.02.034-.04.068-.059.102-.008.013-.015.027-.023.04-.019.034-.038.068-.057.102-.008.015-.016.029-.024.044-.017.032-.035.064-.051.096-.01.019-.02.038-.03.058-.015.029-.03.057-.044.086-.01.021-.021.041-.031.062-.014.028-.028.055-.041.083-.011.022-.021.043-.031.065-.013.027-.026.054-.038.081-.011.024-.022.048-.033.072-.011.025-.022.049-.033.074-.01.023-.021.046-.031.07-.012.028-.025.056-.036.084-.009.021-.018.043-.027.065-.012.028-.023.055-.035.083-.009.023-.019.046-.028.069-.011.027-.021.054-.032.081-.009.024-.019.049-.028.073-.01.027-.021.054-.03.081-.009.023-.017.046-.025.069-.01.028-.02.055-.03.083-.009.025-.018.051-.026.076-.009.026-.017.051-.026.077-.009.025-.017.05-.025.076s-.017.052-.025.078c-.008.027-.017.054-.025.08s-.016.051-.023.077c-.007.025-.015.051-.022.076-.008.028-.016.056-.024.085-.007.024-.013.048-.02.072-.008.029-.016.058-.023.087-.006.024-.013.049-.019.073-.007.028-.014.056-.021.084-.006.025-.013.051-.019.076-.006.027-.013.054-.019.082-.006.026-.012.053-.018.079-.006.027-.012.054-.017.081-.006.027-.011.054-.017.081s-.011.054-.016.082c-.005.026-.01.052-.015.077-.005.029-.01.058-.016.087-.004.026-.009.051-.013.077-.005.028-.009.056-.014.085-.004.026-.008.052-.012.078-.004.027-.008.053-.012.08-.004.029-.008.059-.012.088-.003.024-.006.049-.009.074-.004.029-.007.058-.011.087-.004.03-.007.06-.01.09-.003.024-.005.049-.008.073-.003.035-.006.069-.01.104-.002.02-.004.041-.006.061-.003.031-.005.062-.007.093-.002.026-.004.052-.006.077-.002.027-.003.054-.005.081-.002.028-.003.056-.005.084-.001.025-.002.051-.003.076-.001.031-.003.063-.004.094-.006.114-.008.224-.008.335v166.593c0 3.637 1.975 6.988 5.157 8.749l139.929 77.454c.005.003.009.005.014.008.038.021.075.041.113.061.009.005.018.01.028.015.036.019.073.038.109.057.015.008.03.016.045.023.032.016.064.033.096.048.017.008.033.016.05.025.034.016.067.033.101.049.014.007.028.013.042.02.034.016.068.032.102.047.017.008.034.015.05.023.033.015.066.029.099.044l.048.021c.033.014.067.029.1.043.017.007.033.014.05.02.034.014.068.028.102.041.016.006.031.012.047.018.034.013.068.026.102.039.021.008.041.015.062.023.03.011.059.022.089.033.018.007.037.013.055.02.102.036.204.07.306.103.032.01.065.021.097.03l.06.018c.033.01.065.02.098.029.02.006.039.011.059.017.032.009.063.018.095.027.023.006.047.012.07.019.029.008.059.015.088.023.022.006.044.011.066.016.03.008.061.015.091.022.023.005.046.011.069.016.029.007.058.013.087.02.025.005.05.011.075.016.027.006.054.011.081.017.026.005.052.01.079.016.027.005.054.011.081.016.024.004.049.009.073.013.03.005.06.011.09.016.021.003.043.007.064.01l.093.015c.025.004.049.008.074.011.027.004.054.008.082.012.026.003.052.007.078.01.027.003.055.007.082.01.026.003.051.006.077.009.029.003.059.006.088.009.023.002.046.005.069.007.033.003.065.006.098.009.02.002.041.004.061.005.032.003.064.005.096.007.023.002.046.003.069.005.03.002.059.004.089.005.023.001.047.003.07.004.033.002.067.003.1.004.02.001.04.002.06.002.034.001.068.002.102.003.02.001.04.001.06.002.053.001.107.001.16.001s.107 0 .16-.001c.02 0 .039-.001.059-.002.035-.001.069-.001.104-.003.02-.001.039-.001.059-.002.034-.001.068-.002.102-.004.023-.001.046-.003.068-.004.03-.002.06-.003.09-.005.025-.001.05-.003.075-.005.029-.002.057-.004.086-.007l.075-.006c.028-.003.056-.005.084-.008.027-.003.054-.005.081-.008.025-.003.051-.005.076-.008.029-.003.058-.007.087-.01.024-.003.048-.006.072-.009l.087-.012c.024-.003.048-.007.071-.01.029-.004.059-.009.089-.013.024-.004.048-.007.072-.011.029-.005.058-.009.087-.014.023-.004.045-.008.068-.012.031-.006.063-.011.094-.017.02-.004.039-.007.059-.011.033-.006.066-.013.099-.02.02-.004.039-.008.059-.012.032-.007.064-.013.096-.021.021-.004.041-.009.061-.014.033-.008.067-.015.1-.023.015-.004.029-.007.044-.011.038-.009.075-.018.113-.028.012-.003.023-.006.035-.009.041-.01.082-.021.122-.032.004-.001.007-.002.011-.003.452-.124.897-.28 1.331-.468.002-.001.004-.002.006-.003.045-.02.09-.039.134-.06.005-.002.01-.005.015-.007.043-.02.086-.04.13-.06.006-.003.012-.005.017-.008.041-.02.083-.039.124-.06.009-.004.017-.009.026-.013.04-.02.08-.04.12-.06.008-.004.015-.008.023-.012.04-.021.08-.041.12-.063.009-.005.018-.009.027-.014.038-.02.075-.041.113-.061.005-.003.009-.005.014-.008l67.368-37.29 135.087 74.774c.005.003.009.005.014.008.037.021.075.041.113.061.009.005.018.01.028.015.036.019.073.038.109.057.015.008.03.016.045.023.032.016.064.033.096.048.017.008.033.017.05.025.034.017.067.033.101.049.014.007.028.013.042.02.034.016.068.032.102.047.017.008.034.015.05.023.033.015.066.03.099.044.016.007.032.014.048.021.033.014.067.029.1.043.017.007.033.014.05.02.034.014.068.028.102.041.015.006.031.012.047.018.034.013.068.026.102.039.021.008.041.015.062.023.03.011.059.022.089.033.018.007.037.013.055.02.102.036.203.07.306.103.032.01.065.021.097.031.02.006.04.012.06.018.033.01.065.02.098.029.02.006.039.011.059.017.032.009.063.018.095.027.023.006.047.012.07.019.029.008.059.015.088.023.022.006.044.011.066.016.03.008.061.015.091.022.023.005.046.011.069.016.029.007.058.013.087.02.025.005.05.011.075.016.027.006.054.011.081.017.026.005.052.01.079.016.027.005.054.011.081.016.024.005.049.009.073.013.03.005.06.011.091.016.021.004.043.007.064.01l.093.015c.025.004.049.007.074.011.027.004.055.008.082.012.026.004.052.007.078.01.027.004.055.007.082.01.026.003.051.006.077.009.029.003.059.006.088.009.023.003.046.005.069.007.033.003.065.006.098.009.02.002.041.004.061.005.032.003.064.005.096.007.023.001.046.003.069.005.03.002.059.004.089.005.023.001.047.003.07.004.033.002.067.003.1.004.02.001.04.002.06.002l.102.003c.02 0 .04.001.06.001.053.001.107.001.16.001s.107 0 .16-.001c.02 0 .039-.001.059-.001.035-.001.069-.001.104-.003.02-.001.039-.002.059-.002.034-.001.068-.002.102-.004.023-.001.046-.003.068-.004.03-.002.06-.003.09-.005.025-.002.05-.003.075-.005.029-.002.057-.004.086-.007.025-.002.05-.004.075-.006.028-.003.056-.005.084-.008.027-.003.054-.005.081-.008.025-.003.051-.005.076-.008.029-.003.058-.007.087-.01.024-.003.048-.006.072-.009.029-.004.058-.008.087-.012.024-.003.048-.007.071-.01.029-.004.059-.009.089-.013.024-.004.048-.007.071-.011.029-.005.058-.009.087-.014.023-.004.045-.008.068-.012.031-.005.063-.011.094-.017.02-.004.039-.007.059-.011.033-.006.066-.013.099-.02.02-.004.039-.008.059-.012.032-.007.064-.013.096-.021.02-.005.041-.009.061-.014.033-.008.067-.015.1-.023.015-.003.029-.007.044-.011.038-.009.075-.018.113-.028.012-.003.023-.006.035-.009.041-.01.082-.021.122-.032.004-.001.007-.002.011-.003.452-.124.897-.28 1.331-.468.002-.001.004-.002.006-.003.045-.019.09-.039.134-.059.005-.002.01-.005.015-.007.043-.02.086-.04.129-.06.006-.003.012-.005.017-.008.041-.02.083-.039.124-.059.009-.004.017-.009.026-.013.04-.02.08-.04.12-.06.008-.004.015-.008.023-.012.04-.021.08-.041.12-.063.009-.005.018-.009.027-.014.038-.02.075-.04.113-.061.005-.003.009-.005.014-.008l139.929-77.454c3.182-1.761 5.157-5.112 5.157-8.749v-166.596c.001-.111-.001-.222-.005-.332zm-372.064 189.929-119.929-66.382v-143.734l2.848 1.576 117.081 64.807zm72.211-28.899-52.211 28.9v-143.733l52.211-28.9zm-62.211-132.157-119.28-66.024 119.28-66.025 119.281 66.025zm202.141 198.541-119.93-66.384v-143.733l119.93 66.384zm10-161.057-119.28-66.024 119.28-66.026 119.28 66.025zm129.929 94.673-119.929 66.384v-143.733l117.081-64.807 2.848-1.577z"/><path d="m428.03 186.601c-2.674-4.832-8.761-6.582-13.592-3.906l-52.369 28.988-52.369-28.988c-4.832-2.675-10.917-.926-13.592 3.906-2.674 4.833-.925 10.918 3.907 13.592l57.211 31.668c1.507.834 3.174 1.251 4.843 1.251 1.668 0 3.336-.417 4.843-1.251l57.212-31.668c4.832-2.675 6.581-8.76 3.906-13.592z"/><circle cx="322.01" cy="292.509" r="9.998"/><circle cx="109.87" cy="255.029" r="10"/></svg>