<svg enable-background="new 0 0 512 512" viewBox="0 0 512 512" xmlns="http://www.w3.org/2000/svg"><path d="m83.5 194.9 70.5-26.5v255.5l-40.9 33h-50.1l-50-27v-261.5zm102.5-95v325l48 32h40l46.3-26 10.1-331.2-74.4 26zm173 68.5v261.5l50 27h50.1l40.9-33v-255.5l-70.5 26.5z" fill="#ffcb3f"/><g fill="#2f3232"><path d="m256 29.7c-5.5 0-10 4.5-10 10v36.1c0 5.5 4.5 10 10 10s10-4.5 10-10v-36.1c0-5.6-4.5-10-10-10z"/><path d="m256 0c-5.5 0-10 4.5-10 10v.1c0 5.5 4.5 10 10 10s10-4.5 10-10v-.1c0-5.5-4.5-10-10-10z"/><path d="m216.8 39.5c-5.5 0-10 4.5-10 10v25.1c0 5.5 4.5 10 10 10s10-4.5 10-10v-25.1c0-5.5-4.5-10-10-10z"/><path d="m216.8 9.8c-5.5 0-10 4.5-10 10v.1c0 5.5 4.5 10 10 10s10-4.5 10-10v-.1c0-5.5-4.5-10-10-10z"/><path d="m295.2 39.5c-5.5 0-10 4.5-10 10v25.1c0 5.5 4.5 10 10 10s10-4.5 10-10v-25.1c0-5.5-4.5-10-10-10z"/><path d="m295.2 9.8c-5.5 0-10 4.5-10 10v.1c0 5.5 4.5 10 10 10s10-4.5 10-10v-.1c0-5.5-4.5-10-10-10z"/><path d="m428 99.7c-5.5 0-10 4.5-10 10v36.1c0 5.5 4.5 10 10 10s10-4.5 10-10v-36.1c0-5.6-4.5-10-10-10z"/><path d="m428 70c-5.5 0-10 4.5-10 10v.1c0 5.5 4.5 10 10 10s10-4.5 10-10v-.1c0-5.5-4.5-10-10-10z"/><path d="m388.8 109.5c-5.5 0-10 4.5-10 10v25.1c0 5.5 4.5 10 10 10s10-4.5 10-10v-25.1c0-5.5-4.5-10-10-10z"/><path d="m388.8 79.8c-5.5 0-10 4.5-10 10v.1c0 5.5 4.5 10 10 10s10-4.5 10-10v-.1c0-5.5-4.5-10-10-10z"/><path d="m467.1 109.5c-5.5 0-10 4.5-10 10v25.1c0 5.5 4.5 10 10 10s10-4.5 10-10v-25.1c0-5.5-4.4-10-10-10z"/><path d="m467.1 79.8c-5.5 0-10 4.5-10 10v.1c0 5.5 4.5 10 10 10s10-4.5 10-10v-.1c0-5.5-4.4-10-10-10z"/><path d="m502 492h-64v-23.5c13.9-1 40.2-5.4 56.9-24.1 20.7-23.2 17.3-59.3 16.1-67.8-.1-1.1-.3-2.2-.7-3.2-1.5-3.6-4.8-6-8.7-6.2-.1 0-.6 0-1.2 0 14.6-22.8 11.7-52.9 10.6-60.6-.1-1.1-.3-2.2-.7-3.2-1.5-3.6-4.8-6-8.7-6.2-.1 0-.5 0-1.2 0 14.5-22.8 11.6-52.8 10.6-60.5-.1-1.1-.3-2.2-.7-3.2-1.5-3.6-4.8-6-8.7-6.2-.1 0-.6 0-1.2 0 14.5-22.8 11.7-52.9 10.6-60.5-.1-1.1-.3-2.1-.7-3.1-1.4-3.6-4.9-6.1-8.7-6.3-1.8-.1-44.1-2.1-67.1 23.5-2.5 2.8-4.7 5.9-6.5 9-1.8-3.2-4-6.2-6.5-9-22.9-25.7-65.3-23.6-67.1-23.5-3.8.2-7.2 2.6-8.7 6.1-.4 1.1-.7 2.2-.8 3.3-1 7.5-4 37.7 10.6 60.6-.6 0-1.1 0-1.2 0-3.8.2-7.1 2.5-8.6 6-.5 1.1-.7 2.2-.8 3.3-1 7.5-4 37.7 10.6 60.6-.6 0-1 0-1.2 0-3.8.2-7.1 2.5-8.6 6-.5 1.1-.7 2.2-.8 3.3-1 7.5-4 37.7 10.6 60.7-.6 0-1.1 0-1.2 0-3.8.2-7.1 2.5-8.6 6-.5 1.1-.7 2.2-.8 3.3-1.2 8.3-4.7 44.7 16.1 67.9 16.8 18.7 43 23.1 56.8 24.1v23.4h-49.8c-5.5 0-10 4.5-10 10s4.5 10 10 10h134c5.5 0 10-4.5 10-10s-4.5-10-10-10zm-22-61c-11.4 12.7-30.6 16.3-41.7 17.3-.8-11.5-.2-31.7 11.2-44.4 4.8-5.4 11.2-9.1 17.8-11.6.4-.1.8-.3 1.1-.4 8.6-3.1 17.4-4.3 23.6-4.7.4 12.5-1.3 31.9-12 43.8zm0-70c-11.4 12.7-30.6 16.3-41.7 17.3-.8-11.5-.2-31.7 11.2-44.4 4.3-4.9 9.9-8.3 15.8-10.8 1.6-.5 3.2-1.1 4.8-1.8 8-2.7 16.1-3.7 22-4.1.3 12.4-1.4 31.8-12.1 43.8zm0-70c-5 5.6-11.5 9.4-18.2 12-.5.2-1.1.4-1.6.6-8 2.9-16.1 4.2-22 4.7-.8-11.5-.2-31.7 11.2-44.4 4.7-5.2 10.8-8.9 17.2-11.4.7-.3 1.4-.5 2.1-.8 8.4-3 17.1-4.1 23.2-4.5.5 12.5-1.2 31.9-11.9 43.8zm-30.6-97c11.4-12.7 31.2-15.9 42.5-16.7.5 12.4-1.2 31.8-12 43.8-11.4 12.7-30.6 16.3-41.7 17.3-.7-11.5-.1-31.7 11.2-44.4zm-85.3-16.7c11.3.8 31.1 4 42.5 16.7 8.8 9.9 11.1 24.3 11.4 35.6v4.2c0 1.6-.1 3.2-.2 4.6-11.1-1-30.4-4.6-41.7-17.3-10.8-12.1-12.5-31.5-12-43.8zm53.9 122.3v4.2c0 1.6-.1 3.2-.2 4.6-5.8-.5-13.8-1.8-21.8-4.7-.6-.2-1.2-.5-1.8-.7-6.7-2.6-13.1-6.4-18.1-12-10.7-12-12.5-31.4-12-43.7 11.3.8 31.2 4 42.5 16.7 8.8 9.8 11.1 24.3 11.4 35.6zm0 144.2c0 1.6-.1 3.2-.2 4.6-11.1-1-30.4-4.6-41.7-17.3-10.7-12-12.5-31.4-12-43.8 6.2.4 15 1.6 23.6 4.7.4.2.8.3 1.2.4 6.6 2.5 12.9 6.2 17.8 11.6 8.8 9.9 11.1 24.3 11.4 35.6zm0-70c0 1.6-.1 3.2-.2 4.6-11.1-1-30.4-4.6-41.7-17.3-10.7-12-12.5-31.4-12-43.7 6.1.4 14.6 1.6 22.9 4.5 1 .4 2 .8 3 1.1 6.2 2.5 12.1 6 16.6 11.1 8.8 9.9 11.1 24.3 11.4 35.6z"/><path d="m330.5 492h-.1c-5.5 0-10 4.5-10 10s4.5 10 10 10h.1c5.5 0 10-4.5 10-10s-4.5-10-10-10z"/><path d="m339 376.6c-.1-1.1-.3-2.2-.7-3.2-1.5-3.6-4.8-6-8.7-6.2-.1 0-.6 0-1.2 0 14.6-22.8 11.7-52.9 10.6-60.6-.1-1.1-.3-2.2-.7-3.2-1.5-3.6-4.8-6-8.7-6.2-.1 0-.5 0-1.2 0 14.5-22.8 11.6-52.8 10.6-60.5-.1-1.1-.3-2.2-.7-3.2-1.5-3.6-4.8-6-8.7-6.2-.1 0-.6 0-1.2 0 14.5-22.8 11.7-52.9 10.6-60.5-.1-1.1-.3-2.1-.7-3.1-1.4-3.6-4.9-6.1-8.7-6.3-.1 0-.5 0-1.2 0 14.5-22.8 11.7-52.9 10.6-60.5-.1-1.1-.3-2.1-.7-3.1-1.4-3.6-4.9-6.1-8.7-6.3-1.8-.1-44.1-2.1-67.1 23.5-2.5 2.8-4.7 5.9-6.5 9-1.8-3.2-4-6.2-6.5-9-23-26-65.3-24-67.1-23.9-3.9.2-7.3 2.7-8.7 6.3-.4 1-.6 2-.7 3-1 7.5-4 37.7 10.6 60.6-.6 0-1 0-1.2 0-3.9.2-7.3 2.7-8.7 6.3-.4 1-.6 2-.7 3-1 7.5-4 37.7 10.6 60.6-.6 0-1.1 0-1.2 0-3.9.2-7.2 2.6-8.7 6.2-.4 1-.7 2.1-.7 3.1-1 7.5-4 37.7 10.6 60.6-.6 0-1 0-1.2 0-3.9.2-7.2 2.6-8.7 6.2-.4 1-.7 2.1-.7 3.1-1 7.5-4 37.7 10.6 60.6-.6 0-1.1 0-1.2 0-3.9.2-7.2 2.6-8.7 6.2-.4 1-.7 2.1-.7 3.1-1.2 8.3-4.7 44.7 16.1 67.9 16.8 18.7 43 23.1 56.8 24.1v24h-30c-5.5 0-10 4.5-10 10s4.5 10 10 10h80c5.5 0 10-4.5 10-10s-4.5-10-10-10h-29.9v-23.5c13.9-1 40.2-5.4 56.9-24.1 20.7-23.2 17.3-59.3 16.1-67.8zm-93.2-138.2c-11.1-1-30.4-4.6-41.7-17.3-10.7-12-12.5-31.4-12-43.8 11.3.8 31.1 4 42.5 16.7 8.8 9.9 11.1 24.3 11.4 35.6v4.2c-.1 1.6-.2 3.1-.2 4.6zm.2 61.2v4.2c0 1.6-.1 3.2-.2 4.6-5.8-.5-13.9-1.8-21.9-4.7-.6-.2-1.1-.4-1.7-.6-6.7-2.6-13.2-6.4-18.2-12-10.7-12-12.5-31.4-12-43.7 11.3.8 31.2 4 42.5 16.7 8.9 9.7 11.2 24.2 11.5 35.5zm0 144.2c0 1.6-.1 3.2-.2 4.6-11.1-1-30.4-4.6-41.7-17.3-10.7-12-12.5-31.4-12-43.8 6.2.4 15 1.6 23.6 4.7.4.1.8.3 1.1.4 6.6 2.5 12.9 6.2 17.8 11.6 8.8 9.9 11.1 24.3 11.4 35.6zm0-70c0 1.6-.1 3.2-.2 4.6-11.1-1-30.4-4.6-41.7-17.3-10.7-12-12.5-31.4-12-43.7 6.1.4 14.6 1.6 22.9 4.5 1 .4 2 .8 3 1.1 6.2 2.5 12.1 6 16.6 11.1 8.8 9.9 11.1 24.3 11.4 35.6zm-.2-205.4c-11.1-1-30.4-4.6-41.7-17.3-10.7-12-12.5-31.4-12-43.7 11.3.8 31.2 4 42.5 16.7 11.3 12.6 11.9 32.8 11.2 44.3zm31.6-44.4c11.4-12.7 31.2-15.9 42.5-16.7.5 12.4-1.2 31.8-12 43.8-11.4 12.7-30.6 16.3-41.7 17.3-.7-11.5-.1-31.7 11.2-44.4zm0 70c11.4-12.7 31.2-15.9 42.5-16.7.5 12.4-1.2 31.8-12 43.8-11.4 12.7-30.6 16.3-41.7 17.3-.7-11.5-.1-31.7 11.2-44.4zm30.6 97c-5 5.6-11.5 9.4-18.2 12-.5.2-1 .4-1.5.6-8 2.9-16.1 4.2-22 4.7-.8-11.5-.2-31.7 11.2-44.4 4.7-5.2 10.8-8.9 17.2-11.4.7-.3 1.4-.5 2.1-.8 8.4-3 17.1-4.1 23.2-4.5.4 12.5-1.3 31.9-12 43.8zm0 140c-11.4 12.7-30.6 16.3-41.7 17.3-.8-11.5-.2-31.7 11.2-44.4 4.8-5.4 11.2-9.1 17.8-11.6.4-.1.8-.3 1.1-.4 8.6-3.1 17.4-4.3 23.6-4.7.4 12.5-1.3 31.9-12 43.8zm0-70c-11.4 12.7-30.6 16.3-41.7 17.3-.8-11.5-.2-31.7 11.2-44.4 4.3-4.9 9.9-8.3 15.8-10.8 1.6-.5 3.2-1.1 4.8-1.8 8-2.7 16.1-3.7 22-4.1.3 12.4-1.4 31.8-12.1 43.8z"/><path d="m180.1 492h-.1c-5.5 0-10 4.5-10 10s4.5 10 10 10h.1c5.5 0 10-4.5 10-10s-4.4-10-10-10z"/><path d="m143 492h-49.1v-23.5c13.9-1 40.2-5.4 56.9-24.1 20.7-23.2 17.3-59.4 16.1-67.8-.1-1.2-.3-2.3-.8-3.4-1.5-3.5-4.8-5.8-8.6-6-.1 0-.6 0-1.2 0 14.6-22.8 11.7-52.9 10.6-60.6-.1-1.2-.3-2.3-.8-3.4-1.5-3.5-4.8-5.8-8.6-6-.1 0-.5 0-1.2 0 14.5-22.8 11.6-52.9 10.6-60.5-.1-1.2-.3-2.3-.8-3.4-1.5-3.5-4.8-5.8-8.6-6-.1 0-.6 0-1.2 0 14.6-22.8 11.7-52.9 10.6-60.5-.1-1.1-.3-2.3-.8-3.3-1.5-3.5-4.8-5.9-8.7-6.1-1.8-.1-44.1-2.1-67.1 23.5-2.5 2.8-4.7 5.9-6.5 9-1.8-3.2-4-6.2-6.5-9-22.8-25.9-65.1-23.9-66.9-23.8-3.8.2-7.2 2.6-8.7 6.1-.4 1.1-.7 2.2-.8 3.3-1 7.5-4 37.7 10.6 60.6-.6 0-1.1 0-1.2 0-3.8.2-7.1 2.5-8.6 6-.5 1.1-.7 2.2-.8 3.3-1 7.5-4 37.7 10.6 60.6-.6 0-1 0-1.2 0-3.8.2-7.1 2.5-8.6 6-.5 1.1-.7 2.2-.8 3.3-1 7.5-4 37.7 10.6 60.7-.6 0-1.1 0-1.2 0-3.8.2-7.1 2.5-8.6 6-.5 1.1-.7 2.2-.8 3.3-1.2 8.3-4.7 44.7 16.1 67.9 16.8 18.7 43 23.1 56.8 24.1v23.7h-63.8c-5.5 0-10 4.5-10 10s4.5 10 10 10h133c5.5 0 10-4.5 10-10s-4.5-10-10-10zm-37.6-158.1c4.3-4.9 9.9-8.3 15.8-10.8 1.6-.5 3.2-1.1 4.8-1.8 8-2.7 16.1-3.7 22-4.1.5 12.4-1.2 31.8-12 43.8-11.4 12.7-30.6 16.3-41.7 17.3-.9-11.4-.3-31.7 11.1-44.4zm0-69.9c4.7-5.2 10.8-8.8 17.2-11.3.7-.3 1.5-.5 2.2-.8 8.4-3 17-4.1 23.2-4.5.5 12.4-1.2 31.8-12 43.8-5 5.6-11.5 9.4-18.1 12-.6.2-1.2.4-1.8.7-8 2.9-16 4.1-21.8 4.7-.9-11.7-.3-31.9 11.1-44.6zm30.5 167c-11.4 12.7-30.6 16.3-41.7 17.3-.8-11.5-.2-31.7 11.2-44.4 4.8-5.4 11.2-9.1 17.8-11.6.4-.1.8-.3 1.2-.4 8.6-3.1 17.4-4.3 23.6-4.7.4 12.5-1.3 31.9-12.1 43.8zm-30.5-237c11.4-12.7 31.2-15.9 42.5-16.7.5 12.4-1.2 31.8-12 43.8-11.4 12.7-30.6 16.3-41.7 17.3-.8-11.5-.2-31.7 11.2-44.4zm-85.4-16.7c11.3.8 31.2 4 42.5 16.7 8.8 9.9 11.1 24.3 11.4 35.6v4.2c0 1.6-.1 3.2-.2 4.6-11.1-1-30.4-4.6-41.7-17.3-10.7-12.1-12.5-31.4-12-43.8zm53.9 266.5c0 1.6-.1 3.2-.2 4.6-11.1-1-30.4-4.6-41.7-17.3-10.7-12-12.5-31.4-12-43.7 11.3.8 31.2 4 42.5 16.7 8.8 9.9 11.1 24.3 11.4 35.6zm0-70c0 1.6-.1 3.2-.2 4.6-11.1-1-30.4-4.6-41.7-17.3-10.7-12-12.5-31.4-12-43.8 5.8.4 13.9 1.4 21.9 4.1 1.6.7 3.2 1.3 4.8 1.8 5.9 2.5 11.4 5.9 15.8 10.8 8.8 9.9 11.1 24.3 11.4 35.6zm0-70c0 1.6-.1 3.2-.2 4.6-5.8-.5-13.9-1.8-21.8-4.7-.6-.2-1.2-.4-1.8-.7-6.7-2.6-13.1-6.4-18.1-12-10.7-12-12.5-31.4-12-43.8 6.1.4 14.7 1.6 23.2 4.5.7.3 1.5.6 2.2.8 6.4 2.5 12.5 6.1 17.1 11.3 8.8 9.9 11.1 24.3 11.4 35.6z"/><path d="m83.9 99.7c-5.5 0-10 4.5-10 10v36.1c0 5.5 4.5 10 10 10s10-4.5 10-10v-36.1c0-5.6-4.5-10-10-10z"/><path d="m83.9 70c-5.5 0-10 4.5-10 10v.1c0 5.5 4.5 10 10 10s10-4.5 10-10v-.1c0-5.5-4.5-10-10-10z"/><path d="m44.7 109.5c-5.5 0-10 4.5-10 10v25.1c0 5.5 4.5 10 10 10s10-4.5 10-10v-25.1c0-5.5-4.5-10-10-10z"/><path d="m44.7 79.8c-5.5 0-10 4.5-10 10v.1c0 5.5 4.5 10 10 10s10-4.5 10-10v-.1c0-5.5-4.5-10-10-10z"/><path d="m123.1 109.5c-5.5 0-10 4.5-10 10v25.1c0 5.5 4.5 10 10 10s10-4.5 10-10v-25.1c0-5.5-4.5-10-10-10z"/><path d="m123.1 79.8c-5.5 0-10 4.5-10 10v.1c0 5.5 4.5 10 10 10s10-4.5 10-10v-.1c0-5.5-4.5-10-10-10z"/></g></svg>