<svg enable-background="new 0 0 511.999 511.999" viewBox="0 0 511.999 511.999" xmlns="http://www.w3.org/2000/svg" fill="#2F3232"><path d="m255.954 29.668c-5.522 0-10 4.477-10 10v36.097c0 5.522 4.478 9.999 10 9.999s10-4.477 10-10v-36.096c-.001-5.523-4.478-10-10-10z"/><path d="m255.954.002c-5.522 0-10 4.477-10 10v.113c0 5.523 4.478 10 10 10s10-4.477 10-10v-.113c-.001-5.523-4.478-10-10-10z"/><path d="m216.755 39.49c-5.522 0-10 4.477-10 10v25.082c0 5.523 4.478 10 10 10s10-4.477 10-10v-25.082c-.001-5.523-4.479-10-10-10z"/><path d="m216.756 9.824c-5.522 0-10 4.477-10 10v.113c0 5.523 4.478 10 10 10s10-4.477 10-10v-.113c-.001-5.523-4.479-10-10-10z"/><path d="m295.154 39.49c-5.522 0-10 4.477-10 10v25.082c0 5.523 4.477 10 10 10 5.522 0 10-4.477 10-10v-25.082c0-5.523-4.478-10-10-10z"/><path d="m295.154 9.824c-5.522 0-10 4.477-10 10v.113c0 5.523 4.477 10 10 10 5.522 0 10-4.477 10-10v-.113c0-5.523-4.478-10-10-10z"/><path d="m427.95 99.665c-5.522 0-10 4.477-10 10v36.097c0 5.523 4.478 10 10 10s10-4.477 10-10v-36.097c0-5.523-4.478-10-10-10z"/><path d="m427.95 69.999c-5.522 0-10 4.477-10 10v.113c0 5.523 4.478 10 10 10s10-4.477 10-10v-.113c0-5.523-4.478-10-10-10z"/><path d="m388.751 109.487c-5.522 0-10 4.477-10 10v25.082c0 5.523 4.478 10 10 10s10-4.477 10-10v-25.082c0-5.523-4.478-10-10-10z"/><path d="m388.752 79.82c-5.522 0-10 4.477-10 10v.113c0 5.523 4.478 10 10 10s10-4.477 10-10v-.113c0-5.523-4.478-10-10-10z"/><path d="m467.15 109.487c-5.522 0-10 4.477-10 10v25.082c0 5.523 4.477 10 10 10 5.522 0 10-4.477 10-10v-25.082c0-5.523-4.478-10-10-10z"/><path d="m467.15 79.82c-5.522 0-10 4.477-10 10v.113c0 5.523 4.477 10 10 10 5.522 0 10-4.477 10-10v-.113c0-5.523-4.478-10-10-10z"/><path d="m502 491.992h-64.05v-23.474c13.863-.974 40.153-5.374 56.946-24.138 20.71-23.156 17.278-59.314 16.112-67.799-.059-1.091-.298-2.183-.725-3.229-1.458-3.58-4.849-5.999-8.709-6.212-.145-.008-.562-.029-1.209-.046 14.573-22.822 11.693-52.915 10.643-60.558-.059-1.091-.298-2.183-.725-3.229-1.458-3.58-4.849-5.999-8.709-6.212-.142-.008-.538-.028-1.157-.045 14.512-22.81 11.64-52.839 10.591-60.473-.059-1.091-.298-2.183-.725-3.229-1.458-3.58-4.849-5.999-8.709-6.212-.144-.008-.556-.029-1.197-.046 14.543-22.808 11.676-52.895 10.631-60.533-.057-1.057-.282-2.115-.685-3.134-1.435-3.631-4.851-6.095-8.749-6.311-1.786-.1-44.112-2.13-67.052 23.521-2.534 2.833-4.682 5.874-6.522 9.035-1.84-3.162-3.987-6.203-6.521-9.035h.001c-22.941-25.652-65.268-23.622-67.052-23.521-3.813.211-7.168 2.58-8.654 6.097-.444 1.051-.698 2.151-.768 3.254-1.035 7.481-3.986 37.723 10.618 60.627-.641.017-1.052.038-1.196.046-3.775.209-7.104 2.534-8.613 6.001-.469 1.078-.735 2.21-.809 3.346-1.037 7.479-3.994 37.661 10.578 60.569-.619.017-1.015.037-1.156.045-3.775.209-7.104 2.534-8.613 6.001-.469 1.078-.735 2.21-.809 3.346-1.039 7.488-4.003 37.735 10.63 60.653-.647.018-1.063.039-1.208.047-3.775.209-7.104 2.534-8.613 6.001-.469 1.078-.735 2.21-.809 3.346-1.152 8.309-4.688 44.653 16.102 67.897 16.756 18.724 42.968 23.145 56.841 24.131v23.48h-49.947c-5.522 0-10 4.477-10 10s4.478 10 10 10h133.997c5.522 0 10-4.477 10-10 0-5.525-4.476-10.007-9.999-10.007zm-22.01-60.947c-11.352 12.685-30.613 16.313-41.737 17.335-.754-11.455-.174-31.698 11.178-44.39 4.837-5.408 11.204-9.085 17.791-11.599.376-.139.752-.276 1.129-.42 8.563-3.085 17.375-4.258 23.602-4.678.49 12.37-1.248 31.772-11.963 43.752zm.001-70.047c-11.352 12.685-30.613 16.313-41.737 17.335-.754-11.455-.174-31.698 11.178-44.39 4.346-4.859 9.927-8.323 15.793-10.801 1.579-.539 3.168-1.131 4.756-1.778 8.039-2.666 16.14-3.724 21.973-4.117.489 12.371-1.248 31.772-11.963 43.751zm-.001-69.96c-4.989 5.575-11.505 9.398-18.188 12.022-.529.19-1.06.385-1.59.586-8.015 2.915-16.112 4.19-21.96 4.728-.754-11.455-.174-31.698 11.178-44.39 4.69-5.245 10.822-8.854 17.197-11.361.71-.256 1.42-.521 2.131-.798 8.434-2.976 17.065-4.125 23.194-4.538.49 12.371-1.247 31.771-11.962 43.751zm-30.559-97.077c11.38-12.725 31.213-15.935 42.521-16.697.489 12.371-1.247 31.771-11.962 43.751-11.352 12.685-30.614 16.312-41.737 17.335-.755-11.454-.175-31.697 11.178-44.389zm-85.379-16.697c11.309.762 31.143 3.973 42.521 16.697 8.817 9.858 11.134 24.269 11.377 35.581v4.231c-.035 1.638-.107 3.175-.199 4.579-11.107-1.021-30.38-4.646-41.735-17.335-10.716-11.98-12.453-31.382-11.964-43.753zm53.898 122.307v4.226c-.035 1.638-.107 3.175-.199 4.579-5.801-.533-13.829-1.793-21.793-4.667-.614-.235-1.229-.46-1.843-.679-6.651-2.623-13.133-6.439-18.1-11.989-10.709-11.973-12.451-31.353-11.965-43.724 11.328.795 31.23 4.042 42.522 16.668h.001c8.818 9.857 11.135 24.272 11.377 35.586zm.001 144.232c-.036 1.638-.108 3.175-.2 4.579-11.107-1.021-30.38-4.646-41.735-17.335-10.717-11.982-12.454-31.383-11.964-43.753 6.222.419 15.025 1.592 23.58 4.671.396.152.79.296 1.185.441 6.576 2.513 12.929 6.186 17.757 11.585h.001c8.817 9.858 11.134 24.272 11.376 35.586zm0-70.047c-.035 1.638-.107 3.175-.199 4.579-11.107-1.021-30.38-4.646-41.735-17.335-10.71-11.972-12.452-31.352-11.966-43.724 6.053.425 14.553 1.568 22.88 4.45 1.012.399 2.022.78 3.031 1.135 6.181 2.493 12.089 6.026 16.612 11.083 8.818 9.858 11.135 24.272 11.377 35.586z"/><path d="m330.476 491.992h-.13c-5.522 0-10 4.477-10 10s4.478 10 10 10h.13c5.522 0 10-4.477 10-10 0-5.524-4.478-10-10-10z"/><path d="m339.011 376.58c-.059-1.091-.298-2.183-.725-3.229-1.458-3.58-4.849-5.999-8.709-6.212-.145-.008-.562-.029-1.209-.046 14.573-22.822 11.693-52.915 10.643-60.558-.059-1.091-.298-2.183-.725-3.229-1.458-3.58-4.849-5.999-8.709-6.212-.141-.008-.538-.028-1.157-.045 14.512-22.81 11.64-52.839 10.591-60.473-.059-1.091-.298-2.183-.725-3.229-1.458-3.58-4.849-5.999-8.709-6.212-.144-.008-.556-.029-1.197-.046 14.544-22.808 11.676-52.895 10.631-60.533-.057-1.057-.282-2.115-.685-3.134-1.435-3.631-4.851-6.095-8.749-6.311-.142-.008-.544-.028-1.171-.045 14.528-22.814 11.654-52.858 10.604-60.496-.058-1.056-.283-2.113-.685-3.13-1.435-3.631-4.851-6.095-8.749-6.311-1.786-.099-44.112-2.13-67.052 23.52-2.534 2.833-4.682 5.874-6.522 9.035-1.84-3.162-3.987-6.203-6.521-9.035h.001c-22.938-25.649-65.265-23.617-67.053-23.521-3.898.216-7.31 2.686-8.743 6.317-.391.988-.614 2.013-.679 3.04-1.039 7.499-3.989 37.681 10.593 60.58-.627.018-1.029.038-1.171.046-3.898.216-7.31 2.686-8.743 6.317-.391.989-.615 2.016-.679 3.043-1.035 7.496-3.979 37.723 10.619 60.618-.641.018-1.053.038-1.197.046-3.86.213-7.246 2.638-8.704 6.218-.414 1.017-.651 2.077-.718 3.138-1.039 7.493-3.987 37.661 10.579 60.56-.619.017-1.016.037-1.157.045-3.86.213-7.246 2.638-8.704 6.218-.414 1.017-.651 2.077-.718 3.138-1.04 7.502-3.996 37.735 10.631 60.644-.647.018-1.064.039-1.209.047-3.86.213-7.246 2.638-8.704 6.218-.414 1.017-.651 2.077-.718 3.137-1.154 8.326-4.679 44.653 16.103 67.889 16.755 18.723 42.968 23.144 56.841 24.131v23.479h-29.951c-5.522 0-10 4.477-10 10s4.478 10 10 10h80.006c5.522 0 10-4.477 10-10s-4.475-10.006-9.998-10.006h-30.055v-23.474c13.863-.974 40.153-5.374 56.946-24.138 20.71-23.155 17.278-59.313 16.112-67.799zm-93.256-138.228c-11.107-1.022-30.381-4.647-41.735-17.335-10.716-11.981-12.453-31.382-11.964-43.753 11.309.763 31.143 3.973 42.521 16.697 8.817 9.858 11.134 24.268 11.377 35.581v4.231c-.035 1.638-.107 3.175-.199 4.579zm.199 61.218v4.226c-.035 1.638-.107 3.175-.199 4.579-5.834-.536-13.918-1.808-21.926-4.716-.552-.21-1.104-.413-1.656-.61-6.67-2.622-13.174-6.443-18.154-12.008-10.709-11.973-12.451-31.353-11.965-43.724 11.329.795 31.231 4.043 42.522 16.668h.001c8.818 9.857 11.135 24.272 11.377 35.585zm0 144.232c-.035 1.638-.107 3.176-.199 4.58-11.108-1.021-30.381-4.646-41.735-17.335-10.716-11.981-12.453-31.383-11.964-43.753 6.226.42 15.036 1.593 23.596 4.676.382.147.764.286 1.146.427 6.583 2.513 12.946 6.189 17.779 11.594h.001c8.817 9.858 11.134 24.272 11.376 35.585zm.001-70.047c-.035 1.638-.107 3.175-.199 4.579-11.108-1.021-30.381-4.646-41.735-17.335-10.71-11.971-12.452-31.351-11.966-43.723 6.057.425 14.562 1.569 22.893 4.454 1 .394 2 .771 2.997 1.122 6.189 2.493 12.106 6.029 16.633 11.092 8.818 9.858 11.135 24.272 11.377 35.585zm-.201-205.381c-11.1-1.015-30.361-4.632-41.734-17.342-10.709-11.971-12.451-31.351-11.965-43.722 11.329.795 31.231 4.042 42.522 16.667 11.354 12.694 11.932 32.945 11.177 44.397zm31.68-44.396c11.38-12.725 31.213-15.934 42.521-16.696.49 12.37-1.247 31.771-11.962 43.75-11.372 12.709-30.63 16.327-41.736 17.343-.754-11.453-.177-31.704 11.177-44.397zm0 69.982c11.38-12.725 31.213-15.935 42.521-16.697.49 12.372-1.247 31.772-11.962 43.752-11.352 12.685-30.614 16.312-41.737 17.335-.755-11.454-.174-31.697 11.178-44.39zm30.56 97.078c-4.995 5.582-11.522 9.407-18.213 12.031-.505.182-1.011.368-1.517.56-8.031 2.927-16.148 4.207-22.008 4.745-.754-11.455-.174-31.698 11.178-44.39 4.69-5.245 10.822-8.854 17.197-11.361.71-.256 1.42-.521 2.131-.798 8.434-2.976 17.065-4.125 23.193-4.538.49 12.371-1.247 31.771-11.961 43.751zm0 140.007c-11.352 12.685-30.613 16.313-41.737 17.335-.754-11.455-.174-31.698 11.178-44.39 4.837-5.408 11.204-9.085 17.791-11.599.376-.139.752-.276 1.129-.42 8.563-3.085 17.375-4.258 23.603-4.678.488 12.37-1.25 31.772-11.964 43.752zm.001-70.047c-11.352 12.685-30.613 16.313-41.737 17.335-.754-11.455-.174-31.698 11.178-44.39 4.346-4.859 9.927-8.323 15.793-10.801 1.579-.539 3.168-1.131 4.756-1.778 8.039-2.666 16.14-3.724 21.973-4.117.488 12.371-1.249 31.772-11.963 43.751z"/><path d="m180.137 491.992h-.13c-5.522 0-10 4.477-10 10s4.478 10 10 10h.13c5.522 0 10-4.477 10-10 0-5.524-4.478-10-10-10z"/><path d="m143.008 491.991h-49.103v-23.474c13.863-.974 40.152-5.373 56.946-24.139 20.72-23.167 17.275-59.35 16.111-67.812-.064-1.166-.333-2.328-.814-3.435-1.509-3.467-4.843-5.786-8.618-5.995-.145-.008-.562-.029-1.209-.046 14.582-22.833 11.691-52.947 10.642-60.571-.064-1.165-.333-2.328-.814-3.434-1.509-3.467-4.843-5.786-8.618-5.995-.142-.008-.538-.028-1.157-.045 14.519-22.822 11.636-52.87 10.588-60.484-.064-1.165-.333-2.328-.814-3.435-1.509-3.467-4.843-5.786-8.618-5.995-.145-.008-.556-.029-1.197-.046 14.552-22.82 11.674-52.928 10.63-60.545-.063-1.131-.318-2.262-.774-3.341-1.486-3.517-4.847-5.881-8.659-6.092-1.784-.1-44.112-2.13-67.052 23.52-2.534 2.833-4.683 5.873-6.522 9.033-1.84-3.161-3.987-6.201-6.52-9.033-22.938-25.652-65.27-23.621-67.052-23.52-3.813.211-7.168 2.58-8.654 6.097-.444 1.051-.698 2.151-.768 3.254-1.035 7.481-3.986 37.722 10.619 60.627-.641.018-1.053.038-1.197.046-3.775.209-7.104 2.534-8.613 6.001-.469 1.078-.736 2.21-.809 3.346-1.037 7.479-3.994 37.661 10.579 60.568-.619.017-1.016.037-1.157.045-3.775.209-7.104 2.534-8.613 6.001-.469 1.078-.736 2.21-.809 3.346-1.039 7.488-4.002 37.735 10.631 60.652-.647.018-1.064.039-1.209.047-3.775.209-7.104 2.534-8.613 6.001-.469 1.078-.735 2.21-.809 3.346-1.152 8.309-4.687 44.652 16.103 67.897 16.755 18.724 42.967 23.145 56.84 24.131v23.48h-63.894c-5.522 0-10 4.477-10 10s4.478 10 10 10h132.997c5.522 0 10-4.477 10-10 0-5.525-4.478-10.001-10-10.001zm-37.623-158.047c4.342-4.855 9.917-8.318 15.777-10.795 1.593-.544 3.193-1.139 4.792-1.792 8.033-2.661 16.126-3.717 21.954-4.11.489 12.371-1.248 31.771-11.963 43.751-11.354 12.688-30.618 16.314-41.74 17.336-.76-11.45-.184-31.686 11.18-44.39zm0-69.961c4.682-5.235 10.799-8.841 17.16-11.347.73-.263 1.461-.536 2.193-.821 8.427-2.97 17.047-4.116 23.17-4.529.489 12.37-1.248 31.771-11.963 43.751-4.971 5.555-11.458 9.373-18.115 11.996-.596.213-1.192.432-1.788.659-7.977 2.884-16.021 4.147-21.838 4.681-.759-11.449-.183-31.686 11.181-44.39zm30.56 167.062c-11.354 12.688-30.619 16.314-41.74 17.336-.759-11.45-.183-31.686 11.181-44.39 4.834-5.405 11.196-9.081 17.779-11.594.383-.141.767-.281 1.15-.428 8.56-3.082 17.368-4.255 23.594-4.675.488 12.369-1.249 31.771-11.964 43.751zm-30.56-237.084c11.38-12.725 31.214-15.935 42.522-16.697.489 12.371-1.248 31.771-11.963 43.751-11.354 12.688-30.619 16.314-41.741 17.336-.757-11.449-.182-31.685 11.182-44.39zm-85.379-16.668c11.329.795 31.232 4.042 42.522 16.668h.001c8.816 9.858 11.133 24.269 11.376 35.581v4.231c-.035 1.638-.107 3.175-.199 4.579-11.107-1.021-30.38-4.646-41.734-17.335-10.708-11.971-12.451-31.353-11.966-43.724zm53.899 266.51c-.035 1.638-.106 3.175-.199 4.579-11.107-1.021-30.38-4.646-41.734-17.335-10.709-11.973-12.452-31.353-11.966-43.724 11.329.795 31.232 4.042 42.522 16.668h.001c8.817 9.858 11.134 24.272 11.376 35.586zm0-70.047c-.035 1.638-.107 3.175-.199 4.579-11.107-1.021-30.38-4.646-41.734-17.335-10.717-11.981-12.454-31.382-11.965-43.753 5.825.393 13.912 1.448 21.94 4.106 1.608.656 3.217 1.255 4.817 1.801 5.856 2.477 11.426 5.938 15.765 10.79h.001c8.817 9.858 11.134 24.272 11.376 35.586v4.226zm.001-69.959c-.035 1.638-.107 3.175-.199 4.579-5.815-.535-13.867-1.8-21.85-4.688-.592-.226-1.184-.443-1.775-.654-6.655-2.622-13.142-6.44-18.111-11.993-10.717-11.981-12.454-31.382-11.965-43.753 6.12.413 14.736 1.559 23.159 4.525.741.289 1.481.566 2.22.832 6.355 2.506 12.466 6.11 17.143 11.34h.001c8.817 9.858 11.134 24.273 11.376 35.586v4.226z"/><path d="m83.905 99.665c-5.522 0-10 4.477-10 10v36.097c0 5.523 4.477 10 10 10 5.522 0 10-4.477 10-10v-36.097c0-5.523-4.478-10-10-10z"/><path d="m83.906 69.999c-5.522 0-10 4.477-10 10v.113c0 5.523 4.477 10 10 10 5.522 0 10-4.477 10-10v-.113c0-5.523-4.478-10-10-10z"/><path d="m44.706 109.487c-5.522 0-10 4.477-10 10v25.082c0 5.523 4.478 10 10 10s10-4.477 10-10v-25.082c0-5.523-4.478-10-10-10z"/><path d="m44.706 79.82c-5.522 0-10 4.477-10 10v.113c0 5.523 4.478 10 10 10s10-4.477 10-10v-.113c0-5.523-4.478-10-10-10z"/><path d="m123.105 109.487c-5.522 0-10 4.477-10 10v25.082c0 5.523 4.477 10 10 10 5.522 0 10-4.477 10-10v-25.082c-.001-5.523-4.479-10-10-10z"/><path d="m123.105 79.82c-5.522 0-10 4.477-10 10v.113c0 5.523 4.477 10 10 10 5.522 0 10-4.477 10-10v-.113c-.001-5.523-4.479-10-10-10z"/></svg>