<?xml version="1.0" encoding="utf-8"?>
<!-- Generator: Adobe Illustrator 19.2.0, SVG Export Plug-In . SVG Version: 6.00 Build 0)  -->
<svg version="1.1" id="Layer_1" xmlns="http://www.w3.org/2000/svg" xmlns:xlink="http://www.w3.org/1999/xlink" x="0px" y="0px"
	 viewBox="0 0 127.8 127.8" style="enable-background:new 0 0 127.8 127.8;" xml:space="preserve">
<style type="text/css">
	.st0{fill-rule:evenodd;clip-rule:evenodd;fill:#FFFFFF;}
</style>
<title>flower2</title>
<path class="st0" d="M123.3,76.6c-4.4,2-16.1-1.1-8.9-5.3C118.4,68.5,134,71.6,123.3,76.6z M114.2,74 M114.4,71.3 M112.3,58.6
	C112.7,58.7,113.4,58.9,112.3,58.6C112,58.5,112.1,58.5,112.3,58.6c-1.9-0.6,8.9-9,12.2-2.9C127.8,61.8,114.8,59.3,112.3,58.6z
	 M105.3,56.3c-2.1,0.7-10.9,1.6-11.9-1.4c-0.9-2.3,7.7-8.5,9.9-8.2c3.3-2.8,11.7,0.5,8.6,5.4C111.1,53.3,107.1,55.7,105.3,56.3z
	 M106.3,47.7 M103.5,46.5c0.1-0.1,0.3-0.2,0.3-0.3C103.7,46.3,103.6,46.4,103.5,46.5z M103.3,46.7c0.1-0.1,0.1-0.1,0.2-0.1
	C103.4,46.6,103.3,46.7,103.3,46.7z M105,42.8c-1.2,0.4-7.6,1.6-4.9-1.6c-0.2,0.3-0.4,0.5,0,0c2.7-3.3,3-7.8,8.1-9.2
	c1.1-0.3,8.1-1.1,5.8,2.2C112.6,38.3,109.2,41.4,105,42.8z M100,31.6C100.2,31.8,100.3,32,100,31.6C99.7,30.9,99.9,31.3,100,31.6
	c-3.9-6.8,14.6-17.3,9.8-6.6C109.5,25.7,101.4,34,100,31.6z M103.4,29.4 M108.1,26.6 M108.1,26.6 M98,42.3
	c-2.6,6.9-6.2,9.3-12.8,13.3c0.4-0.2,2.1-1.3-0.1,0c0,0,0,0,0,0c-4.5,2.7-5.2,0.9-3.9-4.2c1.9-7.2,6.6-12.5,14.3-14.7
	C102.8,34.6,99.6,38.1,98,42.3z M82.6,56.2 M85.1,29.6c4.9-8.2,17.6-9.2,9.8,2.4C90.2,39,78.3,41,85.1,29.6z M85.1,29.6 M90,16.9
	C90,17.1,89.7,17.9,90,16.9C90,16.9,90,16.9,90,16.9c1.6-4.3,7.4-12.6,8.4-5C99.4,18.9,87,25,90,16.9z M74.8,30.7
	c-2.5,0.8-1.7,10.9-7.3,10.1c-2.9-0.4-3.5-7.6-3.5-9.9c0-2.1,1.8-12.9,4.6-13.3c2-0.3,6.2,10.6,6.3,10.5c1.7-1.1,0.6-3.9,1.6-5.2
	c0.1,0,5.1-11.7,8.2-10.4c3.4,1.4,2,9,1,11.6C85,25.8,76.9,37.7,74.8,30.7z M70.6,3.6c4.4-6.8,7.9,4.9,6.3,9.3
	C73,24.1,66.8,9.4,70.6,3.6z M70.6,3.6 M58.1,30.1c-2-0.9-3.1-11.8-2.1-14.3c0.7-1.7,0-0.1,0,0c0.8-2,0.7-8.7,4.2-7.9
	c1.8,0.4,3,6.6,3.2,7.6C64.1,18.4,63.5,32.5,58.1,30.1z M46.6,34.1c-4.3,1.5-9-11.3-8.2-14.5c0.2-0.8,0.1-0.4,0,0
	c0.8-3-1.2-7.9,4.1-6.9c0.2,0,1.9,1.7,2.2,1.8c2.5,1,3.1,2.5,4.2,4.5C50.6,22,51.3,32.5,46.6,34.1z M38.4,19.6
	C38.4,19.6,38.4,19.6,38.4,19.6C38,21,38.3,20.2,38.4,19.6z M47.4,12.7c-1.4-2.7-3.2-7.2-1-10c2.7-3.3,6.6-1.6,8,2.1
	C56.2,9.6,48.4,18.6,47.4,12.7z M47.4,12.7 M42.5,47.9c-2.4-0.1-6.9-6.2-7.7-7.9c-1.7-3.6-1.7-7.1-1.2-11c2.9,1.1,11.2,6.1,12.8,8.6
	C48.5,41,49.1,52.5,42.5,47.9z M37,34.4 M19.7,21.9C20.3,20.5,19.8,21.6,19.7,21.9c2.2-5.3-0.3-9.4,6.7-4.7
	c4.1,2.8,5.7,5.9,5.5,10.8C31.2,42.3,17.1,28.3,19.7,21.9z M19.7,21.9C19.7,21.9,19.7,21.9,19.7,21.9C19.6,22,19.7,22,19.7,21.9z
	 M16.5,32.4C16.7,32.4,16.9,32.3,16.5,32.4C16.1,32.6,16.3,32.5,16.5,32.4c-3.8,1.4-7-5.9-2.4-6.9C17.7,24.7,18.4,31.7,16.5,32.4z
	 M16.3,47.4c2.3,6.4-9,2.4-11-0.6C1.2,41.1,14,41.2,16.3,47.4z M13.5,57.3c-3.4,0.4-16.7-2.3-10-6.4C8.1,48.2,16.7,56.9,13.5,57.3z
	 M13.5,57.3 M5.8,61.3c5.5-1.2,14.4-0.1,17.7,5.3c3.6,5.8-4.9,3.2-8.5,5.4c-1.3,0.6-0.4,0.2-0.1,0c-3.8,1.7-8.2-1.3-10.7-3.6
	c0.9,0.8-2.8-5.9-3.1-4.2C1.2,62.3,3,62,5.8,61.3z M1,64.3c0,0.2,0,0.3,0,0.5C1,64.5,1,64.4,1,64.3z M13.9,79
	c3.2-0.8,8.7-0.6,11.5,1.7c5,4.1,0.7,4.7-3.9,6.5C15.6,94.1-7.3,84.3,13.9,79z M18.8,79.3 M21.5,87.2 M21.6,92.3
	C21.4,92.3,21.1,92.3,21.6,92.3C21.8,92.3,21.8,92.3,21.6,92.3c2.4,0-5.8,6.3-6.7,6.6c-1,0.4-8.3,1.7-9.3,0.7
	C0.6,94.9,19,92.3,21.6,92.3z M23,101.5c3.6,0.6-7.6,10.9-9.3,6.8C12,104.2,20.5,101.1,23,101.5z M23,101.5 M25.3,92.3
	c2.1-5.6,5.6-8.9,11.2-10.5c3.3-1,8.1-3.4,8.2-0.2c0.1,2.5-5.3,9.8-7.1,10.9c0,0,7.6-2.8,5.3,0.4c-0.9,1.2-0.1,0.2,0,0
	c-1.6,2.3-0.7,5.6-2.2,8.1c-1.4,2.5-4.5,4.8-7,6.3c-0.7,0.4-5.8,3.7-6.5,3.3c-4.3-2.4,8.3-14.2,7.6-16.9
	C29.7,96.4,22.2,100.7,25.3,92.3z M31.8,94.4 M38.3,110C38.5,109.9,38.4,109.9,38.3,110c3.6-2.6,1.1,5.2,0.7,5.9
	c-1,1.7-2.2,3.6-4.2,4.4C26.2,123.6,35.3,112.1,38.3,110C37.8,110.4,36.7,111.2,38.3,110z M23.4,73.5c2.3-5.2,17-6.3,21.9-5.5
	c10.7,1.8,5.3,4.8-1.9,9.1c-2.6,1.5-0.7,0.4,0,0C40.6,78.7,20.1,80.7,23.4,73.5z M31.9,65.6c-4,0.3-6.5-0.2-9.5-2.8
	c-1-0.9-6.7-6.7-5.6-8.3c-0.1-0.4-0.3-0.9-0.4-1.3c0.2-0.4,7.8-0.9,8.8-0.8c5,0.9,8,4.2,10.8,8.2C39.2,65.3,38.3,65.1,31.9,65.6z
	 M27.6,64.2 M31.2,63.5 M31.9,48.5C31.9,48.5,31.9,48.5,31.9,48.5C32.3,48.5,32.1,48.5,31.9,48.5z M31.9,48.5
	c-4.5-0.6-9.3-0.1-12.5-3.4c-1.2-1.2-4.5-7-3.2-8.9C21.6,27.5,37.3,49.2,31.9,48.5C31,48.4,31.5,48.4,31.9,48.5z M54.1,26.6
	c1.9,0.1,0.8,3.1,1.4,3.8c1.9,2.1,4.3,3.4,6.1,5.6c1.7,2,3,4.6,3,7.4c0,4-1.5,11.5-6.4,10.3c-1.8-0.4-5.1-4.2-5.6-6
	C50.8,44.9,49.9,26.3,54.1,26.6z M55.3,36.8 M55.2,41.6 M52.6,47.8 M81.3,30.3 M46,94.2c-0.2-7.2,1.4-15,6.7-20.2
	c3.6-3.5,8.4-4.5,11-8.6c-2-1-6.1,0.7-8.4,0.7c-7.2,0.2-11-2.7-16.1-7.3c-3-2.7-8.1-4.2-4.1-7.4c2.6-2,10.8-0.3,13.6,0.3
	c6.2,1.4,11.4,7,17.3,7.3c-3.6-5.8,0.8-13.1,4.8-17.4c5.1-5.6,12.1-11.1,9.6,1c-0.7,3.5-1.6,8.2-3.4,11.4c-1.1,2-3.1,4.3-4.9,5.7
	c-1.3,1.1-5,1.9-5.8,2.7c-1.8,1.7-2.5,3.2,0.9,3.6c4.1,0.4,9.1-4.5,12.5-5.9c4.1-1.8,7-2.2,11.4-1.8c1.4,0.1,8.4,1.3,9.1,2.8
	c1.9,4-13,8.6-17.9,9.6c-1.8,0.1-5.4,0.2-5.2,0.1c-2.2,1.5,0.4,0.9-0.5,3.5c10.2,1.3,12.4,15.5,7.3,22.3c-1.4-4.2-11-4.4-13.6-9.2
	c-2.5-4.7,0.2-9.5-0.9-14.1c0.2,0-8.5,14.4-10.4,16c-1,0.9-10.4,8-11.2,7c-0.6-0.7,1-3.7-0.4-4C46.3,92.2,46.7,93.9,46,94.2z
	 M50,58.1 M54.6,58.5 M75.9,45.8 M59.7,79.4 M81.1,71c0.3,0,0.7-0.1,1.2-0.2C83.6,70.7,83.9,70.7,81.1,71z M55.5,95.9
	c1.4,0.7,2.4,4.8,1.7,5.8c-0.7,2.9-7.3,12.2-11.5,10.8c-4.1-1.3-0.7-9.3,0.9-11.4C47.2,100.4,54,95.2,55.5,95.9z M51.1,105.6
	 M57.2,101.8 M58.6,109.3c0.7,3.5-3.1,17-8.2,13.5C44.3,118.5,57.6,104.4,58.6,109.3z M58.6,109.3 M65.8,87.2
	c3.9,2.3,4.4,8.5,3.6,12.8c-0.2,5.1-4.5,7.5-6.8,11.4c-3.9-2.7-2.3-12.6-1.1-16.1C62.5,92.6,65.5,89.9,65.8,87.2z M69.5,100
	 M70.2,115.2c-0.4,1.7-2.6,11.8-6,11.8c-2.9-0.1-2.8-8.2-2.5-9.8C63,110.9,72.3,106.1,70.2,115.2z M70.2,115.2 M74,96.6
	c2.8-1.3,7.8,5.6,7.5,8.1c0,0,0,0,0,0c-0.5,3.4,0,12-4.2,11.7c-4.3-0.3-5.9-8.1-5.8-11C71.6,103.8,72.3,97.4,74,96.6z M85.9,97.2
	c4.8-6.8,6.7-0.1,7.9,4.6c1,3.7,0.5,6.8-0.1,10.5c-2.1-0.2-6.8-5.9-7.7-7.5C83.6,100.7,84.1,99.7,85.9,97.2z M93.8,101.8 M91.7,89.3
	c0.4-6.3,3.9-7.5,8.6-4.3c5.1,3.5,5.4,8.7,6.1,14.3c0.1,1.1,0.1,0.8,0,0.5c0.6,9.7-3,6.8-8.3,0.9C94.8,96.9,91.4,95.1,91.7,89.3z
	 M102.5,89.6 M103.8,62.3c4.3-3.1,15.5-0.4,13,5.4c-2.2,5.1-12.6,4.4-15.6,1.1C99.3,66.6,99,63,103.8,62.3z M112.5,68
	C112.4,68,112.7,67.9,112.5,68C112.5,68,112.5,68,112.5,68C112.5,68,112.4,68,112.5,68L112.5,68C112.4,68,112.5,68,112.5,68z
	 M92.1,70.1c2.1-0.1,17.8,4.1,17.8,5.6c0,4.2-11.5,5.3-14,4.9c-2.7-0.4-10.9-3-11.8-5.7c0.1,0.2,0.1,0.3,0,0c-0.1-0.3-0.1-0.2,0,0
	C83.5,72.9,90.1,70.3,92.1,70.1z M106.2,83.9c2-5.6,11.7-0.3,14.2,1.8c-0.2-0.2-0.5-0.4,0,0c0.6,0.5,0.3,0.2,0,0
	C124.8,89.3,103,92.6,106.2,83.9z"/>
</svg>
