<?xml version="1.0" encoding="utf-8"?>
<svg xmlns="http://www.w3.org/2000/svg" viewBox="0 0 127.69 124.4"><defs><style>.a{fill:#fff;}</style></defs><title>flower1</title><path class="a" d="M66.95,106.11c-0.4-8.14-4-19.48,1.69-26.23L83.91,96.43,72.71,76.2l0.06-.07c5.09-6,29.05,8.48,33.37,11.41,15.42,10.56,1.14,21.94-2.27,36.77C85,123.09,68.15,130.35,66.95,106.11ZM101.41,75.5c-8-1.26-19.85,0-25-7L96.06,56.9,73.77,63.73l-0.06-.07c-4.63-6.23,15.13-26.79,19-30.41,13.9-13,21.53,3.37,35.11,9.77-5.67,18.27-2.65,36.28-26.44,32.49h0ZM64.23,36.14L62.91,59.47l-0.1,0C55.36,61.92,43,36.67,40.91,31.85,33.6,14.55,51.58,12.47,62.28,1.6,77.43,12.75,95.38,15.56,83.55,37c-4,7.19-6.92,18.82-15.28,21.53ZM41.3,40.29c4.78,6.49,14,13.84,12.87,22.6L32.23,57.64,52.75,68.18l0,0.11c-1,7.78-29.2,9-34.44,9C-0.5,77,5.37,59.74.16,45.59c16.63-9.4,26.9-24.7,41.14-5.31h0ZM59,66.82a6.33,6.33,0,0,1,8.37-3.06,6.23,6.23,0,0,1,2.93,8.3,6.42,6.42,0,0,1-8.39,3.11,6.23,6.23,0,0,1-2.94-8.3Zm-2.78,10L44.37,96.45l16.4-16.78,0.08,0c7.08,3.16-.52,30.59-2.2,35.62-6.06,18-20.65,7.52-35.72,8.59-3.76-18.58-15.09-32.73,7.76-41C38.35,80.12,48.23,73.28,56.18,76.83Z" transform="translate(-0.16 -1.6)"/></svg>
