<?xml version="1.0" encoding="utf-8"?>
<svg version="1.1" id="Layer_1" xmlns="http://www.w3.org/2000/svg" xmlns:xlink="http://www.w3.org/1999/xlink" x="0px" y="0px"
	 viewBox="0 0 443.9 216.6" style="enable-background:new 0 0 443.9 216.6;" xml:space="preserve">
<path d="M282.8,173c1.4-0.3,4-1.5,5.7-1.7s4-3.1,4-3.1l4.2,2l1.9,0.1c-0.4-1.4-1-2.8-1.8-4.1c0,0,1.1,0.3,2.1,4.1h0.3
	c0.9-4.1,0.4-5.9,0.4-5.9s1.1-0.2,0,5.5c0.3-0.4,0.6-0.7,0.9-1.1c0.6-11.2,1.5-24.5,1.5-24.5s-2.5-33.2-1.1-36.7s3.7-16.5,3.7-18.7
	c0-1.3,3.2-3.8,5.8-5.5l-2.7-0.2l-3.8-3.8l-1.6-13.1l-1.4-9.2l7.7-3.2l12.2,1.5l13.1,2.3c0,0,15.3,0.3,19.6,1
	c4.1,0.6,10.2,1.9,10.2,1.9l16.8,2.5l5,0.3l-0.4,4l1.4,5.7l-0.2,11.2l-3.3,2.9l-6.9-0.1l-1-0.1l4.6,0.4l5.6,0.1l4.2,3.6
	c0,0-0.8,7.5,0,10.5s4.3,37.2,4.3,37.2l3.4,21.5l0.8,10.7l2.2,0.1l5.8-1.4c1.7-6.8,3.2-4.5,3.2-4.5s-1.5-0.5-2.5,4.3l0.2-0.1
	l0.4,0.2c2.1-2.9,2.8-2.7,2.8-2.7s-1.2,1.3-2.4,2.9l1.3,0.6c1.8-0.8,1.5,0,1.5,0c-0.4-0.1-0.7,0-1,0.2l34.5,11.8l-0.7,34.2H0.2
	L0,182.1l33.1-9.6l8.1-2l5-2.6l6.5-0.5c-1-8.4-5-9.4-5-9.4s5.1,1.3,5.9,9.4h0.1c-0.1-3-0.5-6.1-1.2-9c0.9,2.8,1.6,5.6,2.1,8.5
	c0.1-2.2,0.4-4.5,0.8-6.6l2-40.4l4.2-45.4l9.8-3.6l8.7,1l7.8,2.7l5.5-0.6l5,1.8l8.4,9.8l3.4,52.7l6.6,31.3c2.7-7.3,6-5.9,6-5.9
	s-3.6,0.9-5.5,6.9c4.6-5,8.9-4.8,8.9-4.8c-3.4,1.2-6.5,3.2-8.9,5.9l0.4,1.9l9.4-2l5.6,1l6.7-2.3l5.4-1.7c-4.2-2.6-5,0.6-5,0.6
	s-0.1-4.1,6.2-0.5l0.7,0.1c-2.9-4.4-5.7-4.1-5.7-4.1s1.7-2.3,6.1,3.5c-1.2-5.7,0-5.5,0-5.5c-0.2,1.5-0.2,3.1,0.2,4.6l0.5-9.1
	l0.4-39.2l-0.8-24.4l-1.2-6.8l3.9-37.4l4.4-11.2l0.7-0.2l-4.6-0.8L150.1,11l11.7-10.4l50-0.6l42.6,1l8.8,4l6.5,1l2.3,14.6l-1.6,11.9
	l-4.8,7l-11.6,0.8l6.6,0.1l7.3,3.8l2.2,10.9l2,15.8l2.9,16.2v14.5l-2.5,6.7l0.6,3.1c0,0,0.8,27.7,0.7,29.7s0.9,27,0.9,27l0.2,1.9
	c0.6-0.9,1.7-2.6,2.2-1.6c1.3,1.5,2.7,2.9,4.3,4.1L282.8,173z M55.9,163.3c-0.1,1.1-0.2,2.4-0.3,3.6l0.3-0.1
	c0.1-0.8,0.2-1.5,0.4-2.1L55.9,163.3z M195.7,38.3l-20.9,1.8l4,1l8.3,4.8l4,21.3c0,0-1,9.2-0.9,11.5s2.6,21.1,2.6,21.1l-0.8,25.3
	l-1.2,24.7l1.5,19l0.3,1.5l3.2-0.3h2.4l4.6,3.9h2.5l4.3-3.5l8.3,0.9l0.6,0.3l4.2-0.9l5-1.2l0.4,0.1l0.4-21.1l-4-30l0.3-27.2
	l0.2-26.5l8.7-24L195.7,38.3z M300.2,170.4h0.3V170L300.2,170.4z M362,86.1l-18.1-1.9l-9.3,1.7l-4.8-0.4l8.9,2.8
	c0,0,0,10.5-0.6,13.8c-0.6,3.4-2.6,20.4-2.8,22.7s-1.2,41.6-1.2,41.6l1,6.6c3.2-0.6,3.9,0,3.9,0s2.4-0.5,2.5,0.5h9.2l2-0.5l2.8-1.9
	h6.8c0,0,5.4,0.2,8.8,0.4l-2.9-27l0.7-21.6l-4.1-11l0.2-16.8l-0.8-7l5.7-1.4L362,86.1z M52.5,158.4c-0.4-1.2-0.7-1.9-0.7-1.9
	C52.2,157.1,52.4,157.7,52.5,158.4z"/>
</svg>
