<?xml version="1.0" encoding="utf-8"?>
<svg xmlns="http://www.w3.org/2000/svg" viewBox="0 0 128 45.53"><defs><style>.a,.b{fill:#faf4e2;}.b{font-size:8.1px;font-family:Avenir;}</style></defs><title>jimmys</title><path class="a" d="M77.17,55.07c7.06-5.27,14.57-9.66,23.34-11.43,10-2,17.71,1.75,22.28,10.79,3.25,6.42,4.42,13.38,5.2,20.43a0.65,0.65,0,0,1-.78.87c-4.59,0-9.19,0-13.78,0-1.21,0-.93-0.79-0.85-1.44a55.73,55.73,0,0,0,.29-13.9,28.51,28.51,0,0,0-1.47-6.62C109,47.2,104,44.42,97.09,45.84,91.32,47,86.31,49.87,81.42,53c-1.23.78-2.43,1.6-3.64,2.41C77.38,55.65,77.13,55.63,77.17,55.07Z" transform="translate(0 -43.12)"/><path class="a" d="M55.15,62.85c2.94-2.53,4.91-2.61,7.68-.37,0.59,0.48.81,0.2,1.18-.14a5.44,5.44,0,0,1,5.58-1.14,4.18,4.18,0,0,1,3.34,4.23c0.08,2.21,0,4.43,0,6.64,0,1.24,0,2.38,1.85,1.87a0.77,0.77,0,0,1,1,.74,0.85,0.85,0,0,1-1,1,35.16,35.16,0,0,0-5.5,0,0.86,0.86,0,0,1-1-1,0.77,0.77,0,0,1,1-.74c1.34,0.26,1.58-.55,1.58-1.57a38.78,38.78,0,0,0-.17-7.11,3,3,0,0,0-3.17-2.64,2.9,2.9,0,0,0-3.12,2.49c-0.55,2.62-.23,5.27-0.21,7.91,0,0.86.62,1,1.37,0.93a0.88,0.88,0,0,1,1.17,1,0.9,0.9,0,0,1-1.21.76,25.06,25.06,0,0,0-5,0,0.91,0.91,0,0,1-1.14-1A0.83,0.83,0,0,1,60.68,74c1,0.31,1.23-.21,1.32-1a37.65,37.65,0,0,0,0-7.44c-0.15-1.6-.81-2.65-2.51-2.85a3.42,3.42,0,0,0-3.72,2.22,6.41,6.41,0,0,0-.35,1.9c-0.05,1.84,0,3.67,0,5.51,0,1.1-.06,2.17,1.63,1.69a0.79,0.79,0,0,1,1,.79,0.86,0.86,0,0,1-1.08.91c-2-.17-4.09,0-6.13,0-1.55,0-3.11-.18-4.68,0-0.71.06-1.56,0.09-1.61-.87s0.75-.89,1.4-0.82c0.89,0.1,1.12-.38,1.15-1.14A52.19,52.19,0,0,0,47,65.37a2.91,2.91,0,0,0-2.91-2.74,2.91,2.91,0,0,0-3.33,2.2c-0.64,2.77-.33,5.59-0.22,8.39,0,0.82.76,0.76,1.37,0.72a0.89,0.89,0,1,1,0,1.71,30.38,30.38,0,0,0-5.17,0,0.87,0.87,0,0,1-1.1-.88,0.78,0.78,0,0,1,1.1-.8c1.17,0.33,1.47-.29,1.47-1.25,0-2.38.08-4.75,0-7.13-0.06-1.83-.87-2.69-2.43-2.93a3.27,3.27,0,0,0-3.76,2.12c-0.84,2.79-.6,5.66-0.38,8.52,0.07,0.85.65,0.79,1.31,0.65a0.91,0.91,0,1,1,.11,1.72,34.53,34.53,0,0,0-5.66,0,0.87,0.87,0,1,1,.12-1.7c1.81,0.47,2-.54,2-1.93-0.05-2.43,0-4.86,0-7.29,0-1.09-.25-1.81-1.58-1.56-0.64.12-1.42,0.18-1.44-.78s0.77-1,1.39-.86c1.17,0.34,2.7-.81,3.56.89,0.14,0.28.55-.15,0.8-0.32,2.58-1.72,4.48-1.67,6.72.31a0.77,0.77,0,0,0,1.31,0c1.76-1.74,3.87-1.76,6-1A3.92,3.92,0,0,1,49,64.63c0.4,2.53.08,5.07,0.22,7.6C49.3,73,49,74,50.25,74c2.88,0.13,3,.08,3-1.74,0-2.54,0-5.08,0-7.62,0-1.13-.3-1.77-1.59-1.52-0.66.12-1.41,0.1-1.38-.86s0.84-.79,1.46-0.8a13.29,13.29,0,0,0,1.78,0A1.22,1.22,0,0,1,55.15,62.85Z" transform="translate(0 -43.12)"/><path class="a" d="M13.9,69.59c-0.08,2.81.15,6-.19,9.18-0.46,4.35-3.52,6.8-7.91,6.29-3.23-.37-5.26-2-5.73-4.59-0.56-3.09,2-5.73,4.79-5a2.1,2.1,0,0,1,1.6,2.95,1.32,1.32,0,0,1-1.56.85,1.11,1.11,0,0,1-1-1.28c0-.25.23-0.57-0.12-0.69a0.9,0.9,0,0,0-.86.33,3.09,3.09,0,0,0,.16,4.12c1.59,1.66,3.59,1.63,5.58,1.06a3.75,3.75,0,0,0,2.68-3.66c0.52-6.2.18-12.41,0.23-18.62,0-1.41-.64-2.26-2.25-1.94-0.7.14-1.43,0-1.41-.85s0.8-1.08,1.55-.95a18.83,18.83,0,0,0,6.44,0c0.7-.12,1.53-0.11,1.57.89s-0.78,1-1.49.88c-1.52-.25-2.09.51-2.1,1.9C13.9,63.38,13.9,66.3,13.9,69.59Z" transform="translate(0 -43.12)"/><path class="a" d="M83.7,73.26l2.51-6.76c0.21-.56.38-1.13,0.61-1.67,0.51-1.19.38-1.89-1.15-1.66-0.59.09-1.14,0-1.18-.74a0.9,0.9,0,0,1,1.18-1,25.79,25.79,0,0,0,5,0,1,1,0,0,1,1.34.82c0.05,0.82-.56,1-1.21.88-1.21-.19-1.43.71-1.76,1.5-1.82,4.5-3.62,9-5.47,13.49a34.24,34.24,0,0,1-2,4.08,5.66,5.66,0,0,1-6.55,2.63c-1.36-.41-2.44-1.19-2.45-2.83a1.7,1.7,0,0,1,1-1.69,1.51,1.51,0,0,1,1.8.26,1.23,1.23,0,0,1,0,1.75c-0.51.74,0.22,0.82,0.64,0.87a3.4,3.4,0,0,0,3.63-1.59c1.74-3,3.09-6,1.17-9.55a64.75,64.75,0,0,1-3.05-7.66,1.58,1.58,0,0,0-1.92-1.28c-0.6.11-1.3,0.08-1.33-.75s0.73-1,1.37-.94a33.5,33.5,0,0,0,5.34,0c0.61,0,1.29.06,1.29,0.86s-0.63.92-1.28,0.84c-1.26-.17-1.34.37-1,1.39,1,2.88,2,5.79,3,8.68Z" transform="translate(0 -43.12)"/><path class="a" d="M106.7,63.66c0.05,0.59.12,1.18,0.15,1.78a1,1,0,0,1-.82,1.19c-0.67,0-.87-0.43-0.95-1.05-0.29-2.26-2-3.31-4.27-2.68a2.25,2.25,0,0,0-2,2.23,2,2,0,0,0,1.91,2c1.16,0.24,2.35.36,3.5,0.62,2.21,0.51,3.36,1.73,3.44,3.53a4.27,4.27,0,0,1-3.29,4.44,7.09,7.09,0,0,1-5.21-.36c-0.59-.28-1.13-0.78-1.3.41-0.08.52-.66,0.46-1.09,0.38a0.81,0.81,0,0,1-.65-1,17.06,17.06,0,0,0,0-4.52,0.81,0.81,0,0,1,.85-1,0.83,0.83,0,0,1,.84.81c0.88,3.12,2.06,4,5.07,3.67a2.68,2.68,0,0,0,2.67-2.35c0-1.51-1-2-2.26-2.28s-2.75-.46-4.12-0.82c-3.4-.88-3.09-5-1.27-6.46a6,6,0,0,1,6.1-1c0.55,0.2.86,0.46,1.42-.21s1.32-.35,1.42.61A11.18,11.18,0,0,1,106.7,63.66Z" transform="translate(0 -43.12)"/><path class="a" d="M22.77,67.56c0,1.57,0,3.13,0,4.7,0,1,.19,2,1.68,1.66,0.6-.14,1.27,0,1.25.83a1,1,0,0,1-1.27.91,26.48,26.48,0,0,0-5.66,0,0.92,0.92,0,0,1-1.16-1,0.86,0.86,0,0,1,1.2-.73c1.41,0.31,1.88-.42,1.89-1.65,0-2.49,0-5,0-7.46,0-1.09-.32-1.94-1.74-1.63-0.6.13-1.3,0.08-1.34-.74s0.7-.92,1.37-0.95c3.84-.12,3.84-0.13,3.76,3.64C22.75,65.94,22.77,66.75,22.77,67.56Z" transform="translate(0 -43.12)"/><path class="a" d="M96.44,59a3.64,3.64,0,0,1-1.13,2.73,0.54,0.54,0,0,1-.69.21c-0.31-.2-0.16-0.46,0-0.68,0.72-1,1.08-1.78-.64-2.22a1,1,0,0,1-.21-1.77,1.34,1.34,0,0,1,2-.17A2.26,2.26,0,0,1,96.44,59Z" transform="translate(0 -43.12)"/><path class="a" d="M21.26,59.31a1.47,1.47,0,0,1-1.48-1.58,1.37,1.37,0,0,1,1.58-1.43,1.31,1.31,0,0,1,1.4,1.44A1.48,1.48,0,0,1,21.26,59.31Z" transform="translate(0 -43.12)"/><path class="a" d="M77.17,55.07l0.61,0.32c-1.44,1.07-2.73,2.37-4.5,2.92A15.55,15.55,0,0,1,77.17,55.07Z" transform="translate(0 -43.12)"/><text class="b" transform="translate(17.62 41.83)">CAMBRIDGE</text></svg>