<?xml version="1.0" encoding="utf-8"?>
<svg xmlns="http://www.w3.org/2000/svg" viewBox="0 0 127.16 103.31"><defs><style>.a{fill:#faf4e2;}</style></defs><title>kasanka</title><path class="a" d="M62.78,92.32a26.58,26.58,0,0,0-11.47,5.37A13.74,13.74,0,0,0,48,100.9c7.16-3.8,14.64-5.86,22.8-4.73a34.17,34.17,0,0,0-7.91,3.7,34.3,34.3,0,0,0-6.65,6.23c3.53-1.15,6.63-2.12,10.26-1.09-3.19,1-4.56,3.23-5.08,6.4,3-1.7,5.72-3.78,9.34-3.24a5.14,5.14,0,0,1-2.1,1.06,5.81,5.81,0,0,0-2.39,1.66A1.78,1.78,0,0,0,66.1,113c0.55,0.87,1.23.24,1.84,0,0.44-.15.83-0.41,1.27-0.55,0.88-.29,1.9-0.77,2.62,0s-0.73,1.1-.65,1.84c3,0.56,3,.55,4.6-1.9,1.79-2.69,3.83-5.25,4.23-8.62,0.24-2,1.05-4.1.68-6s-0.39-3.64-.58-5.46a3.38,3.38,0,0,1,.76-2.6c4.27-5,8.09-6.84,13.92-5.54,2.65,0.59,5.28,1.26,8,1.7a6.9,6.9,0,0,1,4.36,2.57,17.67,17.67,0,0,0,2.94,3.18,2.59,2.59,0,0,0,2.25.62,1.27,1.27,0,0,0,1-.86c0.13-.6-0.49-0.49-0.84-0.6a1.4,1.4,0,0,1-1-1.45,18.28,18.28,0,0,1,0-2.08c0.06-.75-0.91-1.79.06-2.17a3.34,3.34,0,0,1,3.76.49,2.88,2.88,0,0,0,2.81,1.22A3.48,3.48,0,0,1,120.7,88c1.13,1.07,2.19,2.23,3.25,3.37s1,1.89-.55,2.6a2,2,0,0,1-.33.12,12.72,12.72,0,0,0-7.16,4.13c-1.53,1.87-4,1.49-6.19,1.58-1.14,0-1.46.25-1.13,1.47,0.69,2.56,1.31,5.14,1.86,7.74,0.33,1.56,1.92,2.39,3,3.54a5.76,5.76,0,0,0,5,2c2.65-.18,5.32-0.06,8,0,0.43,0,1.21-.3,1.13.58-0.06.67-.73,0.42-1.14,0.42-7.06,0-14.12,0-21.19,0q-13.29,0-26.58.1c-2.37,0-4.74,0-7.11,0-1.37,0-2.41-.25-1.63-2.11-1.41.28-2.54,1.4-3.89,0.85s-1.33-2-1.2-3.42a7.09,7.09,0,0,0-2.57,1.35,1.12,1.12,0,0,1-1.92-1.14,7.28,7.28,0,0,1,.75-2.83c0.38-.82.87-1.6,1.41-2.57-3.76.19-6.75,1.8-9.67,3.71a29.16,29.16,0,0,1,12-12.14c-4.82-1-14,2.78-23.1,9.69A36.27,36.27,0,0,1,53.14,94.79,29.32,29.32,0,0,0,46,98.08c-2.39,1.41-4.72,2.92-7.09,4.37-0.37.23-.74,0.76-1.21,0.42a1.41,1.41,0,0,1-.22-1.3,8,8,0,0,1,2.34-4.91c2.18-2.5,4.88-4.4,7.44-6.6l-6.59,2.43c-1.53.57-2.24,0.07-2.11-1.63A6.6,6.6,0,0,1,40.41,87a26.56,26.56,0,0,1,5.17-4,16,16,0,0,0-5.77,1.83,48.84,48.84,0,0,0-11.49,7.39c-0.34.29-.64,1-1.26,0.41s0.05-.93.33-1.27A43.53,43.53,0,0,1,42.77,78.94,4.21,4.21,0,0,0,40,79c-0.86.13-1.72,0.25-2.56,0.46a35.41,35.41,0,0,0-18,10.83c-0.29.33-.46,1.12-1.15,0.71s-0.15-1,.12-1.44a46,46,0,0,1,9-10.3c-4.6,1.57-7.71,5.2-11.24,8.29-1.29-2.84-.75-5.55,1.51-8,2.1-2.26,4.79-3.75,7.16-5.62-8.9,3.88-13.54,11.47-17.2,20a83.38,83.38,0,0,1,2.45-14.38c4.39-16.83,13.65-30.58,26.52-42.06,0.73-.65,1.43-1.36,2.21-2,0.42-.32.84-1.33,1.48-0.55s-0.4,1.06-.8,1.42c-3.23,2.91-6.39,5.87-9.35,9.06A80.65,80.65,0,0,0,10,84.9a4.15,4.15,0,0,0-.08.69,7.84,7.84,0,0,0,.09.82c5-7.84,10.85-14.26,20.81-15a2,2,0,0,1-1.26,1.19,99.59,99.59,0,0,0-9.37,6.27c-2,1.67-3.86,3.49-3.55,6.85,4.75-4.76,9.62-8.8,17-8.86a30,30,0,0,0-9,7.06,37.54,37.54,0,0,1,26-6.11,31.28,31.28,0,0,0-16.94,8.86c6.91-4,14.21-6.59,22.56-6.07A22.11,22.11,0,0,1,52,81.82a23.84,23.84,0,0,0-10.65,5.89,5.9,5.9,0,0,0-1.46,2.13c-0.16.46-.55,1-0.09,1.46s0.85-.09,1.26-0.23c3.87-1.33,7.74-2.69,11.61-4a6.4,6.4,0,0,1,.81-0.29c0.37-.07.79-0.31,1,0.28s-0.24.69-.57,0.87a73,73,0,0,0-7.71,4.66A27.39,27.39,0,0,0,40.16,98a5.55,5.55,0,0,0-1.44,3.17c1.8-1.12,3.34-2.1,4.9-3,4.57-2.75,9.24-5.31,14.64-6,1.47-.19,3-0.63,4.46.26ZM77.71,111.8a7.46,7.46,0,0,0,4.19-5.44c0.4-1.8,1-3.55,1.42-5.36a1.92,1.92,0,0,1,1.84-1.66c1.94-.32,3.85-0.77,5.78-1.12a3.37,3.37,0,0,0,2.75-2.95,27.78,27.78,0,0,0,.48-3.6,0.84,0.84,0,0,1,.62-0.91c0.57-.07.5,0.49,0.55,0.85a7.82,7.82,0,0,1-3.59,7.54c-0.39.22-.54,0.41-0.41,0.78,0.57,1.6-.15,3.08-0.42,4.59a3.66,3.66,0,0,0,.59,3.08c1.39,1.88,2.3,4.07,3.86,5.88a2,2,0,0,0,2.38.76c-0.49-.45-0.8-0.78-1.15-1a12,12,0,0,1-4.51-7.75c-0.5-2.77,1.75-5.89,4.26-5.84,0.31,0,.74-0.15.85,0.34s-0.26.69-.7,0.75A2.94,2.94,0,0,0,94,102.23c-1.65,3.08,0,7.87,3.52,9.95a5.92,5.92,0,0,1,.74-3.19,19.48,19.48,0,0,0,2.09-7.28c0.07-.53-0.13-1.37.75-1.26s0.38,0.82.34,1.29a21.41,21.41,0,0,1-2.24,8c-1.11,2.12,0,4.21,2.48,4.61-2-1.29-1.71-2.83-1.12-4.54,1.45-4.2,3.92-7.84,6.15-11.61,0.4-.67,1-1.92,1.81-1.41,1,0.63-.7,1.18-0.63,1.81h4.28A4,4,0,0,0,115.54,97a10.24,10.24,0,0,1,6.23-3.71c1.95-.49,2-0.77.53-2.08-0.51-.47-1-0.93-1.5-1.44A5.4,5.4,0,0,0,118.33,88c-1.35-.38-1.91.73-2.9,1.43-0.07-.65-0.12-1.09-0.16-1.53a1.91,1.91,0,0,0-1.9-1.88c-0.47-.06-1.07-0.06-0.9.64,0.27,1.08-.61,2.53.9,3.21,1.81,0.8,1.94,1.34.52,2.72-1.25,1.23-2.61,1.3-4.23.17a16.66,16.66,0,0,1-3.39-3.47A5.89,5.89,0,0,0,102.37,87a44.07,44.07,0,0,1-6.78-1.43c-5.58-1.77-9.82.26-13.4,4.39a6.41,6.41,0,0,0-.34,6.5c0.92-1.41.26-2.86,0.32-4.24,0-.32-0.09-0.75.36-0.86a0.62,0.62,0,0,1,.64.47,18.05,18.05,0,0,1,1.48,5,1.37,1.37,0,0,1-1,1.48c-2,.57-2.21,2.11-2.35,3.77-0.09,1-.21,2-0.38,2.92C80.48,107.51,79.08,109.64,77.71,111.8Zm-0.8,2.62H93.44c0.32,0,.77.12,0.89-0.3a1.06,1.06,0,0,0-.44-0.88c-0.37-.49-1.19-0.44-1.35-1.23a9.63,9.63,0,0,0-1.9-3.66,4.1,4.1,0,0,1-.79-4,11.13,11.13,0,0,0,.54-2.88c0.08-1.11-.12-2.07-1.69-1.57a12.29,12.29,0,0,1-2.38.41,2.11,2.11,0,0,0-2.15,1.95c-1,4.83-2.45,9.4-7.23,11.94A0.7,0.7,0,0,0,76.91,114.42ZM105,103.55a25.58,25.58,0,0,0-3.6,7.24c-0.41,1.32.11,2,1.18,2.67,2.12,1.29,4.43,1,6.72,1.07,1.34,0,1.34-.53.76-1.44C108.16,110.13,106.73,106.91,105,103.55Zm2.22-3.38c-1.31,1.19-1.68,1.69-1.39,2.32a30,30,0,0,0,3.52,6.38Zm3.61,11.51c1.11,3,1.11,3,2.77,2.55Z" transform="translate(-0.42 -12.35)"/><path class="a" d="M62.72,92.38a71.79,71.79,0,0,1,8.2-6.68c3.53-2.57,4.73-6.1,5.07-10.16,0.11-1.32.21-2.64,0.33-4.11a5,5,0,0,1-5.82,0c0,0.71,0,1.34,0,2-0.19,2.75-2.28,4.09-4.85,3.11a8.23,8.23,0,0,1-3.22-2.3,12.38,12.38,0,0,0-7.65-4.5c-4.18-.69-8-2.8-12.25-3.67-3.35-.7-6.7-1.3-10.14-0.63a15.46,15.46,0,0,0-9,5.14,0.86,0.86,0,0,1-1,.53c-0.63-.22-0.35-0.67-0.3-1.13,0.57-5,3.67-8.52,7.19-11.69A74.52,74.52,0,0,1,44.84,47.85c0.38-.2.92-0.83,1.27,0s-0.45.79-.86,1A77,77,0,0,0,29.92,59.25a26.1,26.1,0,0,0-4.76,5.49,8.86,8.86,0,0,0-1.55,3.81A18.27,18.27,0,0,1,31.3,64.5c5-1.07,9.77-.11,14.52,1.24,2.38,0.68,4.71,1.55,7.07,2.33a8.89,8.89,0,0,0,2.64.78c3.2,0,5.21,1.86,7.13,4a9.1,9.1,0,0,0,3.26,2.54c1.9,0.78,3.44-.15,3.46-2.19a34.81,34.81,0,0,0-1.06-8.57,1.62,1.62,0,0,0-2-1.47c-0.34,0-.7,0-1,0-5.28.58-5-.34-6.35-5.49a1.37,1.37,0,0,1,.62-1.49,3.94,3.94,0,0,1,5.33.38c0.38,0.43.67,0.94,1,1.39,1.67,2.07,3,2.47,5.43,1.59,1.82-.66,3.63-0.89,5.3.28,0.76,0.53,1.06.17,1.54-.33a39.75,39.75,0,0,1,3-2.89,6.16,6.16,0,0,1,3.45-1.49c2.65-.24,3.55.83,2.79,3.3-0.12.39-.24,0.77-0.37,1.15C85.74,63.48,85,63.91,81,63.09c-1.22-.25-1.74-0.07-2.34,1.25-1.71,3.75-1.15,7.74-1.57,11.61-0.48,4.35-1.83,8-5.5,10.7a51.53,51.53,0,0,0-7.88,6.52,0.82,0.82,0,0,1-1.19.31c-0.59-.48.27-0.74,0.28-1.15ZM78.35,61.29c-0.45.15-.71,0.94-1.41,0.19a4,4,0,0,0-5.38-.68c-2.26,1.51-3.64.38-5.19-.88a9,9,0,0,1-2-2.18,2.52,2.52,0,0,0-2.13-1.28c-1.66-.06-2.3.7-1.9,2.29,0.88,3.48.88,3.47,4.54,3.35,0.58,0,1.16,0,1.73,0a2.49,2.49,0,0,1,2.84,2.19,54.19,54.19,0,0,0,1.85,5.57,1.72,1.72,0,0,0,1.87,1.36c1.05,0,1.86-.14,2.28-1.33,1-2.82,2.17-5.57,3-8.46l1.69,0.38c4.56,1.06,4.91.78,6.33-3.68C87,56.47,86.2,56.28,85,56.26a4.24,4.24,0,0,0-2.43.8A14.41,14.41,0,0,0,78.35,61.29Z" transform="translate(-0.42 -12.35)"/><path class="a" d="M5.1,71.34c2.38-7.49,4.72-14.91,7.7-22.11s6.16-14,11-20c0.49-.6,1-2.15,1.94-1.36s-0.6,1.36-1.05,1.94c-5.15,6.52-8.57,14-11.61,21.61A211.53,211.53,0,0,0,4.73,78.22c-0.08.34-.17,0.67-0.28,1s0,0.89-.64.81S3.24,79.42,3.27,79c0.32-4,.59-8,1-11.93C5,59.67,5.75,52.31,6.51,45c0.23-2.24.47-4.48,0.73-6.72,0.05-.46-0.13-1.22.67-1.16,1,0.08.48,0.84,0.43,1.33Q6.73,53.93,5.11,69.45A18.48,18.48,0,0,0,5.1,71.34Z" transform="translate(-0.42 -12.35)"/><path class="a" d="M42.08,24c1.2,0.5,2.55.67,3.5,1.75,0.62-1.31-.38-2.14-0.75-3.35,2,0.39,1.79,1.93,2.12,3.46,0.23-.86.37-1.47,0.57-2.07s0.33-1.18.86-1.19c0.76,0,.3.86,0.63,1.23,0.45-.21.55-0.88,1.15-1,0.3,1.08-.64,1.86-0.58,2.91,1,0,1.32-1.06,2.63-1.21a3.69,3.69,0,0,0-.93,3.32c1.4-.38,2.47-2.29,4.61-1.58-0.89,1.05-2.23.89-3.06,1.62-0.25.22-.87,0.64-0.64,0.66,0.77,0.06,0,1.48,1.11,1.07,1-.35,1.74.19,2.39,1.17-1,.3-1.8-0.41-2.63.05,0.86,0.78,2.41.8,2.72,2.49-1.3-.7-2.25-1.87-4-1.45,0.89,0.8,2.36,1,2,2.6-1.15-.11-1.72-1.17-2.83-1.43,0.26,1.32,1.47,2.11,1.67,3.46C51.27,36.39,51.11,35,50,34.2c-0.25,1.4.14,2.86-.92,4-0.6-.68,0-1.39-0.29-2.13-1.05,1-1.4,2.65-3.28,3.11,0.84-1.28.58-2.51,0.49-3.7a1.29,1.29,0,0,1,.34-1.37A1.57,1.57,0,0,1,47.8,34c0.59,0.2.17,0.87,0.09,1.35a5.88,5.88,0,0,0,0,.73c0.86-.93,1.08-2.42,2.59-2.32-0.57-1.45,1.4-2.48,1.07-3.22a10.62,10.62,0,0,0-2.17-3.73,2.86,2.86,0,0,0-2.82.31c-0.64.7-.49,0.07-0.61-0.12A4.48,4.48,0,0,0,43,24.84c0.88,1.39,2.83,1.77,2.7,3.63-0.46.29-.54-0.62-1-0.24,1,0.76-2.17.64-.34,1.62,0.36,0.19.11,0.42-.14,0.63-0.43.36-1.09,0.42-1.3,1.05a1.65,1.65,0,0,0-1,1.09,2.25,2.25,0,0,1-2.27.82,14.73,14.73,0,0,1,3.92-3.13c-0.61-.52-1.11.26-1.6,0-0.25-.76.61-0.75,0.78-1.2a2.48,2.48,0,0,0-1.54.1c-0.37.05-.89,0.22-1-0.37a0.73,0.73,0,0,1,.8-0.73C41.8,28,42.56,28,43.5,28c-1.11-1.16-1-2.65-1.41-4v0Z" transform="translate(-0.42 -12.35)"/><path class="a" d="M42.09,24c-0.82.34-1.24-.44-1.83-0.69a5.46,5.46,0,0,0-3.65-.37c0.68,0.85,1.74.75,2.44,1.31,0.47,0.38,1,.88.73,1.43s-0.92,0-1.35-.13c-0.77-.31-1.51-0.7-2.53-1.19,0.72,1.82,2.28,2.65,3,4.3-1.77-.14-2.33-1.76-3.72-2.55,0,1.87.55,3.58-.45,5.3-0.75-1.17-.15-2.36-0.46-3.5-0.71.44-.62,1.24-0.89,1.84A9.82,9.82,0,0,1,32,32.17c-0.31.36-.64,1-1.18,0.71s0.28-.83.22-1.16c-0.3-1.5-.09-3-0.28-4.5,0-.2-0.53-0.47.05-0.58,0.33-.06.47,0.1,0.44,0.51-0.06.74,0,1.49,0,2.73,0.43-1.49.26-2.67,1-3.64,1,1.16.17,2.38,0.3,3.83,1.08-1.72.93-4.13,3.4-4.32-1-2-1-2,.37-2-0.06-.45-0.63-0.68-0.51-1.24,0.49,0,1-.41,1.61-0.46A10.84,10.84,0,0,1,35,19.3c-1-2.14-2.46-1.47-3.34-2.39-0.13.42,0,1.4-.52,1.24s-1.78.17-2.06-1L29.5,19l-1.86-2.08,0.09-.1c1,0.13.69-.51,0.58-1a6.52,6.52,0,0,0-1.65-2.67c1.65-.11,1.65-0.11,3.32,3.92,0.12-1.38.16-2.53,0.33-3.67,0.06-.39.2-1,0.79-0.95s0.49,0.74.57,1.15c0.12,0.59-.35,1.2,0,2A8.18,8.18,0,0,1,33,12.35c0.51,1.68-.37,3-0.38,4.73l2.87-3c0.39,1.49-.87,1.92-1.12,2.79,2.29-.29.37,1.15,0.73,1.78,1.92-.81,2.8-3.53,5.83-3a16.93,16.93,0,0,0-5.21,3.81c0.61,0.4,1-.44,1.51-0.23,0.36,0.37-.27.73,0,1.17,1.35-.44,2.76-0.85,4,0.67-1.22.59-2.48-.05-3.67,0.51,1.48,0.86,3.6.6,4.48,2.46v0Z" transform="translate(-0.42 -12.35)"/><path class="a" d="M13,30.82c-0.3,0-.73-0.06-0.69-0.35,0.09-.78.85-0.21,1.18-0.56-0.22-.42-2.12,0-0.71-1.37-0.34-.18-0.36-0.79-1-0.66a1.75,1.75,0,0,1-1.18-.08,8.91,8.91,0,0,1-1.33-1.26C9,27.84,8.5,26.77,8,26.77c-0.9,0-1,1.45-2,1.49,0.13,1.15-.52.53-0.94,0.41-1.61-.48-1.83-0.48-3.52.26,1.65,0.36,3.41-.29,4.7,1.32C5,30.49,4,29.67,3,30.22c2.23,0.52,2,.63,2.17,1.2,0.32,0.84,1.51,1.39.57,2.69a2.72,2.72,0,0,1,3,0c1.05,0.52.65,1.84,0.6,2.85a6.92,6.92,0,0,0,.46,2.94c-1.1-1-.72-1.89-0.8-2.66s0.23-1.71-.24-2.5c-0.82.07-.59,1-1.09,1.2a1.33,1.33,0,0,1-.32-0.19c-0.38-.44.44-1.35-0.34-1.46S6,35.12,5.78,35.75A4.24,4.24,0,0,1,4.35,38.1a5.82,5.82,0,0,1,.31-2.56c0.26-.82.53-1.63,0.82-2.52-0.81,0-.78.78-1.24,1-0.88-.31.14-1-0.56-1.74a2.58,2.58,0,0,1-.38.77c-0.42.4-.88,1.39-1.41,0.88-0.73-.72.26-1.29,0.76-1.78a10,10,0,0,1,1.22-.9c0-1.1-2.72.31-1.63-1.81L0.42,29.3c1-1.58,2.5-1.2,3.91-1.36C3.95,26.6,2.7,26.4,1.72,25.86,2.91,25,3,25,4.92,26.52c0.44-.49-0.14-0.81-0.23-1.19-0.13-.6-0.6-1.37,0-1.72s0.84,0.57,1.24.94A0.82,0.82,0,0,0,6,23.64a0.92,0.92,0,0,1,.26-0.91c1,0.86.73,2.22,1.39,3.18,0.81-.71.3-2,1.45-3.2-0.37,1.78.85,2.52,1,3.75,1.16-1.37.69-3.76,3.33-4.66a13.11,13.11,0,0,0-1.92,3.39c-0.1.33-.31,1.09,0,0.9,0.68-.37.85,1.15,1.5,0.21s1.57-.85,2.62-0.61c-0.35,1.07-1.76.86-2.16,1.88,1.25,0,2.53-.84,4,0.23-1.46.33-2.93-.21-3.94,1.14,1,0.39,2.42-.45,3,1-1,.87-2.45,0-3.46.81Z" transform="translate(-0.42 -12.35)"/><path class="a" d="M54.39,43.79a6.37,6.37,0,0,0-3.1-1c-1.23-.05-1.84.48-2,1.9-0.19,1.88.26,2.82,2.26,2.78,0.74,0,.87.7,1,1.24A11.64,11.64,0,0,0,53,51c-1-.71-0.55-1.94-1.21-2.87-0.68,1.56-1,.51-1.13-0.37-0.93.92-.41,2.13-1.21,2.89a1.13,1.13,0,0,1-.32-1.1c-0.07-.55.4-1.38-0.1-1.58a1.61,1.61,0,0,0-2,.61c-0.55-1.14.48-1.58,0.72-2.44-1,.12-1.42-0.83-2.35-0.87,0.44-1,1.39-1.14,2.25-1.42-0.36-.84-1.38-0.53-1.88-1.1,0.5-.83,1.22-0.31,2.08-0.27a1.28,1.28,0,0,1,.41-2.17c0.9-.41.8,1,1.53,1.36l0.21-1.56c0.69-.07.53,0.41,0.55,0.69,0,0.55.54,0.34,0.79,0.43s0.37-.32.46-0.56c0.57-1.57.57-1.57,1.24-2.15-0.23.87-.43,1.54-0.57,2.23,0,0.25-.46.7,0.14,0.78a0.92,0.92,0,0,0,.93-0.09c0.7-.57.75-0.48,1.26,0.27a0.77,0.77,0,0,0,.6,0A0.89,0.89,0,0,1,56.7,42c-0.62.34-1.48,0.09-2,.77,0.52,0.35,1.51-.16,1.66.61s-1.18.27-1.32,1.07c0.6,0.44,1.52-.06,2,0.67-0.68.54-1.47,0.39-2.46,0.12,0.57,0.68,1,1.1,1.3,1.57,0.2,0.29.65,0.66,0.2,1a2.1,2.1,0,0,1-.94-0.32,4.35,4.35,0,0,1,.09,2.6,19.52,19.52,0,0,0-2-2.07c-0.87-.67-0.57-1.3.12-1.51a1,1,0,0,0,.51-1.78C52.83,43.72,54.4,44.17,54.39,43.79Z" transform="translate(-0.42 -12.35)"/><path class="a" d="M25.93,19.32c0.95,0,1.3.76,1.9,1.21-0.44.6-1.12-.27-1.2,0.37,0,0.26-.34,1.07.56,1.16,0.74,0.08.47,0.45,0.09,0.77a6.26,6.26,0,0,0-1.85,2c1.93-1.39,2.77.12,3.72,0.89,0.68,0.56.2,1.55-.2,2.24a18.17,18.17,0,0,0-2.09,3.94C26.53,29.61,29,28.33,29,26.18,28,26,27.77,27,27,27c-0.55-1,.58-1.24.81-2.11-2.48-.89-3,2.58-5.37,2.25a20.39,20.39,0,0,1,4.26-4.51c-0.93-.6-1.38.47-2.13,0.38-0.4-1,.83-1,1.14-1.76-0.95-.27-1.61.44-2.39,0.54-0.42.05-.94,0.47-1.14-0.22a0.81,0.81,0,0,1,.77-1,20.89,20.89,0,0,1,2.7-.54c0.78-.09.34-0.5,0.3-0.81Z" transform="translate(-0.42 -12.35)"/><path class="a" d="M13.13,30.73A16.68,16.68,0,0,1,17,32.35c-1.29.61-2.33-.25-3.55-0.2C14,33.46,15.08,34.47,15.06,36c-1.26-.21-1-1.54-1.85-2,0,1.61.69,3.28-.42,5a12.82,12.82,0,0,0-2.59-4.39c-0.29-.33,0-0.68.12-0.6,0.82,0.69.58-1.47,1.39-.5a16.27,16.27,0,0,0,1.08,1.42c-0.94-1.49.32-2.74,0.27-4.13Z" transform="translate(-0.42 -12.35)"/><path class="a" d="M27.64,16.93c-0.93-.17-1.68-1-2.85-0.69,1.13,1.5,3.69,1.52,4,4.09-1.24-.72-2.07-1.68-3.51-2.15l0.68,1.14,0,0a1.52,1.52,0,0,1-1.18-.59c-0.86-.71-0.63-1.11.62-1.19l-2.15-1.64a4.36,4.36,0,0,1,4.49,1Z" transform="translate(-0.42 -12.35)"/><path class="a" d="M42,32.63a1.65,1.65,0,0,1,1-1.09,1.94,1.94,0,0,1,2.39,1.57c0.46,1.48-1,2.24-1.89,3.13,0.22-1.11,1.58-1.6,1.6-2.85-0.66-.27-1,0.63-1.57.4-0.46-.83.71-0.9,0.71-1.52C43.27,31.5,42.69,32.49,42,32.63Z" transform="translate(-0.42 -12.35)"/></svg>