<?xml version="1.0" encoding="utf-8"?>
<svg version="1.1" id="Layer_1" xmlns="http://www.w3.org/2000/svg" xmlns:xlink="http://www.w3.org/1999/xlink" x="0px" y="0px"
	 viewBox="0 0 1584.1 310" style="enable-background:new 0 0 1584.1 310;" xml:space="preserve">
<style type="text/css">
	.st0{fill:#FAF4E2;}
</style>
<title>solstice</title>
<path class="st0" d="M110.4,221.5L110.4,221.5c0.4,0.9,0.9,1.9,1.2,2.8v0.1v0.1c0.3,0.7,0.6,1.4,0.9,2.1c2.2,5.2,2.8,10.8,3.3,16.4
	c0,0.2,0.1,0.4,0.2,0.5c0.3,0.3,0.7,0.4,1.1,0.1c0.1-0.1,0.1-0.1,0.2-0.2c2.4-4.2,3.7-8.9,3.7-13.8l0,0l0,0c0-3.3-0.6-6.5-1.8-9.5
	l0,0l0,0c-0.1-0.4-0.3-0.7-0.5-1.1l-0.1-0.3l0,0l0,0c-0.7-1.4-1.4-2.8-2.3-4.1l0,0l0,0c-2.5-3.9-5.4-7.5-8.2-11.2
	c-2.5-3.1-4.4-6.5-5.8-10.2c0-0.1-0.1-0.2-0.2-0.3c-0.3-0.3-0.8-0.3-1.1,0c-0.1,0.1-0.2,0.3-0.2,0.5c-0.9,7.2-4.1,13.6-4.5,21
	c-0.5,6.8,1.1,13.5,4.5,19.4c1.7,2.6,3.7,5,5.7,7.4c1,1.2,2,2.5,2.8,3.9c0.3,0.5,0.6,1,0.8,1.6c0,0.2,0,0.4,0,0.7
	c0.6,0.5,1.4-1.6,1.6-2.1c0.9-2.2,1.3-4.6,1.2-7c-0.2-3.5-0.7-6.9-1.7-10.3c-0.4-1.3-0.7-2.5-1.2-3.8l0,0l0,0
	c-0.2-0.6-0.4-1.1-0.6-1.7v-0.1c-0.9-2.4-1.9-4.8-2.9-7.2c1.4,2.2,2.6,4.4,3.7,6.8L110.4,221.5z"/>
<path class="st0" d="M1554.2,219.9L1554.2,219.9z"/>
<path class="st0" d="M1552.2,216L1552.2,216L1552.2,216z"/>
<path class="st0" d="M1521.9,229.2C1521.8,229.3,1521.9,229.2,1521.9,229.2L1521.9,229.2z"/>
<path class="st0" d="M1523.5,232.9L1523.5,232.9z"/>
<path class="st0" d="M1498.6,220.2L1498.6,220.2z"/>
<path class="st0" d="M1496.1,215.2L1496.1,215.2L1496.1,215.2z"/>
<path class="st0" d="M615.2,214.8L615.2,214.8L615.2,214.8z"/>
<path class="st0" d="M617.2,218.8L617.2,218.8z"/>
<path class="st0" d="M586.5,231.8L586.5,231.8z"/>
<path class="st0" d="M584.8,228.4L584.8,228.4L584.8,228.4z"/>
<path class="st0" d="M559.1,214.1L559.1,214.1L559.1,214.1z"/>
<path class="st0" d="M550.9,202.2c-0.1-0.2-0.2-0.5-0.2-0.7C550.6,201.3,550.6,201.4,550.9,202.2z"/>
<path class="st0" d="M561.6,219.1L561.6,219.1z"/>
<path class="st0" d="M95.5,209.1c-3.2-2.4-4.3-7.1-8.6-4.5c-1.2,0.7-7.3,5-6.4,6.9l0,0l6.1-0.6l-5.7,1.9c1,2.1,4.1,2.4,6.1,3.2
	C93,218.4,93.1,213.6,95.5,209.1z"/>
<path class="st0" d="M78.7,194.7c-3,2.6-7.8,2.7-6.2,7.4c0.4,1.3,3.2,8.3,5.2,7.8l0,0l0.8-6.1l0.6,6c2.2-0.5,3.3-3.5,4.4-5.3
	C87.1,199.2,82.5,198,78.7,194.7z"/>
<path class="st0" d="M61.5,206.1c1.4,3.8-0.1,8.3,4.9,8.4c1.4,0,8.8-0.3,9-2.4l0,0l-5.4-2.8l5.8,1.4c0.3-2.3-2.2-4.3-3.5-6
	C68.5,199.6,65.9,203.6,61.5,206.1z"/>
<path class="st0" d="M68.5,215.3c-6.2,1.4-3.7,5.5-3.3,10.5c4,0.2,7.4,3.5,9.6-1c0.6-1.3,3.4-8.2,1.7-9.3l0,0l-4.8,3.8l3.7-4.7
	C73.3,213.4,70.6,214.8,68.5,215.3z"/>
<path class="st0" d="M86.5,228.6c1.4-3.8,5.5-6.2,1.9-9.6c-1-0.9-6.7-5.7-8.3-4.3l0,0l2.2,5.8l-3.4-4.9c-1.7,1.5-1.2,4.7-1.4,6.8
	C77,228.8,81.6,227.6,86.5,228.6z"/>
<path class="st0" d="M79.1,214c0.7-0.6,0.8-1.7,0.2-2.4c-0.6-0.7-1.6-0.8-2.3-0.2l0,0c-0.7,0.6-0.8,1.6-0.2,2.4
	C77.3,214.5,78.4,214.6,79.1,214L79.1,214z"/>
<path class="st0" d="M57.9,92.2c5.9,2.3,6-2.6,8.3-7.1c-3.1-2.4-4.3-7.2-8.4-4.5c-1.2,0.7-7.2,5-6.3,6.9l0,0l6-0.6l-5.6,2
	C52.8,91.1,55.9,91.5,57.9,92.2z"/>
<path class="st0" d="M54.5,80.5c3.5-5.4-1.1-6.6-4.8-10c-3,2.6-7.7,2.7-6.1,7.5c0.4,1.3,3.1,8.4,5.1,7.9l0,0l0.8-6.2l0.6,6.1
	C52.2,85.4,53.3,82.3,54.5,80.5z"/>
<path class="st0" d="M43.4,80.7c-3.8-5.2-6.4-1.1-10.7,1.4c1.4,3.8-0.1,8.4,4.8,8.5c1.4,0,8.7-0.3,8.9-2.4l0,0L41,85.4l5.7,1.4
	C47.1,84.4,44.6,82.5,43.4,80.7z"/>
<path class="st0" d="M47.9,87.6c-0.7,0.6-0.8,1.7-0.2,2.4c0.5,0.7,1.6,0.8,2.2,0.2c0,0,0,0,0.1-0.1c0.7-0.6,0.8-1.7,0.2-2.4
	C49.7,87.1,48.7,87,47.9,87.6C48,87.5,47.9,87.6,47.9,87.6z"/>
<path class="st0" d="M115.5,76.1c-2.8-2.8-3.4-7.6-7.9-5.4c-1.2,0.6-7.7,4.2-7.1,6.2l0,0l6,0.1l-5.8,1.3c0.7,2.2,3.8,2.9,5.6,3.9
	C112,85.1,112.6,80.2,115.5,76.1z"/>
<path class="st0" d="M97.9,74.9L97.9,74.9l1.5-6.1L99.3,75c2.3-0.3,3.6-3.2,5-4.8c4.1-5-0.4-6.7-3.6-10.4c-3.3,2.3-7.9,1.9-6.9,6.8
	C93.9,67.9,95.8,75.2,97.9,74.9z"/>
<path class="st0" d="M93.2,69.1c-3.2-5.6-6.2-1.8-10.8,0.2c1,3.9-1,8.3,3.8,9c1.3,0.2,8.7,0.7,9.1-1.4l0,0l-5-3.4l5.5,2
	C96.5,73.2,94.3,71,93.2,69.1z"/>
<path class="st0" d="M104.4,94.7c1.8-3.6,6.1-5.6,2.9-9.4c-0.9-1.1-6-6.5-7.6-5.3l0,0l1.5,6l-2.8-5.3c-1.9,1.4-1.7,4.6-2.1,6.7
	C95,93.8,99.7,93.1,104.4,94.7z"/>
<path class="st0" d="M98.8,79.2c0.7-0.5,0.9-1.6,0.4-2.3c-0.5-0.7-1.5-0.9-2.2-0.5l0,0c-0.7,0.5-0.9,1.6-0.4,2.3
	C97,79.5,98,79.7,98.8,79.2L98.8,79.2z"/>
<path class="st0" d="M755.2,240.4c-2.9-2.8-3.5-7.7-8-5.5c-1.3,0.6-7.8,4.2-7.2,6.2l0,0l6.1,0.1l-5.8,1.3c0.7,2.2,3.8,2.9,5.7,3.9
	C751.6,249.5,752.3,244.6,755.2,240.4z"/>
<path class="st0" d="M740.1,223.8c-3.3,2.3-8,1.9-7,6.9c0.3,1.4,2.2,8.8,4.2,8.5l0,0l1.5-6.1l-0.1,6.2c2.3-0.3,3.6-3.2,5-4.9
	C748,229.3,743.5,227.6,740.1,223.8z"/>
<path class="st0" d="M721.8,233.5c1,4-1,8.4,3.9,9.1c1.4,0.2,8.8,0.7,9.2-1.4l0,0l-5.1-3.4l5.6,2.1c0.5-2.3-1.7-4.6-2.8-6.5
	C729.5,227.7,726.4,231.5,721.8,233.5z"/>
<path class="st0" d="M732.8,254c0.7-1.2,4.3-8,2.7-9.2l0,0l-5.2,3.4l4.2-4.4c-1.8-1.4-4.7-0.3-6.9,0c-6.3,0.7-4.3,5.2-4.5,10.3
	C727.1,254.6,730.2,258.3,732.8,254z"/>
<path class="st0" d="M744,259.2c1.8-3.7,6.2-5.6,3-9.5c-0.9-1.1-6-6.5-7.7-5.3l0,0l1.5,6.1l-2.8-5.4c-1.9,1.4-1.7,4.6-2.1,6.8
	C734.5,258.3,739.3,257.6,744,259.2z"/>
<path class="st0" d="M738.3,243.5c0.8-0.6,1-1.6,0.5-2.4c-0.5-0.7-1.5-1-2.2-0.5c0,0,0,0-0.1,0c-0.8,0.5-1,1.6-0.5,2.4
	C736.5,243.8,737.5,244.1,738.3,243.5C738.3,243.6,738.3,243.5,738.3,243.5z"/>
<path class="st0" d="M798.8,201.1c-3.5-1.9-5.4-6.4-9.1-3.2c-1,0.9-6.4,6.1-5.2,7.9l0,0l5.9-1.5l-5.2,2.8c1.3,2,4.4,1.8,6.5,2.3
	C797.8,210.8,797.2,205.9,798.8,201.1z"/>
<path class="st0" d="M780,189.2c-2.6,3.1-7.2,3.9-5,8.4c0.6,1.3,4.4,7.9,6.3,7.1l0,0l-0.2-6.3l1.5,5.9c2.1-0.9,2.7-4,3.5-6
	C789,192.4,784.2,191.9,780,189.2z"/>
<path class="st0" d="M764.9,203.3c2,3.6,1.2,8.4,6.1,7.7c1.4-0.2,8.6-1.6,8.5-3.8l0,0l-5.8-2l5.9,0.5c-0.1-2.4-2.8-4-4.3-5.5
	C770.8,195.7,768.8,200.1,764.9,203.3z"/>
<path class="st0" d="M773.2,211.5c-5.9,2.3-2.8,6.1-1.6,11.1c3.9-0.4,7.9,2.4,9.3-2.5c0.4-1.4,2.1-8.8,0.2-9.6l0,0l-4.1,4.6l2.9-5.3
	C777.7,208.8,775.2,210.7,773.2,211.5z"/>
<path class="st0" d="M793,222.1c0.8-4,4.5-7.1,0.4-9.9c-1.2-0.8-7.5-4.7-8.8-3.1l0,0l3.1,5.4l-4.1-4.4c-1.5,1.8-0.4,4.9-0.3,7.1
	C783.7,223.8,788,221.8,793,222.1z"/>
<path class="st0" d="M783.5,208.6c0.6-0.7,0.5-1.8-0.2-2.4c-0.7-0.6-1.7-0.5-2.3,0.1l0,0c-0.6,0.7-0.5,1.8,0.2,2.4
	C781.8,209.4,782.8,209.3,783.5,208.6C783.4,208.6,783.5,208.6,783.5,208.6z"/>
<path class="st0" d="M737.5,80.8c5.5-3,1.9-6.2,0-10.9c-3.9,0.8-8.2-1.3-8.9,3.5c-0.2,1.4-0.8,8.7,1.2,9.3l0,0l3.4-4.9l-2.1,5.5
	C733.4,84,735.6,81.8,737.5,80.8z"/>
<path class="st0" d="M715.7,73.2c0.1,4-2.9,7.6,1.8,9.5c1.3,0.5,8.4,3,9.3,1.2l0,0l-4.2-4.6l5,3.4c1-2-0.6-4.7-1.2-6.8
	C724.5,69.8,720.6,72.6,715.7,73.2z"/>
<path class="st0" d="M723.1,95.3c0.9-1,5.4-6.8,3.9-8.3l0,0l-5.6,2.3l4.8-3.4c-1.6-1.7-4.7-1.1-6.8-1.3c-6.4-0.5-5,4.1-5.8,9
	C717.3,94.9,719.9,99,723.1,95.3z"/>
<path class="st0" d="M731,103.5c2.7-2.8,7.4-3.3,5.3-7.8c-0.6-1.3-4.1-7.9-6.1-7.3l0,0l-0.1,6.1l-1.3-5.8c-2.2,0.7-2.8,3.7-3.8,5.6
	C722.1,99.8,726.9,100.6,731,103.5z"/>
<path class="st0" d="M746.7,89.4c-2-3.5-1.2-8.2-6.1-7.6c-1.4,0.2-8.7,1.4-8.6,3.4l0,0l5.8,2.1l-6-0.7c0.1,2.3,2.8,3.9,4.4,5.4
	C740.8,96.7,742.8,92.4,746.7,89.4z"/>
<path class="st0" d="M727.5,85.4c0,0.9,0.8,1.7,1.7,1.7s1.6-0.7,1.6-1.5v-0.1c0-0.9-0.8-1.6-1.7-1.7
	C728.2,83.8,727.5,84.5,727.5,85.4L727.5,85.4z"/>
<path class="st0" d="M1144.8,112.9c2.7-11.5,13.8-20.4,1.8-28.6c-3.3-2.3-21.9-13.5-25.9-8.8v0.1l8.7,15.7l-11.9-12.8
	c-4.5,5.3-1.7,14.1-1.4,20.4C1117,117.7,1130.1,112,1144.8,112.9z"/>
<path class="st0" d="M1136.3,42.2c-3,2.8-18.4,18.8-14.8,23.7V66l17.3-5.4l-15.3,9.1c4,5.4,13.2,4.4,19.4,5.4
	c18.5,2.9,16.2-11.1,20.6-25.3C1153,44.8,1147.2,32.1,1136.3,42.2z"/>
<path class="st0" d="M1113,62.7L1113,62.7l1.2-18.1l3.1,17.3c6.5-2.1,8.8-11.2,11.9-16.8c9.2-16.6-4.7-18.8-16.4-27.4
	c-8.3,8.5-22.3,10.1-16.7,23.6C1097.7,45,1107.2,64.6,1113,62.7z"/>
<path class="st0" d="M1105.2,69.5L1105.2,69.5l-15.9-8.2l17,4c0.9-6.8-6.2-12.5-9.9-17.5c-11-15-19-3.1-32,4.2
	c4,11-0.6,24.4,14,24.5C1082.5,76.6,1104.4,75.6,1105.2,69.5z"/>
<path class="st0" d="M1109.7,106c1.3-3.9,7.3-25.2,1.8-27.7h-0.1l-12.8,13.1l9.2-15.3c-6.2-2.7-13.8,2.6-19.8,4.8
	c-17.8,6.5-9,17.5-6.1,31.9C1093.6,111.9,1104.9,120,1109.7,106z"/>
<path class="st0" d="M1118.8,72.4c1.2-2.4,0.1-5.3-2.2-6.4l0,0c-2.5-1.1-5.4,0-6.5,2.4c-1.2,2.4-0.2,5.3,2.2,6.5c0,0,0,0,0.1,0
	C1114.7,75.9,1117.6,74.8,1118.8,72.4z"/>
<path class="st0" d="M135.6,151.4c-6.2-4.9-13.2-8.9-20.6-11.9c-7.7-3.1-15.6-6-23.7-8.6l-1.9-0.6c-0.7-5.3-1.3-15.3,2.9-19.6
	c1.4-1.7,2.4-3.8,2.8-6c0.6,0.2,1.2,0.2,1.8,0.2c1-0.1,1.9-0.4,2.9-0.7c0.4-0.1,0.7-0.3,1-0.4l0,0l0.5-0.2l0,0c0.7-0.3,1.3-0.6,2-1
	c-0.6,0.4-1.2,0.9-1.8,1.2l0,0l-0.8,0.4l0,0l-0.6,0.3c-1.4,0.7-3,1.1-4.5,1.3c-0.1,0-0.1,0-0.1,0.1c-0.1,0.1-0.1,0.2,0,0.3
	c0,0,0,0,0.1,0c1.2,0.6,2.6,0.8,3.9,0.7l0,0c0.9-0.1,1.8-0.3,2.6-0.7l0,0l0.3-0.2h0.1l0,0c0.4-0.2,0.8-0.5,1.1-0.7l0,0
	c1.1-0.8,2-1.7,3-2.6c0.8-0.8,1.7-1.4,2.7-1.9l0.1-0.1c0.1-0.1,0.1-0.2,0-0.3l-0.1-0.1c-2-0.1-3.9-0.8-6-0.8c-1.9,0-3.8,0.6-5.3,1.7
	c-0.7,0.6-1.3,1.2-1.9,1.8c-0.2,0.2-0.4,0.4-0.6,0.6C97,96,95.9,86,95.7,84.7c0.8-2,1.2-3.9,0.4-4.5l0,0L91,83.5l4.1-4.4
	c-1.8-1.4-4.7-0.3-6.8,0C82,80,84,84.4,83.8,89.5c3.9,0.7,6.9,4.3,9.5,0c0.2-0.4,0.8-1.4,1.4-2.6c0.5,5.6,1,18.8-3.5,23.5
	c-0.7,0.7-1.2,1.5-1.6,2.4c-0.5-1-1.2-1.9-2.1-2.6l0,0c-0.7-0.6-1.6-1-2.5-1.2l0,0l-0.3-0.1h-0.1l0,0c-0.4-0.1-0.9-0.2-1.3-0.2l0,0
	c-1.3-0.1-2.7-0.1-4-0.1c-1.1,0-2.3-0.1-3.3-0.4h-0.1c-0.1,0-0.2,0.1-0.2,0.2s0,0.1,0.1,0.1c1.5,1.4,2.4,3.2,4,4.6
	c1.5,1.3,3.3,2.1,5.2,2.3c0.9,0.1,1.8,0.1,2.7,0c0.4,0,0.9,0,1.3,0c-1.2,4.8-0.8,10.8-0.3,14.6c-7.1-2.3-14-4.4-20.7-6.5
	c-7.2-2.1-14.1-5-20.7-8.6l-0.2-0.1c-0.5-6.6,0.9-15,1.6-18.6c0,0.8,0,1.7-0.1,2.4c-0.5,6.5,4,5.2,8.8,6.3c1.4-3.8,5.5-6.2,1.9-9.7
	c-1-1-6.7-5.8-8.2-4.4l0,0l2.2,5.8l-3.3-5c-0.7,0.7-1.1,1.6-1.2,2.6H48c0.2-1.2,0.1-2.3-0.5-2.6l0,0l-4.7,3.9l3.6-4.8
	c-1.9-1.2-4.7,0.2-6.8,0.7C33.5,92.8,36,97,36.4,102c3.9,0.2,7.4,3.6,9.5-1c0.5-1.1,0.9-2.3,1.3-3.4c-1,5.5-1.5,11-1.3,16.6
	c-5-2.8-9.5-6.6-13.2-11C28.9,98.6,27,92.8,27,85.8c0-4.7,1.2-9.3,3.3-13.5c2.4-4.6,5.6-8.7,9.6-12c4.6-3.8,9.8-6.8,15.4-8.7
	c6.8-2.3,13.9-3.5,21.1-3.4c9.8,0,17.9,1.7,24.3,5.1c6.2,3.2,11.6,7.8,15.9,13.3c4.3,5.6,7.8,11.9,10.4,18.5
	c2.7,6.8,5.2,13.7,7.6,20.7h3.9v-57h-4.8c-0.6,1.8-1.6,3.5-2.9,5c-0.9,0.9-2.8,1.3-5.6,1.3c-2.8-0.1-5.5-0.7-8-1.8
	c-2.9-1.2-6.2-2.4-10-3.8C103.4,48.2,99,47,94,45.7c-5.7-1.3-11.5-1.9-17.4-1.8c-9.9-0.1-19.8,1.7-29,5.2c-8.4,3.2-16.2,7.9-23,13.8
	c-6.2,5.5-11.3,12.2-15,19.6c-3.5,7.2-5.4,15.1-5.4,23.1c0,10.8,1.8,19.8,5.2,27c3.3,7,8.1,13.2,14,18.1c6,5,12.7,9,19.9,12
	c7.4,3.1,15.1,5.8,22.8,8.1l22.8,6.8c6.9,2,13.5,4.7,19.8,8.1c5.5,2.9,10.3,7,14,12c3.5,4.8,5.2,10.9,5.2,18.3
	c-0.1,4.8-0.9,9.5-2.4,14c-1.7,5.5-4.5,10.6-8.3,15.1c-1.9,2.3-4,4.4-6.4,6.2c0.1-0.2,0.1-0.4,0-0.5c-1.9-4.4-4.8-8.3-8.6-11.3l0,0
	l0,0c-2.6-2-5.5-3.5-8.7-4.4h-0.1c-0.4-0.1-0.8-0.2-1.2-0.3l-0.3-0.1h-0.1c-1.6-0.3-3.1-0.6-4.7-0.7H87c-4.7-0.4-9.4-0.3-14.1-0.3
	c-4,0.1-7.9-0.4-11.7-1.6c-0.1,0-0.2-0.1-0.4-0.1c-0.4,0-0.7,0.4-0.7,0.8c0,0.2,0.1,0.4,0.2,0.5c5.1,5.1,8.3,11.5,13.9,16.3
	c5.1,4.5,11.4,7.3,18.2,8.1c2.4,0.2,4.9,0.2,7.3,0c-6.6,2.9-14.8,4.3-24.8,4.4c-3,0-6.3-0.1-9.8-0.1c-3.8-0.1-7.5-0.7-11.1-1.8
	c-4.3-1.3-8.4-3-12.3-5.2c-4.9-2.9-9.4-6.4-13.3-10.5c-4.1-3.9-7.7-8.2-10.7-13c-2.8-4.4-5.2-9-7.2-13.8c-1.8-4.1-3.2-8.3-4.3-12.6
	c-1-3.9-1.7-7-2.1-9.4H0v66.6h4.8c1-2.8,2.1-4.6,3.3-5.5s3.2-1.3,6-1.4c3.1,0.2,6.2,0.8,9.1,1.8c4.1,1.2,8.8,2.4,14.1,3.8
	c5.3,1.3,11,2.6,17.1,3.8c6.1,1.2,12.3,1.8,18.4,1.8c11.5,0.2,23-1.8,33.8-5.9c9.6-3.6,18.4-8.9,26.1-15.8c7.2-6.4,13-14.3,17-23.1
	s6-18.3,6-27.9c0-10-1.9-18.4-5.6-25.2C146.6,162.1,141.6,156.2,135.6,151.4z M87.9,113.5c-0.8-0.6-1.7-1-2.6-1.4
	c-0.3-0.1-0.7-0.3-1.1-0.4l0,0l-0.5-0.2l0,0c-0.7-0.2-1.4-0.4-2.2-0.6c0.7,0.1,1.5,0.2,2.2,0.3l0,0l0.8,0.2l0,0l0.7,0.2
	c1.4,0.4,2.8,1.1,4,1.9c-0.1,0.3-0.2,0.7-0.4,1C88.6,114.2,88.3,113.8,87.9,113.5z M94.7,246.1c-1.2-0.5-2.5-1-3.7-1.4l0,0l0,0
	l-1.7-0.6h-0.1c-2.5-0.8-5-1.5-7.6-2.1c2.6,0.2,5.2,0.6,7.8,1.2h0.1c1,0.2,2,0.4,3,0.7h0.1l2.3,0.6c5.5,1.4,10.4,4.4,15.1,7.4
	c0.2,0.1,0.3,0.2,0.5,0.1l0,0c-1,0.7-2,1.4-3.1,2.1c-1-1.2-2.1-2.3-3.3-3.1C101.1,249.1,98,247.4,94.7,246.1L94.7,246.1z"/>
<path class="st0" d="M626.6,224.2c-4.2,7.4-9.5,14.1-15.9,19.8c-0.7,0.7-1.5,1.3-2.3,1.9c0.1-2.5,0-5.3,0-6c0-1.8-0.8-5.8,0.1-7.4
	c0.8-1.2,4.4-1.5,4.5-3.3c-0.8,1.1,0.5-1,0.8-1.1c0.8-0.3,1.5-0.6,2.3-0.8c3.5-1.3,4.9-6.2,1.1-8.4c-0.8-0.5-3,0.2-3.8,0.8
	c-1,0.7-1.6,1.8-1.7,3c-0.2,1.6,1.3,3.2,1.2,4.4c-0.1,1.1-3.1,4-4.2,3.7c-1.4-0.4-0.3-8.7-0.3-9.9c0-3.5,1.5-3.9,4.8-4.3
	c1.9-0.2,3.3,0.1,4-2.3c0.9-2.9-0.8-6-3.9-4.1c-2.9,1.7-1.4,5.3-4.8,6.8c0-2.2,0.9-6.6,2.3-8.6c1.7-2.4,4.9-0.3,6-4
	c1-3.3-2.6-9.1-6.4-6c-1.1,1.3-1.9,2.9-2.2,4.6c0,0.3,1.1,3.7,1.6,3.2c-0.3,3.4-1.8,6.5-2.1,9.9c-2.3-1.2,0.1-4.5,0.1-6
	c0.2-1.5-0.6-3-2-3.6c-3.3-1.8-6.5,2.1-5.4,5.4c0.9,2.9,4.1,1.5,5.4,2.8c1.2,1.6,1.8,3.5,1.7,5.5c-0.1,1.5-0.3,2.9-0.3,4.4
	c0,1,0.6,4.1-0.2,5.1s-0.4,0.4-1.5,0.1c-1.9-0.5-1.5-1.3-1.2-2.3s1.4-1.7,1.6-3.1c0.2-1,0-2.1-0.4-3c-2.7-4.9-9.3-0.6-7.4,4.4
	c1.2,3.1,2.8,2.4,5.1,3.8c1.9,1.1,3.6,2.2,3.9,4.3c0.2,1.2,0.3,2.4,0.4,3.6c0-0.1-0.1-0.2-0.2-0.3c-0.1,0.3,0,0.7,0.2,1
	c0-0.1,0-0.1,0-0.2c0.1,2.6,0,5.2-0.2,7.8c0,0.3,0.1,0.5,0.1,0.8c-4.7,3.6-10,6.4-15.6,8.3c-4.2,1.4-8.6,2.4-13,2.9
	c0-0.1,0-0.1,0-0.2c0.2-2.1,0.3-4.2,0.1-6.3c0-1.9-0.4-4.8,0.1-6.7c0.5-2.2,1.9-1.8,3.5-3.4c0.5-0.5,0.7-1.5,1.4-1.9
	c0.3-0.2,1.2-0.1,1.7-0.3c2.7-1.4,4.8-5.1,1.1-7.2c-0.7-0.2-1.5-0.1-2.2,0.2c-1.5,0.3-2.5,1.6-2.6,3.1c-0.2,1.3,1.1,2.9,1,3.8
	s-2.7,3.5-3.6,3.2c-1.2-0.5-0.2-6.7-0.2-7.6c0.1-3.4,0.2-4.1,3.8-4.6c1.3-0.2,2.2,0.4,3.2-0.8c1.4-1.8,1.1-5-1.5-4.9
	c-3.5,0.1-2.5,4.8-5.4,6.1c0-1.7,0.8-6.3,2.3-7.7c1.3-1.2,3.1-0.2,4.4-1.7s0.8-4.6-0.7-5.9c-3.6-3.2-6.8,2.1-5.6,5.4
	c0.6,1.6,0.9,0.4,0.7,2.8c-0.2,2.3-1.5,4.1-1.7,6.4c-3-1.4,2.6-6.6-2-8.4c-2.6-1-5.4,2-4.3,4.8c1,2.8,3.3,1.2,4.7,2.4
	c1,0.9,1.5,3.7,1.4,5c0,1.1,0.4,7.5-0.7,8.2c-0.6,0-1.2-0.2-1.7-0.4c-2-1.6-0.2-1.1,0.1-2.1c0.6-1.9,1.9-3.7,0.1-5.6
	c-4.1-4.5-9.2,3.9-4.4,6.7c0.6,0.4,1.6,0,2.3,0.3c0.6,0.5,1.1,1,1.6,1.6c1.1,0.8,1.6,0.6,2.2,1.8c0.2,0.9,0.3,1.8,0.3,2.8
	c0.2,2.8,0.2,5.6,0,8.4c0.2,1-0.1,2,0.1,3.1c-2.1,0.2-4.1,0.3-6.2,0.3H550c0-0.4,0-0.8,0-1.2c0.6-2.9,0.3-9.4,0.3-10.7
	c0.1-2.5-0.1-4.9,0-7.3c0.1-1.8,0-2.3,1.2-3.5c1.1-1,2.8-1.3,3.9-2.5s1.3-2.2,2.7-2.8c1.1-0.5,2.3-0.3,3.4-1.1c3.5-2.3,4.1-7.6,0-10
	c-0.9-0.5-3,0.1-4.1,0.6c-3,1.6-3.6,4.6-2.5,7.7c0.7,2,1.5,2-0.1,3.9c-0.6,0.7-3.3,3.2-4.2,2.8c-1.8-0.8-0.3-10.6-0.4-12.5
	c0-2.3-0.2-3,1.6-4.2c1.2-0.9,2.8-1.3,4.3-1.2c2.9,0,5.1-0.4,5.5-4s-1.5-5.8-5-4.1c-1.5,0.9-2.5,2.3-2.7,4c-0.6,2.3-1.1,3.6-3.5,4.6
	c0.1-2.9,1.5-10.9,4.6-12.2c2.6-1.1,4.4,0.5,5.8-2.9c1-2.5,0.4-5.3-1.3-7.3c-4.5-5.6-10,2.1-8.8,7c0.2,0.4,1.3,2.5,1.6,2.7
	c0-0.3,0-0.5-0.1-0.8c0.2,0.7,0.2,0.9,0.1,0.8c0,1-0.1,2.1-0.4,3.1c-0.6,2.9-2.2,5.5-2.4,8.6c-3.2-1.6,0.1-4.8,0.3-6.6
	c0.4-2.1-0.6-4.2-2.4-5.3c-4.1-2.6-8.2,1.4-7.2,5.7c0.6,2.8,2.4,3.3,5.1,4c2,0.5,1.3,0.3,2.4,2.3c0.6,1,1.1,2,1.4,3.1
	c0.5,2.2-0.3,5.2-0.3,7.5c0,1.6,0.6,4.2-0.2,5.7s-0.2,1.3-2,0.8c-1.2-0.3-2.4-1.2-2-2.6c0.1-0.4,2-1.9,2.3-2.8
	c0.5-1.7,0.4-3.5-0.3-5.1c-1.4-2.7-5.2-3.3-7.7-1.7c-3.1,2-2.7,5.2-1.2,8.1c0.7,1.5,1.1,2.1,2.5,2.6c1.8,0.6,1.9,0.2,3.3,1.3
	c2.3,1.8,4.7,2.4,5,5.4c0.6,4.9,0.7,9.9,0.3,14.9c0.3,1.7-0.2,3.4,0.2,5.2h-26.8V53h27.6v-4.2h-98.7V53h27.6v205.2h-27.6v4.2h190.2
	v-67.8h-3.9C634.9,206.2,631.2,216.1,626.6,224.2z M615.2,214.8L615.2,214.8L615.2,214.8c-0.2,0.1-0.5,0-0.7-0.1
	C615.2,214.3,615.4,214.3,615.2,214.8z M584.8,228.4C584.8,228.4,584.8,228.3,584.8,228.4S584.8,228.4,584.8,228.4
	c-0.2,0.1-0.4,0-0.6-0.1C584.7,227.9,584.9,227.9,584.8,228.4L584.8,228.4z M559.1,214.1C559.1,214.1,559.1,214,559.1,214.1
	C559,214.2,559.1,214.1,559.1,214.1c-0.3,0.1-0.6,0.1-0.9-0.1C558.9,213.4,559.2,213.5,559.1,214.1z"/>
<path class="st0" d="M814.5,151.4c-6.2-4.9-13.2-8.9-20.5-11.9c-7.7-3.1-15.6-5.9-23.7-8.6l-9.6-3.1c2.3-0.9,4.5-2.1,6.6-3.6l0,0
	l0,0c2.6-2,4.8-4.4,6.5-7.2l0,0l0,0c0.2-0.3,0.4-0.7,0.6-1.1l0.1-0.3l0,0l0,0c0.7-1.4,1.3-2.9,1.9-4.4v-0.1c1.6-4.4,2.6-9,3.8-13.6
	c0.9-3.9,2.4-7.6,4.5-10.9c0.1-0.1,0.1-0.2,0.1-0.3c0.1-0.4-0.2-0.8-0.6-0.9c-0.2,0-0.4,0-0.5,0.1c-6.1,3.4-13.2,4.7-19.2,8.9
	c-5.7,3.8-10.1,9.2-12.6,15.5c-1,3-1.7,6.1-2.3,9.2c-0.3,1.6-0.8,3.1-1.3,4.7v0.1l-1.5-0.5c-7.1-2.1-14-5-20.6-8.5
	c-5.6-3-10.5-7-14.5-11.9c-3.7-4.6-5.5-10.4-5.5-17.4c0-4.7,1.2-9.3,3.3-13.5c2.4-4.6,5.6-8.7,9.6-12c4.6-3.8,9.8-6.8,15.5-8.7
	c6.8-2.3,14-3.4,21.2-3.3c9.8,0,17.9,1.7,24.3,5.1c6.2,3.2,11.6,7.8,15.9,13.3c4.3,5.6,7.8,11.9,10.3,18.5
	c2.7,6.8,5.2,13.7,7.7,20.7h3.8v-57H813c-0.6,1.8-1.6,3.5-2.8,5c-0.9,0.9-2.8,1.3-5.6,1.3c-2.8-0.1-5.5-0.7-8-1.8
	c-2.9-1.2-6.2-2.4-10-3.8c-3.8-1.3-8.2-2.5-13.2-3.8c-5.7-1.3-11.5-1.9-17.4-1.8c-9.9-0.1-19.8,1.7-29,5.2
	c-8.4,3.2-16.2,7.9-23,13.8c-6.2,5.5-11.3,12.2-15,19.6c-3.5,7.2-5.4,15.1-5.4,23.1c0,10.8,1.8,19.8,5.2,27
	c3.4,7,8.1,13.2,14.1,18.1c5.9,5,12.6,9,19.8,12c7.4,3.1,15.1,5.8,22.8,8.1l22.8,6.8c6.9,2,13.5,4.7,19.8,8.1c5.5,2.9,10.3,7,14,12
	c3.5,4.8,5.3,10.9,5.2,18.3c-0.1,4.8-0.9,9.5-2.4,14c-1.7,5.5-4.5,10.7-8.2,15.1c-4.4,5.2-9.8,9.3-16,12.2c-6.8,3.3-15.5,5-26.1,5
	c-3,0-6.2,0-9.8-0.1c-3.8-0.1-7.5-0.7-11.1-1.8c-4.3-1.3-8.4-3-12.3-5.2c-4.9-2.9-9.4-6.4-13.3-10.5c-4.1-3.9-7.7-8.2-10.7-13
	c-2.8-4.4-5.2-9-7.2-13.8c-1.8-4.1-3.2-8.3-4.3-12.6c-1-3.9-1.7-7.1-2.1-9.4H679v66.6h4.8c1-2.8,2.1-4.6,3.3-5.5s3.2-1.3,6-1.4
	c3.1,0.2,6.2,0.8,9.2,1.8c4.1,1.2,8.8,2.5,14.1,3.8s11,2.6,17.1,3.8c6.1,1.2,12.3,1.8,18.5,1.8c11.5,0.2,23-1.8,33.8-5.9
	c9.6-3.7,18.4-9.1,26-16c7.2-6.4,13-14.3,16.9-23.1c4-8.8,6-18.3,6-27.9c0-10-1.8-18.4-5.5-25.2
	C825.4,162.1,820.4,156.2,814.5,151.4z M755.7,122.7c2.7-2.3,5.1-4.8,7.1-7.7c0.8-1.1,1.6-2.2,2.3-3.3l0,0l0,0c0.3-0.5,0.7-1,1-1.5
	l0,0l0,0c1.4-2.2,2.7-4.5,4-6.8c-0.9,2.5-1.9,4.9-3.1,7.2l0,0l0,0c-0.5,0.9-0.9,1.8-1.4,2.7v0.1v0.1l-1.1,2.1c-2.4,4-5.5,7.7-9,10.8
	l-3.7-1.2C753.2,124.6,754.5,123.7,755.7,122.7L755.7,122.7z"/>
<path class="st0" d="M852.1,103.7h3.9c2.4-8.7,5.7-17.2,9.9-25.2c3-5.9,7.2-11.2,12.3-15.5c4.6-3.7,9.9-6.3,15.6-7.8
	c6.5-1.6,13.1-2.3,19.8-2.3h10.8v105.5c-0.9-4.1-2.7-8-5.2-11.3l0,0l0,0c-2-2.6-4.4-4.8-7.2-6.4l0,0l0,0c-0.3-0.2-0.7-0.4-1-0.6
	l-0.4-0.2l0,0l0,0c-1.4-0.7-2.9-1.3-4.3-1.8h-0.1c-4.4-1.6-8.9-2.6-13.4-3.8c-3.8-0.9-7.5-2.4-10.8-4.4c-0.1-0.1-0.2-0.1-0.3-0.1
	c-0.4-0.1-0.8,0.2-0.9,0.6c0,0.2,0,0.4,0.1,0.6c3.7,6.2,5.2,13.2,9.4,19.2c3.8,5.6,9.2,10,15.5,12.5c2.9,0.9,6,1.7,9,2.2
	c1.6,0.3,3.1,0.8,4.6,1.3c0.6,0.2,1.1,0.4,1.6,0.7c0.1,0.2,0.2,0.4,0.4,0.5c0.8,0,0.1-2.2,0-2.6c-0.7-2.3-1.8-4.4-3.3-6.2
	c-2.3-2.6-4.9-5-7.7-7.1c-1.1-0.8-2.1-1.5-3.2-2.3l0,0l0,0l-1.5-1l0,0l0,0c-2.2-1.4-4.5-2.7-6.7-3.9c2.4,0.8,4.8,1.9,7.1,3.1l0,0
	l0,0c0.9,0.5,1.8,0.9,2.7,1.4h0.1l0,0l1.9,1.1c5,2.7,8.9,6.8,12.7,10.9c0.1,0.1,0.3,0.2,0.5,0.3c0.2,0,0.4,0,0.6-0.1v8.6
	c-3.8-1.8-8-2.8-12.2-2.8h-0.1c-3.3,0-6.5,0.6-9.5,1.9l0,0l0,0c-0.4,0.2-0.7,0.3-1.1,0.5l-0.3,0.1l0,0l0,0c-1.4,0.7-2.8,1.5-4.1,2.4
	l0,0l0,0c-4,2.6-7.5,5.6-11.3,8.5c-3.1,2.5-6.5,4.6-10.2,6c-0.1,0-0.2,0.1-0.3,0.2c-0.3,0.3-0.3,0.8-0.1,1.1
	c0.1,0.1,0.3,0.2,0.5,0.3c7.2,0.8,13.6,4,21,4.3c6.8,0.4,13.6-1.3,19.5-4.8c2.6-1.8,5.1-3.8,7.4-5.9c0.4-0.3,0.8-0.6,1.1-0.9v77.8
	h-27.6v4.2h98.4v-4.2h-27.6V53h10.8c6.7-0.1,13.3,0.7,19.8,2.2c5.7,1.5,11,4.1,15.6,7.8c5.1,4.3,9.3,9.5,12.3,15.5
	c4.2,8,7.5,16.5,9.9,25.2h3.9V48.8H852.1V103.7z M920.3,174.8c-3.5,0.2-7,0.8-10.3,1.8c-1.3,0.4-2.5,0.8-3.8,1.2l0,0l0,0l-1.7,0.6
	h-0.2c-2.4,0.9-4.9,2-7.3,3c2.2-1.4,4.5-2.7,6.8-3.9l0,0l0,0c0.9-0.4,1.9-0.9,2.8-1.3h0.1l0,0l2.2-1c4.9-2.1,10.1-2.9,15.3-3.4v3.1
	C923,174.8,921.7,174.7,920.3,174.8L920.3,174.8z"/>
<polygon class="st0" points="1134.4,133.7 1077.7,133.7 1077.7,137.9 1097.8,137.9 1097.8,258.2 1077.7,258.2 1077.7,262.4
	1154.5,262.4 1154.5,258.2 1134.4,258.2 "/>
<path class="st0" d="M1344.1,222.5c-3.7,7.4-8.4,14.2-14.1,20.2c-5.6,5.9-12.1,10.7-19.3,14.2c-4.9,2.4-10.2,4-15.6,4.8
	c0.4-0.3,0.7-0.6,1.1-1c6.5-8,1.6-20.9,0.1-29.7c-2-12-5.1-29.7,3.3-40.2c0.5,2.4,3.7-2.8,3-4.8l0,0c-0.5-1.3-2.5,1.6-3.1,2.2
	c-0.8,0.8-1.6,1.6-2.3,2.5c-2.5,3.5-3.6,7.8-4.2,11.9c-2,14.4,2.2,28.2,4,42.3c0.6,4.3,0.8,8.9-1.3,12.8c-0.8,1.4-3.1,3-4,4.4
	c-1.8,0.2-3.7,0.3-5.6,0.3c-4.7,0-9.4-0.3-14-1c-6.8-8.3-10.8-19.2-14.6-29.1c-6.8-17.4-8.7-36.6-0.7-54l-3.3,7l3.3-7
	c5.5-11.9,6.6-25.6,6.1-38.5c-0.1-3.6-1.2-7.6-0.9-11.1c0.2-2.2,2.2-3.7,2.3-6.1c0-0.5,0-3-0.5-3.3c-0.8-0.6-1.2,1.1-2,1.1
	c0.7-0.8,1.8-4.5,1.5-5.6c-0.2-0.7,0.4-0.8-0.6-0.8c-0.9,0.5-1.7,1-2.4,1.7c-2.1,1.6-3.1,2.7-3.6,5.5c-0.8,4.9,2,2.3,4.1,0.2
	c0.4,0.7-1.1,5.1-1.2,6c0,1,0.1,2,0.3,2.9c0.5,4,0.8,8,0.8,12c0.2,12.3-1.2,24.7-6.1,36.1c-9.8,22.5-3.9,43.9,5.5,65.3
	c1.8,4.1,3,8.2,5.5,12c1.1,1.9,2.3,3.7,3.8,5.4c-4.1-0.7-8.2-1.9-12.1-3.4c-8.1-3.2-14.7-8.8-19.8-16.8s-8.8-18.8-11.2-32.4
	s-3.6-30.8-3.6-51.6c0-15.8,0.6-30.3,1.8-43.7c1.2-13.3,4-24.8,8.2-34.3c4-9.2,10.6-17,19-22.5c8.4-5.4,19.9-8.1,34.5-8.1
	c10.8,0,19.8,2,27.2,5.8c7.1,3.7,13.3,8.8,18.3,15c4.9,6.1,8.9,12.9,12,20.1c3.1,7.3,5.8,14.3,7.9,20.8h3.9V48.8h-4.8
	c-0.6,2.8-1.6,4.5-3,5.2c-2,0.8-4.2,1.1-6.3,1c-3.3-0.1-6.5-0.7-9.6-1.8c-3.8-1.2-8-2.5-12.8-3.8s-9.8-2.5-15.3-3.8
	c-5.9-1.2-11.9-1.8-17.8-1.8c-13.5,0.2-26.8,2.9-39.2,8c-27.4,10.9-49.7,31.6-62.7,58.1c-6.9,13.8-10.3,29.2-10.3,46.2
	c-0.1,15,3,29.9,9.3,43.5c12.1,26.4,33.7,47.3,60.6,58.4c13.4,5.7,27.8,8.6,42.3,8.5c6.1,0,12.3-0.5,18.3-1.6
	c5.8-1.1,11.2-2.3,16.1-3.6c4.9-1.3,9.3-2.5,13.1-3.6c3-1,6.1-1.5,9.3-1.6c2.8,0,4.9,0.5,6.3,1.4c1.7,1.3,2.9,3,3.6,5h4.8v-63.6
	h-4.8C1350.7,207.1,1347.8,215,1344.1,222.5z M1259.6,121.9L1259.6,121.9z M1252.5,187.6l-0.3,0.7L1252.5,187.6z"/>
<path class="st0" d="M1579.9,196.7c-1.9,8.4-4.8,16.5-8.7,24.1c-3.6,7.3-8.5,13.9-14.2,19.6c-3.5,3.5-7.4,6.5-11.7,9
	c0.2-2.5,0.2-4.9,0.1-7.4c0-2.2-0.1-4.3,0-6.5c0.2-3.3,1.7-2.4,3.8-4.4c0.7-0.7,1-2.1,1.8-2.6c0.3-0.2,1.5-0.2,2.1-0.4
	c3.5-1.3,4.9-6.1,1.1-8.4c-0.8-0.2-1.7-0.1-2.5,0.2c-3.7,1.4-3,3.9-2.4,7c0.3,1.9,0.9,0.4,0.1,2.1c-0.3,0.6-3,2.8-3.7,2.6
	c-1.4-0.4-0.3-8.2-0.3-9.4c0-3.5,0.8-4.3,4.4-4.8c2-0.3,3.6,0.3,4.4-2.3c0.9-2.9-0.8-6-3.9-4.1c-2.8,1.7-1.4,5.3-4.8,6.8
	c0-1.7,1.1-8.4,3-9.6c1.5-0.9,3.1,0.3,4.5-1.3s1.2-4.6,0-6.4c-3.2-4.7-9.1,0.8-7.5,4.9c0.7,1.9,1.2,1.1,1.3,3.3
	c0.2,2.8-1.8,5.5-2.1,8.3c-2.3-1.2,0.1-4.5,0.1-6c0.2-1.5-0.6-3-2-3.6c-3.3-1.8-6.5,2.1-5.4,5.4c0.9,2.9,4.1,1.4,5.4,2.8
	c1.2,1.6,1.8,3.5,1.7,5.5c-0.1,1.5-0.3,2.9-0.3,4.4c0,1,0.6,4.1-0.2,5s-0.4,0.4-1.5,0.1c-1.8-0.5-1.4-1.3-1.2-2.3s1.4-1.7,1.6-3.1
	c0.2-1,0-2.1-0.4-3c-2.7-4.9-9.3-0.6-7.4,4.3c1.2,3,2.8,2.4,5.1,3.8c1.9,1.1,3.5,2.2,3.9,4.3c0.7,3.8,0.3,8,0.3,11.8
	c0.1,1.1,0.1,2.1,0,3.2c-2.3,1.3-4.6,2.5-7,3.5c-6.8,2.8-14.1,4.3-21.5,4.6c0.1-1.9,0.2-3.9,0.1-5.8c0-1.9-0.4-4.8,0.1-6.7
	c0.5-2.2,1.9-1.8,3.5-3.4c0.5-0.5,0.7-1.5,1.4-1.9c0.3-0.2,1.2-0.1,1.7-0.3c2.7-1.4,4.8-5,1.1-7.2c-0.7-0.2-1.5-0.1-2.2,0.2
	c-1.5,0.3-2.5,1.6-2.6,3.1c-0.2,1.3,1.1,2.9,1,3.8s-2.7,3.5-3.6,3.1c-1.2-0.5-0.2-6.7-0.2-7.6c0.1-3.4,0.2-4.1,3.8-4.6
	c1.3-0.2,2.2,0.4,3.2-0.8c1.4-1.8,1.1-5-1.4-4.9c-3.5,0.1-2.5,4.8-5.4,6.1c0-1.7,0.8-6.3,2.3-7.7c1.2-1.1,2.8-0.2,4.1-1.4
	c1.6-1.6,1.1-4.4-0.2-5.9c-3-3.6-7.1,1-6.2,4.5c0.5,2.2,1.6,1,1,4.1c-0.4,2-1.5,3.7-1.6,5.8c-2.9-1.4,2.6-6.6-2-8.4
	c-1.5-0.6-3.2,0.1-3.8,1.6c-0.3,0.8-0.3,1.7,0.2,2.5c-2.2,1.9,3.3,2.6,4.1,3.3c2,1.8,1.1,5.4,1,7.7c0,1.2,0.8,4.9-0.8,5.3
	c-1.5,0.3-1.8-1.7-1.6-2.4c0.4-1.6,1.8-2,1.3-4.2c-1-4-7-3.2-7.1,0.8c-0.2,3.7,3,3.9,5,5.4c1.1,0.8,2.5,1.2,3.1,2.4
	c0.4,0.9,0.2,2.8,0.2,3.8c0.2,2.4,0.3,4.9,0.1,7.3c0,0.8,0,1.5,0,2.3c-0.9,0-1.7,0.1-2.6,0.1H1487c0-0.1,0-0.1,0-0.2l-0.1,0.1
	c0.7-3.1,0.4-10.9,0.5-12.4c0.1-2.3-0.6-4.9-0.1-7.1c0.5-1.9,0.9-1.7,2.4-2.7c0.8-0.5,3.3-1.6,3.4-2.9c-1.1,1.4,0.6-1,0.6-1
	c1.2-0.8,2.4-0.9,3.8-1.5c4.2-1.9,5.5-7.7,1-10.3c-0.9-0.5-3,0.1-4.1,0.6c-3,1.6-3.6,4.6-2.6,7.7c0.7,2,1.5,2-0.1,3.9
	c-0.6,0.7-3.3,3.2-4.2,2.8c-1.8-0.8-0.3-10.6-0.4-12.5c0-2.3-0.2-3,1.6-4.2c1.2-0.9,2.8-1.3,4.3-1.2c2.9,0,5.1-0.4,5.5-3.9
	s-1.5-5.8-5-4.1c-1.5,0.8-2.5,2.3-2.7,3.9c-0.6,2.3-1.1,3.6-3.5,4.6c0.2-3.7,1.2-7.3,2.9-10.5c2-3.4,6.6-0.5,7.8-5.7
	c1-4.2-2.6-9.3-7-7.4c-3.1,1.4-5.9,7.8-2,10.1c0,4.5-2.3,8-2.7,12.4c-3.2-1.6,0.1-4.8,0.3-6.6c0.4-2.1-0.6-4.2-2.4-5.3
	c-4.1-2.6-8.2,1.4-7.2,5.7c0.6,2.8,2.4,3.3,5.1,4c2,0.5,1.3,0.3,2.4,2.3c0.6,1,1.1,2,1.4,3.1c0.5,2.2-0.3,5.2-0.3,7.4
	c0,1.6,0.6,4.2-0.2,5.7s-0.2,1.3-2,0.8c-1.2-0.3-2.4-1.2-2-2.6c0.1-0.4,2-1.8,2.3-2.8c0.5-1.7,0.4-3.5-0.3-5.1
	c-1.4-2.7-5.2-3.3-7.6-1.7c-3.1,1.9-2.7,5.2-1.2,8.1c0.7,1.5,1.1,2.1,2.5,2.6c1.8,0.6,1.9,0.2,3.3,1.3c1,0.7,2.3,1.6,3.2,2.4
	c0.7-0.2,1.3,0.2,1.5,0.9v0.1c0.1,0.7,0.2,1.3,0.2,2c0.7,4.9,0.8,9.9,0.3,14.9c0.1,1.4,0.1,2.8,0.1,4.1h-22.8V149.9h20.1
	c7,0,12.9,1.2,17.6,3.6c4.6,2.3,8.7,5.7,11.8,9.8c3.3,4.3,5.9,9.1,7.7,14.2c1.9,5.5,3.6,11.1,5,16.8h3.9V101h-3.9
	c-1.3,6.3-3.1,12.5-5.4,18.4c-2,5.1-4.8,9.9-8.4,14.1c-3.5,4-7.9,7-12.8,9c-5.1,2.1-11.3,3.1-18.8,3.1h-16.8V116
	c0.9,0.6,1.7,1.3,2.5,2c2.3,2.1,4.8,4.1,7.4,5.9c5.9,3.5,12.7,5.2,19.5,4.8c7.4-0.3,13.9-3.4,21.1-4.2c0.4,0,0.7-0.4,0.7-0.8
	c0-0.2-0.1-0.4-0.2-0.5s-0.2-0.1-0.3-0.2c-3.7-1.4-7.2-3.4-10.3-5.9c-3.7-2.9-7.3-5.9-11.3-8.5l0,0l0,0c-1.3-0.9-2.7-1.6-4.2-2.4
	l0,0l0,0l-0.3-0.1c-0.4-0.2-0.7-0.3-1.1-0.5l0,0l0,0c-3-1.2-6.3-1.9-9.6-1.9h-0.1c-4.8,0-9.5,1.2-13.7,3.5v-21
	c0.1,0,0.1-0.1,0.2-0.1c4.3-3.6,8.8-7.1,14-9.2l2.2-0.8h0.1h0.1c0.9-0.4,1.9-0.7,2.9-1h0.1c2.4-0.9,4.9-1.6,7.4-2.1
	c-2.4,0.9-4.8,1.9-7.2,3l0,0l0,0l-1.6,0.8l0,0l0,0c-1.2,0.6-2.4,1.2-3.5,1.8c-3.1,1.7-5.9,3.7-8.6,6c-1.8,1.6-3.2,3.6-4.2,5.8
	c-0.2,0.4-1.2,2.5-0.4,2.6c0.2-0.1,0.3-0.3,0.5-0.5c0.6-0.2,1.1-0.4,1.7-0.5c1.6-0.3,3.1-0.5,4.7-0.7c3.1-0.1,6.2-0.5,9.2-1
	c6.6-1.6,12.5-5.2,17-10.3c5-5.4,7.5-12.2,12-18c0.3-0.3,0.3-0.8,0-1.1c-0.1-0.1-0.3-0.2-0.5-0.2c-0.1,0-0.2,0-0.3,0.1
	c-3.6,1.6-7.4,2.6-11.3,3c-4.6,0.6-9.2,0.9-13.7,1.9h-0.1c-1.5,0.3-3.1,0.7-4.5,1.2h-0.1l-0.3,0.1c-0.4,0.1-0.7,0.3-1.1,0.4l0,0l0,0
	c-3,1.3-5.7,3.1-8,5.4l0,0l0,0c-2.6,2.7-4.7,5.8-6.2,9.2V53h47.7c9.8,0,18.1,1.9,24.9,5.5c6.3,3.3,11.9,7.7,16.7,13
	c4.1,4.6,7.4,9.9,10,15.4c2,4.2,3.7,8.6,5.1,13h3.9V48.8h-179.4V53h27.6v205.2h-27.6v4.2h191.7v-65.7h-3.9L1579.9,196.7z
	 M1552.2,216C1552.2,216,1552.2,215.9,1552.2,216S1552.2,216,1552.2,216c-0.2,0.1-0.5,0-0.7-0.1
	C1552.2,215.4,1552.4,215.5,1552.2,216z M1521.9,229.2c0.2,0.5-0.5,0.2-0.6,0.2L1521.9,229.2z M1496.1,215.2
	C1496.1,215.2,1496.2,215.1,1496.1,215.2S1496.1,215.2,1496.1,215.2c-0.3,0.1-0.6,0.1-0.9-0.1C1496,214.6,1496.3,214.6,1496.1,215.2
	L1496.1,215.2z M1463.5,108.5c5.6,0.5,11.3,1.2,16.5,3.5l2.2,1h0.1h0.1c0.9,0.4,1.9,0.8,2.8,1.3l0,0l0,0c2.4,1.1,4.7,2.4,6.9,3.8
	c-2.4-1-4.8-2.1-7.3-3h-0.1l-1.7-0.6l0,0l0,0c-1.3-0.4-2.5-0.8-3.8-1.2c-3.4-1-6.8-1.6-10.4-1.8c-1.8-0.1-3.7,0.1-5.4,0.6v-3.6
	C1463.3,108.5,1463.4,108.5,1463.5,108.5z"/>
<path class="st0" d="M1245.1,125.3L1245.1,125.3z"/>
<path class="st0" d="M1245,125.3L1245,125.3z"/>
<path class="st0" d="M1245,92L1245,92C1245,92,1245,92.1,1245,92z"/>
<path class="st0" d="M1247.1,89.1c-3.5-1.2-2,0.4-2.2,3c0-0.1,0.1-0.7,0,0c-0.2,2.8,6.9,7.2,6,1.7
	C1250.5,91.1,1249.5,89.8,1247.1,89.1z"/>
<path class="st0" d="M1247.3,97.7c-1.6,0.2-1.9,0.2-1.8,1.4c0,0.9,2.3,3.5,3.2,3.5h0.4c1.9,0,5.1-0.1,4.8-2
	C1253.6,98.4,1249,97.5,1247.3,97.7z"/>
<path class="st0" d="M1249,102.6L1249,102.6z"/>
<path class="st0" d="M1249,102.6L1249,102.6z"/>
<path class="st0" d="M1248.7,102.6L1248.7,102.6z"/>
<path class="st0" d="M1281.8,125.5c1-0.4,0.4-5.2-0.3-6l0,0c-0.8-0.9-2.8-3.2-4-2.2c-0.7,0.6,0.1,3.8,0.3,4.4
	C1278.1,122.7,1279.9,126.3,1281.8,125.5z"/>
<path class="st0" d="M1274.3,94.5C1274.3,94.8,1274.4,95.1,1274.3,94.5c0.4,1.4-0.8,4.5,1.3,4.5c0.1,0,1.9-2.2,1.9-2.2
	c2.4-2.7,2.9-4.7,2.9-8.1c0-1.9-0.6-1.6-2-0.5S1273.8,92.6,1274.3,94.5z"/>
<path class="st0" d="M1274.3,94.5L1274.3,94.5C1274.2,94.4,1274.2,94.3,1274.3,94.5z"/>
<path class="st0" d="M1291.2,114l0.1,0.2C1291.4,114.4,1291.4,114.5,1291.2,114z"/>
<path class="st0" d="M1291.2,114c-0.9-1.9-1.5-3.7-3.3-4.8c-2.4-1.5-4.5-1.2-4.2,2c0.3,2.8,2.4,3.3,4.2,4.5c3,1.9,4.9,2.6,3.3-1.5
	C1291.3,114.1,1291.2,114.1,1291.2,114z M1288.4,110.3C1288.3,110.4,1288.4,110.2,1288.4,110.3L1288.4,110.3z"/>
<path class="st0" d="M1277.6,123.9L1277.6,123.9z"/>
<path class="st0" d="M1277.5,131.8c2-0.6,0.9-6.6,0.2-7.8c-0.9-1.4-2.2,1.2-2.4,1.7C1274.9,126.8,1275.5,132.4,1277.5,131.8z"/>
<path class="st0" d="M1272.7,124.8L1272.7,124.8z"/>
<path class="st0" d="M1272.7,124.8c-0.7-1.3-2.3,1.1-2.5,1.8c-0.3,1-0.2,4.1,0.7,4.8C1273.1,133.1,1273.6,126.5,1272.7,124.8z"/>
<path class="st0" d="M1274.7,125.2c0.3-1.6,1.2-2.5,1.3-4.3c0.6-2.2-1-6.1-3.2-6.7c0.2,1.4-0.8,3.1-0.7,4.7
	S1272.9,124.6,1274.7,125.2z"/>
<path class="st0" d="M1276,120.9C1275.9,122,1276.2,120.3,1276,120.9L1276,120.9z"/>
<path class="st0" d="M1265.8,119c0.6,0,0.3,1.5,0.7,1.7s3.4-4.1,3.7-4.6c0.9-2.7,1.6-5.5,2.2-8.4c1.1,1.8,0.6,4.3,2.2,6
	c1.2,1.3,2.7,1.3,4.2,1.6c0.8,0.2,2-0.2,2.7,0.6c0.7-2.6,0-5.4-1.9-7.3c-0.9-0.8-2.8-2.1-4.1-1.4c0-0.9-1-1-0.5-1.5
	c0.2-0.1,0.4-0.2,0.6-0.2c3-0.8,5.6-2.7,7.2-5.4c1-1.8,1.1-1.7-0.5-1.9c-4.4-0.8-7.1,2.3-10,5.3c-0.5,0.5-1.8,2-2.5,1.8
	c-2-0.7,1.2-2.6,1.5-3c1.7-1.8,1.8-4.3,1.8-6.6c0-0.5-0.6-7.6-1.9-6.1c-1.2,1.6-2.2,3.4-2.9,5.3c-0.9,2.2-1,5.5,0.8,7.2
	c-1.8,1-5.4-0.9-7.5-0.9c-1.3,0-5.9,0.4-6.5,1.9s0.2,1.3,1.8,2c3,1.5,5.4,2.7,8.8,1.5c1-0.3,2.4-1.6,3.4-1.4
	c-0.5,2.1-2.4,3.2-3.4,5.2c-1.5,3-1.1,6.6-0.1,9.7C1265.7,119.7,1265.4,119,1265.8,119z M1269.2,111.7
	C1269.2,111.7,1269.3,111.6,1269.2,111.7L1269.2,111.7z M1271.5,94.9C1271.4,94.8,1271.5,94.9,1271.5,94.9L1271.5,94.9z
	 M1262.4,103.7C1262.4,103.7,1262.4,103.5,1262.4,103.7L1262.4,103.7z"/>
<path class="st0" d="M1271.1,89.5L1271.1,89.5z"/>
<path class="st0" d="M1265.4,83.5L1265.4,83.5z"/>
<path class="st0" d="M1265.4,83.5c-1.2-1.3-0.9,4.2-0.9,4.6c-0.1,0.6-0.1,1.2,0.1,1.8c0.3,0.7,0.6,1.4,1.1,2.1
	c0.7,1.1,0.8,2.1,2.2,1.5c1.7-0.8,0.4-4.6,1.2-5.1c1.8,3,3.6-4.4,3.4-5.8c-0.6-4.2-2.7-3.9-3.7-0.1c-0.2,0.7,0.4,4.2,0,4.7
	C1268.7,87.3,1265.5,83.6,1265.4,83.5z"/>
<path class="st0" d="M1286.3,116.8L1286.3,116.8L1286.3,116.8z"/>
<path class="st0" d="M1287.7,121.4c-0.1-1.6-0.6-3.2-1.4-4.6c-1.1-1.9-2.8-4.6-3.9-1C1281.9,117.6,1285,122,1287.7,121.4z"/>
<path class="st0" d="M1273.9,82L1273.9,82z"/>
<path class="st0" d="M1275.7,75.7c-1.9-0.3-2.8,5.1-1.8,6.3C1275.7,84.1,1278,76.1,1275.7,75.7z"/>
<path class="st0" d="M1281.1,87.7L1281.1,87.7C1281.1,87.6,1281.1,87.5,1281.1,87.7z"/>
<path class="st0" d="M1281.1,87.7C1281.1,87.8,1281.1,88.1,1281.1,87.7c-0.1,2.5-0.2,3.6,2.1,2c1.3-0.9,2.2-2.3,2.5-3.9
	C1285.8,81.7,1281.2,85.1,1281.1,87.7z"/>
<path class="st0" d="M1288.4,95.5L1288.4,95.5z"/>
<path class="st0" d="M1288.3,95.5L1288.3,95.5z"/>
<path class="st0" d="M1292.6,92.4c-2.3-1.6-5.2,3.1-4.4,3.1l0,0C1289.5,95.5,1295.6,94.5,1292.6,92.4z"/>
<path class="st0" d="M1288.4,95.5L1288.4,95.5z"/>
<path class="st0" d="M1264.5,132.6c0.6-0.7,0.9-1.5,1-2.3c0.1-0.3,0.1-4-1.1-2.4l0,0C1263.3,129.4,1261.5,135.8,1264.5,132.6z"/>
<path class="st0" d="M1264.4,127.9L1264.4,127.9C1263.9,128.6,1264.2,128.1,1264.4,127.9z"/>
<path class="st0" d="M1264.4,127.9L1264.4,127.9C1264.5,127.8,1264.5,127.8,1264.4,127.9z"/>
<path class="st0" d="M1284.6,90.9L1284.6,90.9c-2.7,1-7.2,6.9-2,5.7C1285.5,95.9,1290.3,90.5,1284.6,90.9z"/>
<path class="st0" d="M1284.5,90.9L1284.5,90.9C1284.2,91,1284.3,91,1284.5,90.9z"/>
<path class="st0" d="M1243.9,109.1L1243.9,109.1c1,0,2.1-0.3,3-0.8c1.1-1.2,0.5-0.6-0.4-1.3C1243.5,104.6,1239.1,108.7,1243.9,109.1
	z"/>
<path class="st0" d="M1243.9,109.1L1243.9,109.1z"/>
<path class="st0" d="M1244,109.1L1244,109.1z"/>
<path class="st0" d="M1242.3,104.8c1.1,0.7,5.6,1.2,5.2-0.7C1247,101.7,1240.8,101,1242.3,104.8z"/>
<path class="st0" d="M1264.4,80.9c2.4,4.5,4.2-0.5,2.4-3.4C1264.2,73.4,1262.8,78,1264.4,80.9z"/>
<path class="st0" d="M1264.4,80.9C1263.8,79.7,1264.6,81.3,1264.4,80.9L1264.4,80.9z"/>
<path class="st0" d="M1280.2,85.3C1280.1,85.6,1280.2,85.3,1280.2,85.3L1280.2,85.3z"/>
<path class="st0" d="M1279.8,81.5c-0.4,0.8-0.5,5.2,0.4,3.8c0.6-0.4,3.4-3.5,2.5-5.2C1281.7,78.1,1280.5,79.9,1279.8,81.5z
	 M1280.6,84.1C1280.8,83.9,1280.7,84.2,1280.6,84.1L1280.6,84.1z M1282.2,82.2C1282.3,82.2,1282.3,82.5,1282.2,82.2L1282.2,82.2z"/>
<path class="st0" d="M1253.7,91.2c0.2,0.6,2.8,2.7,3.6,2.6c1.1-0.2,0.8-1.4,0.9-2.3c0.2-2.1-0.7-4.2-2.4-5.4
	c-0.7-0.4-1.4-0.7-2.1-0.8C1250.5,84.9,1252.3,89.6,1253.7,91.2z"/>
<path class="st0" d="M1253.7,91.2C1253,90.4,1253.7,91.4,1253.7,91.2L1253.7,91.2z"/>
<path class="st0" d="M1261.8,91.6c-1.7-1.3-1.5-1.2-0.6-0.8c-0.5-0.7-1-1.5-1.3-1.4c-0.9,0.2,0.2,5.9,0.6,6.9c0.5,1.6,1.5,2.8,3,3.6
	c2.2,1.3,2.9,1.1,3.2-1.3c0.4-2-0.2-4-1.6-5.4c-1-0.6-2.8-1.7-3.8-2.3C1261.4,91.1,1261.5,91.3,1261.8,91.6z M1261.8,93.6
	C1261.8,93.7,1261.8,93.7,1261.8,93.6L1261.8,93.6z"/>
<path class="st0" d="M1264.2,92.5c0.3,0.2,0.5,0.4,0.7,0.6C1265.8,93.6,1266,93.7,1264.2,92.5z"/>
<path class="st0" d="M1254.3,128.1l0.2-0.4L1254.3,128.1z"/>
<path class="st0" d="M1256.3,129c2.4-3.1-0.7-3.5-2-0.8S1254.7,131.1,1256.3,129z"/>
<path class="st0" d="M1249.7,114.4C1249.6,114.5,1249.2,114.9,1249.7,114.4c1.2-1.4,5.1-1.5,2.8-3.5s-6.3-1.1-8.5,0.5
	c-0.5,0.2-0.9,0.5-1.3,0.8c-0.3,1.6,0.2,0.1,1.3,1.1c0.2,0.4,0.5,0.8,0.8,1.2C1246.2,115.1,1248.5,115.6,1249.7,114.4z"/>
<path class="st0" d="M1264.4,110.1c1.2-3.1-3.4-1.7-5.3-0.8c-1.5,0.7-2.9,1.7-4.2,2.8c-0.4,0.3-2.8,3.1-1.3,3c0.4,0,0.2,0,0,0
	c1.3-0.1,2.3,0.5,3.5,0.4C1259.7,115.3,1263.5,112.6,1264.4,110.1z"/>
<path class="st0" d="M1253.6,115L1253.6,115z"/>
<path class="st0" d="M1295.3,106.2L1295.3,106.2C1295,106.1,1295.2,106.2,1295.3,106.2z"/>
<path class="st0" d="M1295.3,106.2L1295.3,106.2C1295.5,106.3,1295.6,106.4,1295.3,106.2z"/>
<path class="st0" d="M1289.1,107.4c-0.1,1.5,1.8,1.6,3.1,1.6c0.9,0,5.3-1.7,3.1-2.7l0,0C1293.9,105.7,1289.2,104.7,1289.1,107.4z"/>
<path class="st0" d="M1259.9,80.4c-1.6,0.1-0.6,3.1-0.7,4v-0.3v0.3c-0.1,1.2,1.8,5.8,2.8,6c2.6,0.3,0.9-5.9,0.3-7.1
	C1262,82.9,1260.7,80.4,1259.9,80.4z M1262.9,86.3C1262.8,86.6,1262.9,86.2,1262.9,86.3L1262.9,86.3z"/>
<path class="st0" d="M1244,97.2C1243.2,97.1,1244.4,97.6,1244,97.2L1244,97.2z"/>
<path class="st0" d="M1244.1,94.2c-1.9-0.6-2.2,2.8-0.1,3.1C1245,98.2,1246,94.8,1244.1,94.2z"/>
<path class="st0" d="M1249.8,127.6L1249.8,127.6z"/>
<path class="st0" d="M1254.2,122.5c-1.4,0-3.4,1.8-4.2,2.8c-0.2,0.3-2.2,2.8-0.3,2.3c1.6-0.3,3-1,4.2-2
	C1255.4,124.4,1256.3,122.5,1254.2,122.5z"/>
<path class="st0" d="M1270.6,120.3L1270.6,120.3z"/>
<path class="st0" d="M1270.6,120.3c0.2-0.1-1.4-1-0.9-0.9c-0.7-0.1-0.6,0.7-0.9,0.9c-1.8,1.2-2.7,3.4-2.3,5.6
	C1267.7,130.9,1272.6,123.3,1270.6,120.3z"/>
<path class="st0" d="M1253.7,120.8L1253.7,120.8z"/>
<path class="st0" d="M1256.5,117.1c-0.6-0.9-4.5-0.3-5.2-0.1c-1.8,0.6-5.7,3.5-3.4,5.2c1.7,1.3,4.3-0.7,5.8-1.4
	c-1.2,0.6-0.2,0.1,0,0C1254.5,120.4,1257.3,118.4,1256.5,117.1z M1252.3,117.1C1252.3,117.1,1252.3,117,1252.3,117.1L1252.3,117.1z"
	/>
<path class="st0" d="M1296.2,99.5L1296.2,99.5z"/>
<path class="st0" d="M1290.5,102.4c1.2,3.6,6.8-2.4,5.7-2.9C1294.8,98.8,1289.7,100.1,1290.5,102.4z M1291.1,102
	C1291.1,101.9,1291.1,102.3,1291.1,102L1291.1,102z"/>
<path class="st0" d="M1256.2,84.9L1256.2,84.9C1256.2,84.9,1256,84.9,1256.2,84.9z"/>
<path class="st0" d="M1255.8,78.9c-3.8-1.1-2.2,5.3,0.5,6l0,0C1258.1,85.4,1258.2,79.6,1255.8,78.9z"/>
<path class="st0" d="M1256.2,84.9L1256.2,84.9C1256.2,84.9,1256.3,85,1256.2,84.9z"/>
<path class="st0" d="M1257.5,100.2c4,0.8,2.4-4.6,0-5.4c-0.1,0-0.6-0.1-0.2-0.1c-2.2-0.2-3.4-1.4-5.6-1.6
	C1252.2,96.4,1254.1,99.5,1257.5,100.2z"/>
<path class="st0" d="M1257.3,94.8l0.2,0.1C1257.4,94.8,1257.5,94.8,1257.3,94.8z"/>
<path class="st0" d="M1278.8,106.5L1278.8,106.5C1278.9,106.6,1278.8,106.5,1278.8,106.5z"/>
<path class="st0" d="M1284.7,107.4c1.1-0.2,5.6-2.6,4.9-4.2c-0.2-0.6-7.5-0.2-8.5,0.3c-0.7,0.4-2.9,2.1-2.3,3l0,0
	C1279.5,107.5,1283.6,107.6,1284.7,107.4z"/>
<path class="st0" d="M1278.8,106.5L1278.8,106.5C1278.8,106.4,1278.7,106.3,1278.8,106.5z"/>
<path class="st0" d="M1274.2,90.2c1.7-1.1,2.7-1.9,3.3-4c0.2-0.9,0.9-3.7-0.4-4.1s-3.2,2.4-3.6,3.4
	C1273.1,86.3,1272.2,91.6,1274.2,90.2z"/>
<path class="st0" d="M1274.2,90.2L1274.2,90.2z"/>
<path class="st0" d="M1248.1,106.6C1247.9,106.5,1248.1,106.6,1248.1,106.6L1248.1,106.6z"/>
<path class="st0" d="M1254.1,109.9c1.5-0.2,4.4-1.3,4-2.6s-4.7-2.9-6-2.9c-1.5,0.4-2.9,0.9-4.2,1.7l0.3,0.5
	C1248.1,108.6,1252.8,110.1,1254.1,109.9z M1255.1,108.6C1255.5,108.4,1255.1,108.7,1255.1,108.6L1255.1,108.6z M1253.5,109.5
	C1253.2,109.5,1254.7,109.1,1253.5,109.5L1253.5,109.5z"/>
<path class="st0" d="M1284.4,98.9c-2.3,3.7,5.7,3.6,7.1-0.4l0,0C1292.1,95.8,1285.5,97.1,1284.4,98.9z M1289.6,99.6
	C1289.5,99.7,1289.6,99.6,1289.6,99.6L1289.6,99.6z"/>
<path class="st0" d="M1291.5,98.5L1291.5,98.5z"/>
<path class="st0" d="M1275.1,100.5c-0.1,0-0.2,0.1-0.2,0.2L1275.1,100.5z"/>
<path class="st0" d="M1258.8,174.2L1258.8,174.2z"/>
<path class="st0" d="M1258.7,174.3l-1.8,4l0,0L1258.7,174.3z"/>
<path class="st0" d="M1282,183.3L1282,183.3z"/>
<path class="st0" d="M1303.9,178.6L1303.9,178.6C1304,178.5,1304,178.5,1303.9,178.6z"/>
<path class="st0" d="M1303.9,178.6L1303.9,178.6C1303.8,178.6,1303.7,178.7,1303.9,178.6z"/>
<path class="st0" d="M1302.8,177c0.7-0.1,0.2,2.1,1.1,1.6l0,0c1.2-0.7,2.8-3.5,3.5-4.7c0.8-2.7,1.5-5.4,2-8.1c1.1,1.8,0.6,4.3,2.2,6
	c1.2,1.3,2.7,1.3,4.2,1.6c0.8,0.2,2-0.2,2.7,0.6c0.7-2.6,0-5.4-1.9-7.3c-0.9-0.8-2.8-2.1-4.1-1.4c0-2-1.1-0.4,0-1.6
	c0.5-0.6,2.6-1,3.3-1.5c1-0.6,1.9-1.4,2.6-2.2c1.9-2.1,3-4,0-4c-2.8,0.1-5.5,1.3-7.4,3.4c-1.2,1.2-2.4,3.7-4.3,3.9
	c-0.3,0-0.5-1.1-0.5-1.5c0-0.1,0-0.1,0-0.2c0,0.1,0,0.1,0,0.2c0.2,0.2,1.6-1,1.7-1.1c0.4-0.5,0.8-1,1-1.6c1.4-2.4,1.3-5.2,1-8
	c-0.1-0.9,0-3.5-1.5-3.5s-1.6,2.3-2,3.3c-1.2,2.7-3.2,6.5-0.4,9.1c-2.2,0.7-5-0.9-7.5-0.9c-2.2,0-9.7,1.4-5.3,3.7
	c3.1,1.6,5.8,2.9,9.3,1.7c1-0.4,2.4-1.6,3.4-1.5c-0.5,2.1-2.4,3.2-3.4,5.2c-1.5,3-1.1,6.6-0.1,9.7
	C1302.7,177.7,1302.4,177,1302.8,177z M1308.5,152.9C1308.4,152.8,1308.5,152.9,1308.5,152.9L1308.5,152.9z M1306.2,169.7
	C1306.2,169.7,1306.3,169.6,1306.2,169.7L1306.2,169.7z M1299.4,161.7C1299.4,161.7,1299.4,161.5,1299.4,161.7L1299.4,161.7z"/>
<path class="st0" d="M1282,150L1282,150C1282,150,1282,150.1,1282,150z"/>
<path class="st0" d="M1282,150C1282,149.9,1282,149.3,1282,150c-0.2,2.8,6.9,7.1,6,1.7c-0.4-2.6-1.4-3.9-3.8-4.6
	C1280.6,145.9,1282.1,147.5,1282,150z"/>
<path class="st0" d="M1290.7,158.1L1290.7,158.1c-1.4-1.5-8.9-4.4-8.1-0.7c0.6,1.4,1.7,2.6,3.2,3.2
	C1286.8,161,1292.8,160.3,1290.7,158.1z"/>
<path class="st0" d="M1290.3,157.7l0.4,0.4l0,0L1290.3,157.7z"/>
<path class="st0" d="M1290.7,158.1L1290.7,158.1L1290.7,158.1z"/>
<path class="st0" d="M1290.3,157.7L1290.3,157.7z"/>
<path class="st0" d="M1297.3,181.1c-0.1,0.6-1.5,5.9-0.7,6.4c0.5,0.3,2.4-2,2.6-2.2c1.6-1.9,2.5-3.9,1.9-6.4
	c-0.8-3.2,0.1-0.6-2.2-0.6c0.7-0.9,1.8-4.5,1.5-5.6c-0.2-0.7,0.4-0.8-0.6-0.9c-0.9,0.5-1.7,1-2.4,1.7c-2.1,1.6-3.1,2.7-3.6,5.5
	c-0.8,4.9,2,2.3,4.1,0.2C1298.1,179.7,1297.4,180.8,1297.3,181.1L1297.3,181.1L1297.3,181.1z M1296.6,179.9
	C1296.6,179.9,1296.6,179.8,1296.6,179.9L1296.6,179.9z"/>
<path class="st0" d="M1297.3,181.1L1297.3,181.1L1297.3,181.1z"/>
<path class="st0" d="M1318.8,183.5c1-0.4,0.4-5.2-0.3-6l0,0c-0.8-0.9-2.8-3.3-4-2.2c-0.7,0.6,0.1,3.8,0.3,4.4
	C1315.1,180.7,1316.9,184.3,1318.8,183.5z M1318.4,177.4l-0.2-0.2L1318.4,177.4z"/>
<path class="st0" d="M1311.3,152.5L1311.3,152.5C1311.2,152.4,1311.2,152.3,1311.3,152.5z"/>
<path class="st0" d="M1311.3,152.5C1311.3,152.8,1311.4,153.1,1311.3,152.5c0.4,1.4-0.8,4.5,1.3,4.5c0.1,0,1.9-2.2,1.9-2.2
	c2.4-2.7,2.9-4.7,2.9-8.1c0-1.9-0.6-1.6-2-0.5S1310.8,150.6,1311.3,152.5z"/>
<path class="st0" d="M1328.2,172l0.1,0.2C1328.4,172.4,1328.4,172.5,1328.2,172z"/>
<path class="st0" d="M1328.3,172.2c0-0.1-0.1-0.1-0.1-0.2c-0.9-1.9-1.5-3.7-3.3-4.9c-2.4-1.5-4.5-1.2-4.2,2c0.3,2.8,2.4,3.3,4.2,4.5
	C1327.9,175.7,1329.8,176.3,1328.3,172.2z M1325.4,168.3C1325.3,168.4,1325.4,168.3,1325.4,168.3L1325.4,168.3z"/>
<path class="st0" d="M1314.5,189.8c2-0.6,0.9-6.6,0.2-7.8c-0.9-1.4-2.2,1.2-2.4,1.7C1311.9,184.8,1312.5,190.4,1314.5,189.8z"/>
<path class="st0" d="M1314.6,181.9L1314.6,181.9z"/>
<path class="st0" d="M1309.7,182.8L1309.7,182.8z"/>
<path class="st0" d="M1309.7,182.8c-0.7-1.3-2.3,1.1-2.5,1.8c-0.3,1-0.2,4.1,0.7,4.8C1310.1,191.1,1310.6,184.5,1309.7,182.8z"/>
<path class="st0" d="M1305.5,185.4c1.8-0.8,2.8-4.1,2.7-5.7c0-1.1-0.9-2.1-2-2.2c-0.9,0.1-2.6,3.6-2.7,4.3
	C1303,183.9,1303.5,186.4,1305.5,185.4z"/>
<path class="st0" d="M1308.2,179.7C1308.3,181.5,1308.3,179.1,1308.2,179.7L1308.2,179.7z"/>
<path class="st0" d="M1311.7,183.2c0.3-1.6,1.2-2.5,1.3-4.3c0.6-2.2-1-6.1-3.2-6.7c0.2,1.4-0.8,3.1-0.7,4.7
	S1309.9,182.6,1311.7,183.2z"/>
<path class="st0" d="M1313,178.9C1312.9,180,1313.2,178.4,1313,178.9L1313,178.9z"/>
<path class="st0" d="M1302.4,141.5L1302.4,141.5z"/>
<path class="st0" d="M1302.4,141.5c-1.2-1.3-0.9,4.2-0.9,4.6c-0.1,0.6-0.1,1.2,0.1,1.9c0.3,0.7,0.6,1.4,1.1,2.1
	c0.7,1.1,0.8,2.1,2.2,1.5c1.7-0.8,0.4-4.6,1.2-5.1c1.8,3,3.6-4.4,3.4-5.8c-0.6-4.2-2.7-3.9-3.7-0.1c-0.2,0.7,0.4,4.2,0,4.7
	C1305.7,145.3,1302.5,141.6,1302.4,141.5z"/>
<path class="st0" d="M1324.7,179.4c-0.1-1.6-0.6-3.2-1.4-4.6c-1.1-1.9-2.8-4.6-3.9-1C1318.9,175.6,1322,180,1324.7,179.4z"/>
<path class="st0" d="M1310.9,140L1310.9,140z"/>
<path class="st0" d="M1312.7,133.7c-1.9-0.3-2.8,5.1-1.8,6.3C1312.7,142.1,1315,134.1,1312.7,133.7z"/>
<path class="st0" d="M1318.1,145.7L1318.1,145.7C1318.1,145.6,1318.1,145.5,1318.1,145.7z"/>
<path class="st0" d="M1318.1,145.7C1318.1,145.8,1318.1,146.1,1318.1,145.7c-0.1,2.5-0.2,3.6,2.1,2c1.3-0.9,2.2-2.3,2.5-3.9
	C1322.8,139.7,1318.2,143.1,1318.1,145.7z"/>
<path class="st0" d="M1325.4,153.5L1325.4,153.5z"/>
<path class="st0" d="M1325.4,153.5L1325.4,153.5z"/>
<path class="st0" d="M1329.6,150.4c-2.3-1.6-5.2,3.1-4.4,3.1C1326.5,153.5,1332.6,152.5,1329.6,150.4z"/>
<path class="st0" d="M1325.2,153.5L1325.2,153.5z"/>
<path class="st0" d="M1302.6,186.1L1302.6,186.1L1302.6,186.1L1302.6,186.1z"/>
<path class="st0" d="M1302.5,186L1302.5,186L1302.5,186L1302.5,186z"/>
<path class="st0" d="M1302.6,186.1L1302.6,186.1z"/>
<path class="st0" d="M1302.6,186L1302.6,186L1302.6,186z"/>
<path class="st0" d="M1302.5,186L1302.5,186z"/>
<path class="st0" d="M1302.6,186.1L1302.6,186.1z"/>
<path class="st0" d="M1321.6,148.9L1321.6,148.9c-2.7,1-7.2,6.9-2,5.7C1322.5,153.9,1327.3,148.5,1321.6,148.9z"/>
<path class="st0" d="M1321.5,148.9L1321.5,148.9C1321.2,149,1321.3,149,1321.5,148.9z"/>
<path class="st0" d="M1280.9,167.1c1,0,2.1-0.3,3-0.8c1.1-1.2,0.5-0.6-0.4-1.3C1280.5,162.6,1276.1,166.6,1280.9,167.1z"/>
<path class="st0" d="M1279.3,162.8c1.1,0.7,5.6,1.2,5.2-0.7C1284,159.7,1277.8,159,1279.3,162.8z"/>
<path class="st0" d="M1301.4,138.9C1300.8,137.7,1301.6,139.3,1301.4,138.9L1301.4,138.9z"/>
<path class="st0" d="M1301.4,138.9c2.4,4.5,4.2-0.5,2.4-3.4C1301.2,131.4,1299.8,136,1301.4,138.9z"/>
<path class="st0" d="M1301.8,166.5L1301.8,166.5c-2.9-0.6-5.9,0.8-8.1,2.4s-5.5,4.1-0.8,4.4c0.8,0.2,1.7,0.2,2.5,0
	C1296.8,172.8,1303,168.7,1301.8,166.5z"/>
<path class="st0" d="M1301.7,166.5L1301.7,166.5C1301.7,166.5,1301.7,166.5,1301.7,166.5z"/>
<path class="st0" d="M1292.2,181.8L1292.2,181.8C1292.3,181.7,1292.3,181.7,1292.2,181.8z"/>
<path class="st0" d="M1288.3,185.2c1.8-0.6,2.6-1.8,4-3.4c-0.3,0.4-0.1,0.1,0,0c1.8-2.2-1.8-0.8-2.1-0.6c-1.3,0.6-3.9,1.8-4.1,3.4
	S1287.2,185.6,1288.3,185.2z"/>
<path class="st0" d="M1317.2,143.3C1317.1,143.5,1317.2,143.3,1317.2,143.3L1317.2,143.3z"/>
<path class="st0" d="M1316.8,139.5c-0.4,0.8-0.5,5.2,0.4,3.8c0.6-0.4,3.4-3.5,2.5-5.2C1318.7,136.1,1317.5,137.9,1316.8,139.5z
	 M1317.6,142.1C1317.8,141.9,1317.7,142.2,1317.6,142.1L1317.6,142.1z M1319.2,140.1C1319.3,140.1,1319.3,140.5,1319.2,140.1
	L1319.2,140.1z"/>
<path class="st0" d="M1292.8,144.1c-0.7-0.4-1.4-0.7-2.1-0.9c-3.2-0.4-1.4,4.3,0.1,6c0.2,0.6,2.8,2.7,3.6,2.6
	c1.1-0.2,0.8-1.4,0.9-2.3C1295.4,147.4,1294.5,145.3,1292.8,144.1z"/>
<path class="st0" d="M1290.7,149.2C1290,148.4,1290.7,149.4,1290.7,149.2L1290.7,149.2z"/>
<path class="st0" d="M1292.8,184.5c-1.9,0.8-1.9,4.8-1.1,4S1296.6,183,1292.8,184.5z"/>
<path class="st0" d="M1291.8,188.6L1291.8,188.6z"/>
<path class="st0" d="M1286.7,172.4C1286.6,172.5,1286.2,172.9,1286.7,172.4c1.2-1.4,5.1-1.5,2.8-3.5s-6.3-1.1-8.5,0.5
	c-0.5,0.2-0.9,0.5-1.3,0.8c-0.3,1.6,0.2,0.1,1.3,1.1c0.2,0.4,0.5,0.8,0.8,1.2C1283.2,173.1,1285.5,173.6,1286.7,172.4z"/>
<path class="st0" d="M1332.3,164.2L1332.3,164.2C1332,164.1,1332.2,164.2,1332.3,164.2z"/>
<path class="st0" d="M1332.3,164.2L1332.3,164.2C1332.5,164.3,1332.6,164.4,1332.3,164.2z"/>
<path class="st0" d="M1332.3,164.2L1332.3,164.2c-1.3-0.6-6-1.5-6.1,1.1c-0.1,1.5,1.8,1.6,3.1,1.6
	C1330.1,166.9,1334.5,165.2,1332.3,164.2z"/>
<path class="st0" d="M1296.9,138.4c-1.6,0.1-0.6,3.1-0.7,4v-0.3v0.3c-0.1,1.2,1.8,5.8,2.8,6c2.6,0.3,0.9-5.9,0.3-7.1
	C1299,140.9,1297.7,138.4,1296.9,138.4z M1299.9,144.3C1299.8,144.6,1299.9,144.2,1299.9,144.3L1299.9,144.3z"/>
<path class="st0" d="M1281.1,152.1c-1.9-0.6-2.2,2.8-0.1,3.1C1282,156.2,1283,152.8,1281.1,152.1z"/>
<path class="st0" d="M1281,155.2C1280.2,155.1,1281.4,155.6,1281,155.2L1281,155.2z"/>
<path class="st0" d="M1284.9,180.2c1.7,1.3,4.3-0.7,5.8-1.4c-1.2,0.6-0.2,0.1,0,0c0.8-0.4,3.6-2.4,2.8-3.6c-0.6-0.9-4.5-0.4-5.2-0.1
	C1286.5,175.6,1282.7,178.5,1284.9,180.2z M1289.3,175.1C1289.3,175.1,1289.3,175,1289.3,175.1L1289.3,175.1z"/>
<path class="st0" d="M1290.7,178.8L1290.7,178.8z"/>
<path class="st0" d="M1333.2,157.5L1333.2,157.5z"/>
<path class="st0" d="M1333.2,157.5c-1.4-0.7-6.5,0.7-5.7,2.9C1328.6,163.9,1334.2,158,1333.2,157.5z M1328.1,160
	C1328.1,159.9,1328.1,160.3,1328.1,160L1328.1,160z"/>
<path class="st0" d="M1292.8,136.9c-3.8-1.1-2.2,5.3,0.5,6l0,0C1295.1,143.4,1295.2,137.6,1292.8,136.9z"/>
<path class="st0" d="M1293.2,142.9L1293.2,142.9C1293.2,142.9,1293.3,143,1293.2,142.9z"/>
<path class="st0" d="M1293.2,142.9L1293.2,142.9C1293.2,142.9,1293,142.9,1293.2,142.9z"/>
<path class="st0" d="M1294.5,152.8c-0.1,0-0.6-0.1-0.2-0.1c-2.2-0.2-3.4-1.4-5.6-1.6c0.6,3.2,2.5,6.3,5.8,7
	C1298.5,159,1296.9,153.6,1294.5,152.8z"/>
<path class="st0" d="M1294.3,152.8l0.2,0.1C1294.4,152.8,1294.5,152.8,1294.3,152.8z"/>
<path class="st0" d="M1295,165.3c-1.1-0.2-2.2-1.5-3.2-2c-1-0.6-2.1-0.9-3.2-0.8c-1.4,0.4-2.7,0.9-3.9,1.6c-0.2,1.7,4.5,4,5.8,4
	C1291.6,168.1,1296.3,165.5,1295,165.3C1294.7,165.2,1294.9,165.3,1295,165.3z M1290.6,167.5
	C1290.2,167.5,1291.7,167.1,1290.6,167.5L1290.6,167.5z M1292.1,166.6C1292.5,166.4,1292.1,166.7,1292.1,166.6L1292.1,166.6z"/>
<path class="st0" d="M1295,165.3L1295,165.3C1295.2,165.3,1295.1,165.3,1295,165.3z"/>
<path class="st0" d="M1321.7,165.4c1.2-0.2,5.8-2.8,4.7-4.3c-0.1-0.1-4.2-0.1-4.4-0.1c-1.4,0-3.1-0.1-4.2,0.7
	c-0.5,0.3-2.4,2-1.9,2.8l0,0C1316.5,165.5,1320.5,165.6,1321.7,165.4z"/>
<path class="st0" d="M1315.8,164.5L1315.8,164.5C1315.8,164.4,1315.7,164.3,1315.8,164.5z"/>
<path class="st0" d="M1315.8,164.5L1315.8,164.5C1315.9,164.6,1315.8,164.5,1315.8,164.5z"/>
<path class="st0" d="M1311.2,148.2c1.1-0.7,6.2-6.2,3.1-8c-1.4-0.8-3.5,2.1-3.9,3.3C1310.1,144.3,1309.2,149.6,1311.2,148.2z"/>
<path class="st0" d="M1311.2,148.2L1311.2,148.2z"/>
<path class="st0" d="M1296.8,147.4c-0.5,0.1,0,6.5,0.6,7.3c0.7,1.4,1.8,2.5,3.1,3.3c3,1.6,3.1,0,2.9-2.6c-0.1-2.1-0.3-3.6-2.3-4.9
	c-0.7-0.4-1.9-0.5-2.5-1C1298.4,149.3,1297.3,147.3,1296.8,147.4z M1298.7,151.6C1298.8,151.7,1298.7,151.8,1298.7,151.6
	L1298.7,151.6z"/>
<path class="st0" d="M1297.5,154.7C1297.4,154.6,1297.5,154.7,1297.5,154.7L1297.5,154.7z"/>
<path class="st0" d="M1328.5,156.5L1328.5,156.5z"/>
<path class="st0" d="M1321.4,156.9c-2.3,3.7,5.7,3.6,7.1-0.4l0,0C1329.1,153.8,1322.5,155.1,1321.4,156.9z M1326.6,157.6
	C1326.5,157.7,1326.6,157.6,1326.6,157.6L1326.6,157.6z"/>
<path class="st0" d="M460.8,166.6c-27.7-41.7-60.8-39.3-75.6-35.5c12-6.8,32.6-22.5,27.7-48.1c-3.4,15.1-18,19.9-29,21.3
	c3-20.5,12.6-44.8,40.1-51.1c-44.2-9-66.1,10.6-75.8,24.2c2.9-13.8,3.4-35.5-15.6-48.5c8.3,13.1,1.4,26.8-5.5,35.7
	C314.8,47.9,304.4,24,319.5,0c-41.5,27.8-39.1,61-35.4,75.9c-6.8-11.9-22.4-32.6-48-27.7c15,3.4,19.8,18.1,21.2,29.1
	c-20.4-3-44.6-12.5-50.9-40.2c-10,50.2,16.4,71.9,29.3,79.2c-12.5-3.7-40.3-9.1-55.8,13.8c13-8.3,26.7-1.4,35.5,5.5
	c-16.6,12.4-40.4,22.8-64.3,7.7c27.7,41.7,60.8,39.4,75.5,35.5c-12,6.8-32.6,22.5-27.7,48.1c3.4-15.1,18-19.9,29-21.3
	c-3,20.5-12.6,44.8-40.1,51.1c44.2,9,66.1-10.7,75.8-24.2c-2.9,13.8-3.4,35.5,15.6,48.5c-8.3-13.1-1.4-26.8,5.5-35.7
	c12.3,16.6,22.7,40.6,7.7,64.6c41.5-27.8,39.1-61,35.4-75.9c6.8,11.9,22.4,32.6,48,27.7c-15-3.4-19.8-18.1-21.2-29.1
	c20.4,3,44.6,12.5,50.9,40.2c10-50.1-16.3-71.7-29.2-79.2c-21,38.9-69.6,53.3-108.4,32.3s-53.3-69.6-32.3-108.4S305.2,64.2,344,85.2
	c25.8,14,41.9,41,41.9,70.3c0,13.3-3.3,26.4-9.6,38.1c12.5,3.7,40.2,8.9,55.7-13.9c-13,8.3-26.7,1.4-35.5-5.5
	C413,161.9,436.9,151.5,460.8,166.6z"/>
<path class="st0" d="M376.3,193.7L376.3,193.7h-0.1H376.3z"/>
<circle class="st0" cx="306" cy="155.2" r="70"/>
</svg>
